<svg xmlns="http://www.w3.org/2000/svg" xmlns:xlink="http://www.w3.org/1999/xlink" xmlns:lucid="lucid" width="2397.31" height="1281"><g transform="translate(2095.488793371197 1200)" lucid:page-tab-id="0_0"><path d="M-2500-1500H500V500h-3000z" fill="#fff"/><path d="M-938.9-721.9h-35.9a6 6 0 0 1-6-6v-228a6 6 0 0 1 6-6h35.9z" stroke="#000" stroke-width="2" fill="#fff"/><path d="M-938.9-961.9h494.72a6 6 0 0 1 6 6v228a6 6 0 0 1-6 6H-938.9z" stroke="#000" stroke-width="2" fill="none"/><use xlink:href="#a" transform="matrix(-1.8369701987210297e-16,-1,1,-1.8369701987210297e-16,-980.7960592854781,-721.903627888001) translate(86.99305555555556 29.08376736111111)"/><path d="M-938.9-721.9h-35.9a6 6 0 0 1-6-6v-228a6 6 0 0 1 6-6h35.9z" stroke="#000" stroke-width="2" fill="#fff"/><path d="M-938.9-961.9h494.72a6 6 0 0 1 6 6v228a6 6 0 0 1-6 6H-938.9z" stroke="#000" stroke-width="2" fill="none"/><use xlink:href="#a" transform="matrix(-1.8369701987210297e-16,-1,1,-1.8369701987210297e-16,-980.7960592854781,-721.903627888001) translate(86.99305555555556 29.08376736111111)"/><path d="M-900-200v-274a6 6 0 0 1 6-6h35.9v280zM-858.1 80H-894a6 6 0 0 1-6-6v-274h41.9z" stroke="#000" stroke-width="2" fill="#fff"/><path d="M-858.1-480H294.8a6 6 0 0 1 6 6v274H-858.1zM300.82-200V74a6 6 0 0 1-6 6H-858.1v-280z" stroke="#000" stroke-width="2" fill="none"/><use xlink:href="#b" transform="matrix(-1.8369701987210297e-16,-1,1,-1.8369701987210297e-16,-900,-200) translate(117.12673611111111 29.08376736111111)"/><use xlink:href="#c" transform="matrix(-1.8369701987210297e-16,-1,1,-1.8369701987210297e-16,-900,79.99999999999989) translate(104.33376736111111 29.08376736111111)"/><path d="M-785.37-799.5v393.2M-785.37-799.5v-.5" stroke="#3a414a" fill="none"/><path d="M-785.37-391.55L-790-405.8h9.26z" stroke="#3a414a" fill="#3a414a"/><path d="M-602.98-116.4a8 8 0 0 1 9.6 0l70.4 52.8a4.5 4.5 0 0 1 0 7.2l-70.4 52.8a8 8 0 0 1-9.6 0l-70.4-52.8a4.5 4.5 0 0 1 0-7.2z" stroke="#000" stroke-width="2" fill="#fff"/><use xlink:href="#d" transform="matrix(1,0,0,1,-673.1838277160437,-115) translate(38.68230034722222 45.59027777777778)"/><use xlink:href="#e" transform="matrix(1,0,0,1,-673.1838277160437,-115) translate(90.62457465277778 45.59027777777778)"/><use xlink:href="#f" transform="matrix(1,0,0,1,-673.1838277160437,-115) translate(55.777569444444445 77.85590277777777)"/><path d="M-678.18-394a6 6 0 0 1 6-6h148a6 6 0 0 1 6 6v108a6 6 0 0 1-6 6h-148a6 6 0 0 1-6-6z" stroke="#000" stroke-width="2" fill="#fff"/><use xlink:href="#g" transform="matrix(1,0,0,1,-666.1838277160437,-388) translate(22.48676215277778 24.52777777777778)"/><use xlink:href="#h" transform="matrix(1,0,0,1,-666.1838277160437,-388) translate(108.13129340277777 24.52777777777778)"/><use xlink:href="#i" transform="matrix(1,0,0,1,-666.1838277160437,-388) translate(41.64366319444444 56.79340277777778)"/><use xlink:href="#j" transform="matrix(1,0,0,1,-666.1838277160437,-388) translate(15.455512152777786 89.05902777777777)"/><path d="M-742-349h46.43" stroke="#3a414a" fill="none"/><path d="M-741.97-348.52h-.54v-.96h.53z" stroke="#3a414a" stroke-width=".05" fill="#3a414a"/><path d="M-680.8-349l-14.27 4.64v-9.27z" stroke="#3a414a" fill="#3a414a"/><path d="M-743.5-349c0 22.1-17.9 40-40 40-22.08 0-40-17.9-40-40s17.92-40 40-40c22.1 0 40 17.9 40 40z" stroke="#000" stroke-width="2" fill="#fff"/><path d="M-598.18-278.5v143.1" stroke="#3a414a" fill="none"/><path d="M-597.7-278.5h-.96v-.5h.95z" stroke="#3a414a" stroke-width=".05" fill="#3a414a"/><path d="M-598.18-120.62l-4.64-14.27h9.27z" stroke="#3a414a" fill="#3a414a"/><path d="M-519.68-60h395.5a6 6 0 0 0 6-6v-196.62" stroke="#3a414a" fill="none"/><path d="M-519.67-59.52h-.55l.04-.48-.04-.48h.55z" stroke="#3a414a" stroke-width=".05" fill="#3a414a"/><path d="M-118.18-277.38l4.63 14.26h-9.27z" stroke="#3a414a" fill="#3a414a"/><path d="M-198.18-394a6 6 0 0 1 6-6h148a6 6 0 0 1 6 6v108a6 6 0 0 1-6 6h-148a6 6 0 0 1-6-6z" stroke="#000" stroke-width="2" fill="#fff"/><use xlink:href="#k" transform="matrix(1,0,0,1,-186.18382771604365,-388) translate(31.650173611111114 39.52777777777778)"/><use xlink:href="#e" transform="matrix(1,0,0,1,-186.18382771604365,-388) translate(83.64670138888889 39.52777777777778)"/><use xlink:href="#l" transform="matrix(1,0,0,1,-186.18382771604365,-388) translate(31.785807291666664 71.79340277777777)"/><path d="M-36.68-340h61.1" stroke="#3a414a" fill="none"/><path d="M-36.67-339.52h-.5v-.96h.5z" stroke="#3a414a" stroke-width=".05" fill="#3a414a"/><path d="M39.2-340l-14.27 4.63v-9.26z" stroke="#3a414a" fill="#3a414a"/><path d="M120.9-340c0 22.1-17.7 40-39.55 40-21.83 0-39.53-17.9-39.53-40s17.7-40 39.53-40c21.84 0 39.54 17.9 39.54 40z" stroke="#000" stroke-width="2" fill="#fff"/><path d="M-516.68-340h61.1" stroke="#3a414a" fill="none"/><path d="M-516.67-339.52h-.5v-.96h.5z" stroke="#3a414a" stroke-width=".05" fill="#3a414a"/><path d="M-440.8-340l-14.27 4.63v-9.26z" stroke="#3a414a" fill="#3a414a"/><path d="M-294.18-400c8.83 0 16 26.86 16 60s-7.17 60-16 60h-128c-8.84 0-16-26.86-16-60s7.16-60 16-60z" stroke="#000" stroke-width="2" fill="#fff"/><path d="M-294.18-280c-8.84 0-16-26.86-16-60s7.16-60 16-60" stroke="#000" stroke-width="2" fill="none"/><use xlink:href="#m" transform="matrix(1,0,0,1,-433.18382771604365,-395) translate(9.119357638888886 62.77777777777778)"/><use xlink:href="#n" transform="matrix(1,0,0,1,-433.18382771604365,-395) translate(65.96614583333333 62.77777777777778)"/><path d="M-900-200v-274a6 6 0 0 1 6-6h35.9v280zM-858.1 80H-894a6 6 0 0 1-6-6v-274h41.9z" stroke="#000" stroke-width="2" fill="#fff"/><path d="M-858.1-480H294.8a6 6 0 0 1 6 6v274H-858.1zM300.82-200V74a6 6 0 0 1-6 6H-858.1v-280z" stroke="#000" stroke-width="2" fill="none"/><use xlink:href="#b" transform="matrix(-1.8369701987210297e-16,-1,1,-1.8369701987210297e-16,-900,-200) translate(117.12673611111111 29.08376736111111)"/><use xlink:href="#c" transform="matrix(-1.8369701987210297e-16,-1,1,-1.8369701987210297e-16,-900,79.99999999999989) translate(104.33376736111111 29.08376736111111)"/><path d="M-785.37-799.5v393.2M-785.37-799.5v-.5" stroke="#3a414a" fill="none"/><path d="M-785.37-391.55L-790-405.8h9.26z" stroke="#3a414a" fill="#3a414a"/><path d="M-602.98-116.4a8 8 0 0 1 9.6 0l70.4 52.8a4.5 4.5 0 0 1 0 7.2l-70.4 52.8a8 8 0 0 1-9.6 0l-70.4-52.8a4.5 4.5 0 0 1 0-7.2z" stroke="#000" stroke-width="2" fill="#fff"/><use xlink:href="#d" transform="matrix(1,0,0,1,-673.1838277160437,-115) translate(38.68230034722222 45.59027777777778)"/><use xlink:href="#e" transform="matrix(1,0,0,1,-673.1838277160437,-115) translate(90.62457465277778 45.59027777777778)"/><use xlink:href="#f" transform="matrix(1,0,0,1,-673.1838277160437,-115) translate(55.777569444444445 77.85590277777777)"/><path d="M-678.18-394a6 6 0 0 1 6-6h148a6 6 0 0 1 6 6v108a6 6 0 0 1-6 6h-148a6 6 0 0 1-6-6z" stroke="#000" stroke-width="2" fill="#fff"/><use xlink:href="#g" transform="matrix(1,0,0,1,-666.1838277160437,-388) translate(22.48676215277778 24.52777777777778)"/><use xlink:href="#h" transform="matrix(1,0,0,1,-666.1838277160437,-388) translate(108.13129340277777 24.52777777777778)"/><use xlink:href="#i" transform="matrix(1,0,0,1,-666.1838277160437,-388) translate(41.64366319444444 56.79340277777778)"/><use xlink:href="#j" transform="matrix(1,0,0,1,-666.1838277160437,-388) translate(15.455512152777786 89.05902777777777)"/><path d="M-742-349h46.43" stroke="#3a414a" fill="none"/><path d="M-741.97-348.52h-.54v-.96h.53z" stroke="#3a414a" stroke-width=".05" fill="#3a414a"/><path d="M-680.8-349l-14.27 4.64v-9.27z" stroke="#3a414a" fill="#3a414a"/><path d="M-743.5-349c0 22.1-17.9 40-40 40-22.08 0-40-17.9-40-40s17.92-40 40-40c22.1 0 40 17.9 40 40z" stroke="#000" stroke-width="2" fill="#fff"/><path d="M-598.18-278.5v143.1" stroke="#3a414a" fill="none"/><path d="M-597.7-278.5h-.96v-.5h.95z" stroke="#3a414a" stroke-width=".05" fill="#3a414a"/><path d="M-598.18-120.62l-4.64-14.27h9.27z" stroke="#3a414a" fill="#3a414a"/><path d="M-519.68-60h395.5a6 6 0 0 0 6-6v-196.62" stroke="#3a414a" fill="none"/><path d="M-519.67-59.52h-.55l.04-.48-.04-.48h.55z" stroke="#3a414a" stroke-width=".05" fill="#3a414a"/><path d="M-118.18-277.38l4.63 14.26h-9.27z" stroke="#3a414a" fill="#3a414a"/><path d="M-198.18-394a6 6 0 0 1 6-6h148a6 6 0 0 1 6 6v108a6 6 0 0 1-6 6h-148a6 6 0 0 1-6-6z" stroke="#000" stroke-width="2" fill="#fff"/><use xlink:href="#k" transform="matrix(1,0,0,1,-186.18382771604365,-388) translate(31.650173611111114 39.52777777777778)"/><use xlink:href="#e" transform="matrix(1,0,0,1,-186.18382771604365,-388) translate(83.64670138888889 39.52777777777778)"/><use xlink:href="#l" transform="matrix(1,0,0,1,-186.18382771604365,-388) translate(31.785807291666664 71.79340277777777)"/><path d="M-36.68-340h61.1" stroke="#3a414a" fill="none"/><path d="M-36.67-339.52h-.5v-.96h.5z" stroke="#3a414a" stroke-width=".05" fill="#3a414a"/><path d="M39.2-340l-14.27 4.63v-9.26z" stroke="#3a414a" fill="#3a414a"/><path d="M120.9-340c0 22.1-17.7 40-39.55 40-21.83 0-39.53-17.9-39.53-40s17.7-40 39.53-40c21.84 0 39.54 17.9 39.54 40z" stroke="#000" stroke-width="2" fill="#fff"/><path d="M-516.68-340h61.1" stroke="#3a414a" fill="none"/><path d="M-516.67-339.52h-.5v-.96h.5z" stroke="#3a414a" stroke-width=".05" fill="#3a414a"/><path d="M-440.8-340l-14.27 4.63v-9.26z" stroke="#3a414a" fill="#3a414a"/><path d="M-294.18-400c8.83 0 16 26.86 16 60s-7.17 60-16 60h-128c-8.84 0-16-26.86-16-60s7.16-60 16-60z" stroke="#000" stroke-width="2" fill="#fff"/><path d="M-294.18-280c-8.84 0-16-26.86-16-60s7.16-60 16-60" stroke="#000" stroke-width="2" fill="none"/><use xlink:href="#m" transform="matrix(1,0,0,1,-433.18382771604365,-395) translate(9.119357638888886 62.77777777777778)"/><use xlink:href="#n" transform="matrix(1,0,0,1,-433.18382771604365,-395) translate(65.96614583333333 62.77777777777778)"/><path d="M-1472.96-764a16 16 0 0 1 16-16h259.76a16 16 0 0 1 16 16v189.36a16 16 0 0 1-16 16h-259.76a16 16 0 0 1-16-16z" stroke="#4c535d" fill="#fff"/><path d="M-1436.86-703.3a13.54 13.54 0 0 1 13.53-13.54 13.54 13.54 0 0 1 13.54 13.54 13.54 13.54 0 0 1-13.53 13.53 13.54 13.54 0 0 1-13.53-13.53" stroke="#000" stroke-opacity=".25" fill="#6db1ff"/><path d="M-1436.86-667.2a13.54 13.54 0 0 1 13.53-13.54 13.54 13.54 0 0 1 13.54 13.53 13.54 13.54 0 0 1-13.53 13.53 13.54 13.54 0 0 1-13.53-13.54" stroke="#000" stroke-opacity=".25" fill="#00c2a8"/><path d="M-1436.86-631.1a13.54 13.54 0 0 1 13.53-13.55 13.54 13.54 0 0 1 13.54 13.54 13.54 13.54 0 0 1-13.53 13.52 13.54 13.54 0 0 1-13.53-13.53" stroke="#000" stroke-opacity=".25" fill="#9391ff"/><path d="M-1436.86-595.02a13.54 13.54 0 0 1 13.53-13.54 13.54 13.54 0 0 1 13.54 13.54 13.54 13.54 0 0 1-13.53 13.53 13.54 13.54 0 0 1-13.53-13.52" stroke="#000" stroke-opacity=".25" fill="#ff80df"/><use xlink:href="#o" transform="matrix(1,0,0,1,-1436.8638808132066,-752.929877591535) translate(0 16.216875)"/><use xlink:href="#p" transform="matrix(1,0,0,1,-1436.8638808132066,-752.929877591535) translate(70.057880859375 16.216875)"/><use xlink:href="#q" transform="matrix(1,0,0,1,-1436.8638808132066,-752.929877591535) translate(109.48842773437501 16.216875)"/><use xlink:href="#r" transform="matrix(1,0,0,1,-1396.2586972005092,-716.8363810469152) translate(0 18.736279296875)"/><use xlink:href="#s" transform="matrix(1,0,0,1,-1396.2586972005092,-680.7428845022955) translate(0 18.736279296875)"/><use xlink:href="#t" transform="matrix(1,0,0,1,-1396.2586972005092,-644.6493879576757) translate(0 18.736279296875)"/><use xlink:href="#u" transform="matrix(1,0,0,1,-1396.2586972005092,-608.5558914130559) translate(0 18.736279296875)"/><use xlink:href="#v" transform="matrix(1,0,0,1,-1396.2586972005092,-608.5558914130559) translate(40.833720703125 18.736279296875)"/><path d="M-2089-774a6 6 0 0 1 6-6h341.53a6 6 0 0 1 6 6v171.85a6 6 0 0 1-6 6H-2083a6 6 0 0 1-6-6z" stroke="#000" stroke-opacity="0" stroke-width="3" fill="#fff" filter="url(#w)"/><path d="M-1786.3-765.22h33.4v33.42h-33.4z" fill="url(#x)"/><path d="M-2073.9-768.1a6 6 0 0 1 6-6h252.8a6 6 0 0 1 6 6v39.18a6 6 0 0 1-6 6h-252.8a6 6 0 0 1-6-6z" fill="none"/><g><use xlink:href="#y" transform="matrix(1,0,0,1,-2061.9051782789675,-762.0997054155486) translate(0 21.517903645833332)"/><use xlink:href="#z" transform="matrix(1,0,0,1,-2061.9051782789675,-762.0997054155486) translate(120.65983072916667 21.517903645833332)"/></g><path d="M-2062.5-735.5h117.26l-.74-.74" stroke="#635dff" stroke-width="3.66" stroke-linecap="round" stroke-linejoin="round" fill="none"/><path d="M-2073.9-736.64a6 6 0 0 1 6-6h309a6 6 0 0 1 6 6v140a6 6 0 0 1-6 6h-309a6 6 0 0 1-6-6z" fill="none"/><g><use xlink:href="#A" transform="matrix(1,0,0,1,-2061.9051782789675,-730.6370783444895) translate(0 30.504947916666662)"/><use xlink:href="#B" transform="matrix(1,0,0,1,-2061.9051782789675,-730.6370783444895) translate(92.91927083333336 30.504947916666662)"/><use xlink:href="#C" transform="matrix(1,0,0,1,-2061.9051782789675,-730.6370783444895) translate(177.69296875000003 30.504947916666662)"/><use xlink:href="#D" transform="matrix(1,0,0,1,-2061.9051782789675,-730.6370783444895) translate(227.9549479166667 30.504947916666662)"/><use xlink:href="#E" transform="matrix(1,0,0,1,-2061.9051782789675,-730.6370783444895) translate(241.88880208333336 30.504947916666662)"/><use xlink:href="#F" transform="matrix(1,0,0,1,-2061.9051782789675,-730.6370783444895) translate(0 50.50963541666667)"/><use xlink:href="#G" transform="matrix(1,0,0,1,-2061.9051782789675,-730.6370783444895) translate(36.51380208333334 50.50963541666667)"/><use xlink:href="#H" transform="matrix(1,0,0,1,-2061.9051782789675,-730.6370783444895) translate(56.32473958333334 50.50963541666667)"/><use xlink:href="#I" transform="matrix(1,0,0,1,-2061.9051782789675,-730.6370783444895) translate(128.0041666666667 50.50963541666667)"/><use xlink:href="#J" transform="matrix(1,0,0,1,-2061.9051782789675,-730.6370783444895) translate(207.6111979166667 50.50963541666667)"/><use xlink:href="#K" transform="matrix(1,0,0,1,-2061.9051782789675,-730.6370783444895) translate(0 70.51432291666667)"/><use xlink:href="#L" transform="matrix(1,0,0,1,-2061.9051782789675,-730.6370783444895) translate(20.787760416666664 70.51432291666667)"/><use xlink:href="#M" transform="matrix(1,0,0,1,-2061.9051782789675,-730.6370783444895) translate(83.90182291666667 70.51432291666667)"/><use xlink:href="#N" transform="matrix(1,0,0,1,-2061.9051782789675,-730.6370783444895) translate(123.37031250000001 70.51432291666667)"/><use xlink:href="#O" transform="matrix(1,0,0,1,-2061.9051782789675,-730.6370783444895) translate(156.67916666666667 70.51432291666667)"/><use xlink:href="#P" transform="matrix(1,0,0,1,-2061.9051782789675,-730.6370783444895) translate(204.04296875 70.51432291666667)"/><use xlink:href="#Q" transform="matrix(1,0,0,1,-2061.9051782789675,-730.6370783444895) translate(0 90.51901041666666)"/><use xlink:href="#R" transform="matrix(1,0,0,1,-2061.9051782789675,-730.6370783444895) translate(52.54661458333334 90.51901041666666)"/><use xlink:href="#S" transform="matrix(1,0,0,1,-2061.9051782789675,-730.6370783444895) translate(129.99817708333336 90.51901041666666)"/><use xlink:href="#T" transform="matrix(1,0,0,1,-2061.9051782789675,-730.6370783444895) translate(179.33177083333337 90.51901041666666)"/><use xlink:href="#G" transform="matrix(1,0,0,1,-2061.9051782789675,-730.6370783444895) translate(216.90312500000005 90.51901041666666)"/><use xlink:href="#U" transform="matrix(1,0,0,1,-2061.9051782789675,-730.6370783444895) translate(236.71406250000004 90.51901041666666)"/><use xlink:href="#V" transform="matrix(1,0,0,1,-2061.9051782789675,-730.6370783444895) translate(0 110.52369791666668)"/><use xlink:href="#W" transform="matrix(1,0,0,1,-2061.9051782789675,-730.6370783444895) translate(92.91927083333336 110.52369791666668)"/><use xlink:href="#X" transform="matrix(1,0,0,1,-2061.9051782789675,-730.6370783444895) translate(181.16432291666672 110.52369791666668)"/></g><g transform="matrix(1,0,0,1,-2061.9051782789675,-730.6370783444895)"><a xlink:href="https://lucidchart.zendesk.com/hc/en-us/articles/115005208806-Conditional-Formatting-and-Icon-Sets" target="_blank"><path class="lucid-link lucid-hotspot lucid-overlay-hotspot" fill-opacity="0" d="M181.16 94.5h35v20h-35z"/></a></g><a xlink:href="https://www.youtube.com/playlist?list=PLUoebdZqEHTxx3fS_jyD56QMd4trXZE3D" target="_blank"><g filter="url(#Y)"><path d="M-2088.33-576.98a6 6 0 0 1 6-6h239.74a6 6 0 0 1 6 6v34.2a6 6 0 0 1-6 6h-239.73a6 6 0 0 1-6-6z" stroke="#000" stroke-opacity="0" stroke-width="3" fill="#dedeff"/><use xlink:href="#Z" transform="matrix(1,0,0,1,-2082.326989109267,-576.9795469010118) translate(53.21614583333334 24.395833333333332)"/><use xlink:href="#aa" transform="matrix(1,0,0,1,-2082.326989109267,-576.9795469010118) translate(166.86263020833334 24.395833333333332)"/></g><path class="lucid-link lucid-hotspot lucid-overlay-hotspot" d="M-2088.33-576.98a6 6 0 0 1 6-6h239.74a6 6 0 0 1 6 6v34.2a6 6 0 0 1-6 6h-239.73a6 6 0 0 1-6-6z" fill="none"/></a><path d="M-2079-578.12h36.48v36.47H-2079z" fill="url(#ab)"/><g filter="url(#ac)"><path d="M-2088.33-843.17a6 6 0 0 1 6-6h342.13a6 6 0 0 1 6 6v44a6 6 0 0 1-6 6h-342.13a6 6 0 0 1-6-6z" stroke="#000" stroke-opacity="0" stroke-width="3" fill="#635dff"/><use xlink:href="#ad" transform="matrix(1,0,0,1,-2070.6205520954372,-846.3734265907297) translate(98.69882812499999 33.587500000000006)"/><use xlink:href="#ae" transform="matrix(1,0,0,1,-2070.6205520954372,-846.3734265907297) translate(174.97578125 33.587500000000006)"/></g><g filter="url(#af)"><path d="M-1471.68-521.03a8.65 8.65 0 0 1 8.65-8.65h139.9a8.65 8.65 0 0 1 8.66 8.65v25.96a8.65 8.65 0 0 1-8.66 8.65h-139.9a8.65 8.65 0 0 1-8.65-8.65z" stroke="#282c33" fill="#fff"/><path d="M-1464.47-513.82a8.65 8.65 0 0 1 8.65-8.65h11.53a8.65 8.65 0 0 1 8.67 8.65v11.54a8.65 8.65 0 0 1-8.65 8.65h-11.54a8.65 8.65 0 0 1-8.65-8.65z" fill="url(#ag)"/><use xlink:href="#ah" transform="matrix(1,0,0,1,-1421.212753965802,-528.2379003748395) translate(0 27.245714486060024)"/><use xlink:href="#ai" transform="matrix(1,0,0,1,-1421.212753965802,-528.2379003748395) translate(53.23872111288572 27.245714486060024)"/></g><g filter="url(#aj)"><path d="M-1471.68-443.16a8.65 8.65 0 0 1 8.65-8.65h88.5a8.65 8.65 0 0 1 8.64 8.64v25.96a8.65 8.65 0 0 1-8.64 8.65h-88.5a8.65 8.65 0 0 1-8.64-8.65z" stroke="#282c33" fill="#fff"/><path d="M-1464.47-435.95a8.65 8.65 0 0 1 8.65-8.65h11.53a8.65 8.65 0 0 1 8.67 8.65v11.54a8.65 8.65 0 0 1-8.65 8.64h-11.54a8.65 8.65 0 0 1-8.65-8.65z" fill="url(#ak)"/><use xlink:href="#al" transform="matrix(1,0,0,1,-1421.212753965802,-450.3675572282152) translate(0 27.245714486060024)"/></g><path d="M-1560-1194a6 6 0 0 1 6-6h488a6 6 0 0 1 6 6v168a6 6 0 0 1-6 6h-488a6 6 0 0 1-6-6z" fill="none"/><g><use xlink:href="#am" transform="matrix(1,0,0,1,-1560,-1200) translate(217.22547743055554 98.08376736111111)"/></g><path d="M-740-690.8a6 6 0 0 1 6-6h68a6 6 0 0 1 6 6v148a6 6 0 0 1-6 6h-68a6 6 0 0 1-6-6z" fill="none"/><path d="M-740-536.8c5.52 0 10-4.46 10-10v-60c0-5.5 4.48-10 10-10-5.52 0-10-4.46-10-10v-60c0-5.5-4.48-10-10-10" stroke="#000" stroke-width="2" fill="none"/><g><use xlink:href="#an" transform="matrix(1,0,0,1,-705,-691.7867295137872) translate(0 50.818142361111114)"/><use xlink:href="#ao" transform="matrix(1,0,0,1,-705,-691.7867295137872) translate(0 83.08376736111111)"/><use xlink:href="#ap" transform="matrix(1,0,0,1,-705,-691.7867295137872) translate(0 115.34939236111111)"/></g><path d="M-980-474a6 6 0 0 1 6-6h68a6 6 0 0 1 6 6V74a6 6 0 0 1-6 6h-68a6 6 0 0 1-6-6z" stroke="#000" stroke-width="2" fill="#fff"/><g><path d="M-954-167.78a6 6 0 0 1-6-6V-294a6 6 0 0 1 6-6h24.9a6 6 0 0 1 6 6v120.22a6 6 0 0 1-6 6z" fill="none"/></g><g><use xlink:href="#aq" transform="matrix(6.123233995736766e-17,-1,1,6.123233995736766e-17,-955.0000000000001,-172.77862847222218) translate(0 21.58376736111111)"/><use xlink:href="#ar" transform="matrix(6.123233995736766e-17,-1,1,6.123233995736766e-17,-955.0000000000001,-172.77862847222218) translate(46.69053819444444 21.58376736111111)"/></g><defs><path d="M180 0v-1490h190c0 262 1 526-3 784 217-279 467-523 702-784h249L716-845 1319 0h-225L585-716 370-489V0H180" id="as"/><path d="M537 14c-226 0-379-139-379-422v-710h180v695c0 172 97 275 253 275 160 0 281-109 281-300v-670h181V0H879v-209C806-46 684 14 537 14" id="at"/><path d="M338-670V0H158v-1118h173l1 207c72-158 192-221 342-221 226 0 378 139 378 422V0H872v-695c0-172-96-275-252-275-161 0-282 109-282 300" id="au"/><path d="M577 24c-279 0-473-224-473-580 0-354 195-576 474-576 218 0 287 134 324 193h14v-551h180V0H922v-173h-20C865-111 790 24 577 24zm27-161c203 0 314-172 314-421 0-247-108-413-314-413-212 0-317 181-317 413 0 235 108 421 317 421" id="av"/><path d="M628 24c-324 0-524-230-524-574 0-343 198-582 503-582 237 0 487 146 487 559v75H286c9 234 145 362 343 362 132 0 231-58 273-172l174 48C1024-91 857 24 628 24zM287-650h624c-17-190-120-322-304-322-192 0-309 151-320 322" id="aw"/><g id="a"><use transform="matrix(0.010850694444444444,0,0,0.010850694444444444,0,0)" xlink:href="#as"/><use transform="matrix(0.010850694444444444,0,0,0.010850694444444444,14.181857638888888,0)" xlink:href="#at"/><use transform="matrix(0.010850694444444444,0,0,0.010850694444444444,27.32204861111111,0)" xlink:href="#au"/><use transform="matrix(0.010850694444444444,0,0,0.010850694444444444,40.451388888888886,0)" xlink:href="#av"/><use transform="matrix(0.010850694444444444,0,0,0.010850694444444444,54.05815972222221,0)" xlink:href="#aw"/></g><path d="M657 26c-323 0-524-166-541-416h195c15 169 171 246 346 246 202 0 356-106 356-265 5-203-294-238-475-293-239-73-380-191-380-389 0-252 224-419 512-419 294 0 499 171 508 396H992c-17-145-151-228-328-228-193 0-321 102-321 242 0 156 175 211 284 241l149 41c160 44 422 134 422 412 0 244-197 432-541 432" id="ax"/><path d="M471 26C259 26 90-98 90-318c0-256 228-303 435-329 202-27 287-16 287-108 0-139-79-219-234-219-161 0-248 86-283 164l-173-57c86-203 278-265 451-265 150 0 419 46 419 395V0H815v-152h-12C765-73 660 26 471 26zm31-159c199 0 310-134 310-271v-155c-30 35-226 55-295 64-131 17-246 59-246 186 0 116 97 176 231 176" id="ay"/><path d="M338-1490V0H158v-1490h180" id="az"/><path d="M611 442c-248 0-391-105-460-228l146-94c47 65 117 165 314 165 178 0 307-82 307-266v-224h-17C863-141 792-18 576-18c-268 0-472-195-472-546 0-346 197-568 476-568 216 0 288 133 326 193h17v-179h175V29c0 289-215 413-487 413zm-5-620c203 0 314-146 314-390 0-237-108-403-314-403-213 0-319 180-319 403 0 230 109 390 319 390" id="aA"/><g id="b"><use transform="matrix(0.010850694444444444,0,0,0.010850694444444444,0,0)" xlink:href="#ax"/><use transform="matrix(0.010850694444444444,0,0,0.010850694444444444,14.2578125,0)" xlink:href="#ay"/><use transform="matrix(0.010850694444444444,0,0,0.010850694444444444,26.73611111111111,0)" xlink:href="#az"/><use transform="matrix(0.010850694444444444,0,0,0.010850694444444444,32.11805555555556,0)" xlink:href="#aA"/></g><path d="M370-1490V0H180v-1490h190" id="aB"/><path d="M158 0v-1490h180v865h22l478-493h223L593-638 1096 0H865L456-523 338-412V0H158" id="aC"/><path d="M613 24C490 24 382-14 299-82L190 45 83-45l121-142c-64-96-100-220-100-365 0-350 205-580 509-580 121 0 227 36 310 102l114-133 106 90-124 146c67 97 105 225 105 375 0 345-206 576-511 576zm0-161c309 7 392-383 284-647L409-212c52 47 119 75 204 75zM328-332l485-568c-51-45-117-71-200-71-299-8-387 375-285 639" id="aD"/><path d="M677 24c-213 0-288-135-325-197h-20V0H158v-1490h180v551h14c37-59 106-193 324-193 279 0 474 222 474 576 0 356-194 580-473 580zm-27-161c209 0 317-186 317-421 0-232-105-413-317-413-206 0-314 166-314 413 0 249 111 421 314 421" id="aE"/><g id="c"><use transform="matrix(0.010850694444444444,0,0,0.010850694444444444,0,0)" xlink:href="#aB"/><use transform="matrix(0.010850694444444444,0,0,0.010850694444444444,5.967881944444445,0)" xlink:href="#au"/><use transform="matrix(0.010850694444444444,0,0,0.010850694444444444,19.09722222222222,0)" xlink:href="#av"/><use transform="matrix(0.010850694444444444,0,0,0.010850694444444444,32.70399305555556,0)" xlink:href="#aC"/><use transform="matrix(0.010850694444444444,0,0,0.010850694444444444,44.40104166666667,0)" xlink:href="#aD"/><use transform="matrix(0.010850694444444444,0,0,0.010850694444444444,57.72569444444445,0)" xlink:href="#aE"/></g><path d="M600 0L52-1490h200c166 485 304 806 458 1336 156-533 285-846 449-1336h202L819 0H600" id="aF"/><g id="d"><use transform="matrix(0.010850694444444444,0,0,0.010850694444444444,0,0)" xlink:href="#aF"/><use transform="matrix(0.010850694444444444,0,0,0.010850694444444444,14.20355902777778,0)" xlink:href="#ay"/><use transform="matrix(0.010850694444444444,0,0,0.010850694444444444,26.68185763888889,0)" xlink:href="#az"/><use transform="matrix(0.010850694444444444,0,0,0.010850694444444444,32.063802083333336,0)" xlink:href="#aA"/></g><path d="M678-1118v154H420V0H240v-964H20v-154h220v-149c0-194 155-293 318-293 85 0 141 18 168 30l-50 154c-19-6-47-17-97-17-111 0-159 58-159 166v109h258" id="aG"/><g id="e"><use transform="matrix(0.010850694444444444,0,0,0.010850694444444444,0,0)" xlink:href="#ay"/><use transform="matrix(0.010850694444444444,0,0,0.010850694444444444,12.47829861111111,0)" xlink:href="#aG"/></g><path d="M158 0v-1118h180V0H158zm91-1301c-68 0-125-53-125-119s57-119 125-119c69 0 126 53 126 119s-57 119-126 119" id="aH"/><path d="M158 0v-1118h175l1 205c55-151 181-225 313-225 147 0 245 90 285 228 53-141 190-228 352-228 194 0 352 125 352 384V0h-181v-749c0-161-105-225-225-225-151 0-243 103-243 244V0H807v-767c0-124-93-207-219-207-131 0-250 92-250 270V0H158" id="aI"/><g id="f"><use transform="matrix(0.010850694444444444,0,0,0.010850694444444444,0,0)" xlink:href="#aG"/><use transform="matrix(0.010850694444444444,0,0,0.010850694444444444,8.22482638888889,0)" xlink:href="#aH"/><use transform="matrix(0.010850694444444444,0,0,0.010850694444444444,13.606770833333332,0)" xlink:href="#az"/><use transform="matrix(0.010850694444444444,0,0,0.010850694444444444,18.98871527777778,0)" xlink:href="#aI"/></g><path d="M180 0v-1490h224l606 953c40 63 108 177 176 312-27-437-7-821-13-1265h190V0h-226C860-448 622-778 356-1262c27 476 11 792 15 1262H180" id="aJ"/><path d="M613 24c-304 0-509-231-509-576 0-350 205-580 509-580 305 0 511 230 511 580 0 345-206 576-511 576zm0-161c226 0 329-195 329-415 0-222-103-419-329-419-223 0-326 196-326 419 0 220 103 415 326 415" id="aK"/><path d="M598-1118v154H368v674c0 100 37 144 132 144 23 0 62-6 92-12L629-6c-37 13-88 20-134 20-193 0-307-107-307-290v-688H20v-154h168v-266h180v266h230" id="aL"/><path d="M158 0v-1118h174v172h12c41-113 157-188 290-188 26 0 70 2 91 3v181c-11-2-60-10-108-10-161 0-279 109-279 260V0H158" id="aM"/><g id="g"><use transform="matrix(0.010850694444444444,0,0,0.010850694444444444,0,0)" xlink:href="#aJ"/><use transform="matrix(0.010850694444444444,0,0,0.010850694444444444,16.74262152777778,0)" xlink:href="#aK"/><use transform="matrix(0.010850694444444444,0,0,0.010850694444444444,30.06727430555556,0)" xlink:href="#aL"/><use transform="matrix(0.010850694444444444,0,0,0.010850694444444444,37.12022569444444,0)" xlink:href="#aw"/><use transform="matrix(0.010850694444444444,0,0,0.010850694444444444,50.07595486111111,0)" xlink:href="#aM"/><use transform="matrix(0.010850694444444444,0,0,0.010850694444444444,58.07291666666666,0)" xlink:href="#aw"/><use transform="matrix(0.010850694444444444,0,0,0.010850694444444444,71.02864583333333,0)" xlink:href="#aM"/></g><use transform="matrix(0.010850694444444444,0,0,0.010850694444444444,0,0)" xlink:href="#aH" id="h"/><path d="M409 0L70-1118h191c89 329 165 560 243 925 75-353 154-601 240-925h192c85 325 161 564 235 922 77-354 157-598 244-922h191L1267 0h-179c-86-307-176-590-250-913C763-588 675-308 588 0H409" id="aN"/><g id="i"><use transform="matrix(0.010850694444444444,0,0,0.010850694444444444,0,0)" xlink:href="#aN"/><use transform="matrix(0.010850694444444444,0,0,0.010850694444444444,17.784288194444446,0)" xlink:href="#aK"/><use transform="matrix(0.010850694444444444,0,0,0.010850694444444444,31.10894097222222,0)" xlink:href="#aM"/><use transform="matrix(0.010850694444444444,0,0,0.010850694444444444,39.10590277777778,0)" xlink:href="#av"/></g><g id="j"><use transform="matrix(0.010850694444444444,0,0,0.010850694444444444,0,0)" xlink:href="#av"/><use transform="matrix(0.010850694444444444,0,0,0.010850694444444444,13.606770833333332,0)" xlink:href="#aK"/><use transform="matrix(0.010850694444444444,0,0,0.010850694444444444,26.931423611111104,0)" xlink:href="#aC"/><use transform="matrix(0.010850694444444444,0,0,0.010850694444444444,39.127604166666664,0)" xlink:href="#at"/><use transform="matrix(0.010850694444444444,0,0,0.010850694444444444,52.267795138888886,0)" xlink:href="#aI"/><use transform="matrix(0.010850694444444444,0,0,0.010850694444444444,71.73394097222221,0)" xlink:href="#aw"/><use transform="matrix(0.010850694444444444,0,0,0.010850694444444444,84.68967013888889,0)" xlink:href="#au"/><use transform="matrix(0.010850694444444444,0,0,0.010850694444444444,97.81901041666666,0)" xlink:href="#aL"/></g><g id="k"><use transform="matrix(0.010850694444444444,0,0,0.010850694444444444,0,0)" xlink:href="#ax"/><use transform="matrix(0.010850694444444444,0,0,0.010850694444444444,14.2578125,0)" xlink:href="#ay"/><use transform="matrix(0.010850694444444444,0,0,0.010850694444444444,26.73611111111111,0)" xlink:href="#az"/><use transform="matrix(0.010850694444444444,0,0,0.010850694444444444,32.11805555555556,0)" xlink:href="#aA"/></g><g id="l"><use transform="matrix(0.010850694444444444,0,0,0.010850694444444444,0,0)" xlink:href="#aE"/><use transform="matrix(0.010850694444444444,0,0,0.010850694444444444,13.606770833333332,0)" xlink:href="#aH"/><use transform="matrix(0.010850694444444444,0,0,0.010850694444444444,18.98871527777778,0)" xlink:href="#az"/><use transform="matrix(0.010850694444444444,0,0,0.010850694444444444,24.37065972222222,0)" xlink:href="#aw"/><use transform="matrix(0.010850694444444444,0,0,0.010850694444444444,37.326388888888886,0)" xlink:href="#aL"/><use transform="matrix(0.010850694444444444,0,0,0.010850694444444444,44.05381944444444,0)" xlink:href="#aL"/><use transform="matrix(0.010850694444444444,0,0,0.010850694444444444,51.10677083333333,0)" xlink:href="#aw"/><use transform="matrix(0.010850694444444444,0,0,0.010850694444444444,64.0625,0)" xlink:href="#aM"/></g><path d="M180 0v-1490h190v644h782v-644h190V0h-190v-678H370V0H180" id="aO"/><g id="m"><use transform="matrix(0.010850694444444444,0,0,0.010850694444444444,0,0)" xlink:href="#aO"/><use transform="matrix(0.010850694444444444,0,0,0.010850694444444444,16.514756944444443,0)" xlink:href="#ay"/><use transform="matrix(0.010850694444444444,0,0,0.010850694444444444,28.993055555555554,0)" xlink:href="#aM"/><use transform="matrix(0.010850694444444444,0,0,0.010850694444444444,36.99001736111111,0)" xlink:href="#av"/></g><path d="M538 24C308 24 148-78 108-271l171-41c32 123 123 178 257 178 156 0 256-77 256-169 0-77-54-128-164-154l-186-44c-203-48-300-148-300-305 0-192 176-326 414-326 230 0 351 112 402 269l-163 42c-31-80-94-158-238-158-133 0-233 69-233 162 0 83 57 129 188 160l169 40c203 48 298 149 298 302 0 196-179 339-441 339" id="aP"/><g id="n"><use transform="matrix(0.010850694444444444,0,0,0.010850694444444444,0,0)" xlink:href="#av"/><use transform="matrix(0.010850694444444444,0,0,0.010850694444444444,13.606770833333332,0)" xlink:href="#aH"/><use transform="matrix(0.010850694444444444,0,0,0.010850694444444444,18.98871527777778,0)" xlink:href="#aP"/><use transform="matrix(0.010850694444444444,0,0,0.010850694444444444,30.71831597222222,0)" xlink:href="#aC"/></g><path d="M135 0v-1490h581c339 0 533 210 533 503 0 295-197 500-540 500H440V0H135zm305-733h220c186 0 274-104 274-254s-88-251-275-251H440v505" id="aQ"/><path d="M128 0v-1118h290v195h12c54-169 184-238 367-200v268c-27-8-86-15-130-15-138 0-239 95-239 234V0H128" id="aR"/><path d="M628 22C291 22 81-210 81-554c0-346 210-578 547-578 336 0 547 232 547 578 0 344-211 576-547 576zm0-236c160 0 242-146 242-341 0-197-82-341-242-341S387-753 387-555c0 195 81 341 241 341" id="aS"/><path d="M628 22C291 22 81-210 81-554c0-346 210-578 547-578 265 0 455 142 497 372l-279 52c-25-116-99-188-215-188-160 0-244 139-244 341 0 200 84 341 244 341 116 0 193-74 217-195l279 51C1085-123 896 22 628 22" id="aT"/><path d="M633 22C291 22 81-200 81-553c0-345 210-579 537-579 292 0 525 185 525 567v84H378c7 183 109 277 260 277 105 0 184-46 216-132l272 51C1071-99 893 22 633 22zM380-669h474c-15-146-94-237-233-237-143 0-229 99-241 237" id="aU"/><path d="M572 22C302 22 117-98 78-306l279-48c29 105 101 156 224 156 114 0 185-48 185-115 0-118-228-130-337-155-215-49-322-150-322-317 0-215 187-347 470-347 265 0 424 116 466 298l-266 47c-24-76-87-130-196-130-98 0-174 46-174 113 0 56 38 95 144 117l201 40c216 44 320 143 320 302 0 220-207 367-500 367" id="aV"/><g id="o"><use transform="matrix(0.008173828125000001,0,0,0.008173828125000001,0,0)" xlink:href="#aQ"/><use transform="matrix(0.008173828125000001,0,0,0.008173828125000001,10.846669921875002,0)" xlink:href="#aR"/><use transform="matrix(0.008173828125000001,0,0,0.008173828125000001,17.254951171875003,0)" xlink:href="#aS"/><use transform="matrix(0.008173828125000001,0,0,0.008173828125000001,27.521279296875004,0)" xlink:href="#aT"/><use transform="matrix(0.008173828125000001,0,0,0.008173828125000001,37.37074218750001,0)" xlink:href="#aU"/><use transform="matrix(0.008173828125000001,0,0,0.008173828125000001,47.34281250000001,0)" xlink:href="#aV"/><use transform="matrix(0.008173828125000001,0,0,0.008173828125000001,56.71819335937501,0)" xlink:href="#aV"/></g><path d="M750-1118v229H516V0H217v-889H20v-229h197v-86c0-238 156-356 363-356 94 0 178 20 215 31l-54 226c-25-7-61-15-100-15-123-3-131 84-125 200h234" id="aW"/><path d="M428-1490V0H128v-1490h300" id="aX"/><path d="M361 0L31-1118h315c68 295 127 523 188 845 63-317 128-551 199-845h276c71 296 131 525 196 846 57-321 119-552 186-846h319L1378 0h-305c-73-261-148-486-204-771C813-484 740-261 666 0H361" id="aY"/><g id="p"><use transform="matrix(0.008173828125000001,0,0,0.008173828125000001,0,0)" xlink:href="#aW"/><use transform="matrix(0.008173828125000001,0,0,0.008173828125000001,6.661669921875001,0)" xlink:href="#aX"/><use transform="matrix(0.008173828125000001,0,0,0.008173828125000001,11.198144531250001,0)" xlink:href="#aS"/><use transform="matrix(0.008173828125000001,0,0,0.008173828125000001,21.235605468750002,0)" xlink:href="#aY"/></g><path d="M428-647V0H128v-1490h294v586c65-146 175-228 341-228 232 0 385 159 385 421V0H847v-659c0-139-76-222-202-222-128 0-217 86-217 234" id="aZ"/><path d="M440 22C227 22 68-92 68-313c0-250 202-322 422-343 195-21 271-24 271-105 0-95-63-149-175-149-116 0-187 57-211 129l-275-46c57-194 237-305 487-305 240 0 474 108 474 379V0H777v-155h-10C713-51 605 22 440 22zm85-211c140 0 238-93 238-211v-121c-37 26-156 42-222 51-111 16-185 59-185 149 0 87 70 132 169 132" id="ba"/><path d="M128 418v-1536h295v188h14c41-89 129-202 319-202 248 0 453 193 453 575 0 372-197 576-455 576-183 0-275-108-317-198h-9v597H128zm534-640c156 0 240-139 240-336 0-196-83-334-240-334-154 0-241 131-241 334 0 202 88 336 241 336" id="bb"/><g id="q"><use transform="matrix(0.008173828125000001,0,0,0.008173828125000001,0,0)" xlink:href="#aV"/><use transform="matrix(0.008173828125000001,0,0,0.008173828125000001,9.375380859375001,0)" xlink:href="#aZ"/><use transform="matrix(0.008173828125000001,0,0,0.008173828125000001,19.797011718750003,0)" xlink:href="#ba"/><use transform="matrix(0.008173828125000001,0,0,0.008173828125000001,29.515693359375003,0)" xlink:href="#bb"/><use transform="matrix(0.008173828125000001,0,0,0.008173828125000001,40.068105468750005,0)" xlink:href="#aU"/><use transform="matrix(0.008173828125000001,0,0,0.008173828125000001,50.04017578125001,0)" xlink:href="#aV"/></g><path d="M783 20c-382 0-661-292-661-764 0-473 279-766 661-766 302 0 548 182 601 489h-190c-42-204-217-313-411-313-268 0-476 208-476 590 0 381 209 588 476 588 195 0 369-110 411-313h190c-52 303-296 489-601 489" id="bc"/><g id="r"><use transform="matrix(0.006357421875000001,0,0,0.006357421875000001,0,0)" xlink:href="#bc"/><use transform="matrix(0.006357421875000001,0,0,0.006357421875000001,9.510703125000001,0)" xlink:href="#at"/><use transform="matrix(0.006357421875000001,0,0,0.006357421875000001,17.209541015625,0)" xlink:href="#aP"/><use transform="matrix(0.006357421875000001,0,0,0.006357421875000001,24.0819140625,0)" xlink:href="#aL"/><use transform="matrix(0.006357421875000001,0,0,0.006357421875000001,28.214238281250005,0)" xlink:href="#aK"/><use transform="matrix(0.006357421875000001,0,0,0.006357421875000001,36.02115234375,0)" xlink:href="#aI"/><use transform="matrix(0.006357421875000001,0,0,0.006357421875000001,47.426367187500006,0)" xlink:href="#aw"/><use transform="matrix(0.006357421875000001,0,0,0.006357421875000001,55.01712890625001,0)" xlink:href="#aM"/></g><g id="s"><use transform="matrix(0.006357421875000001,0,0,0.006357421875000001,0,0)" xlink:href="#ax"/><use transform="matrix(0.006357421875000001,0,0,0.006357421875000001,8.353652343750001,0)" xlink:href="#ay"/><use transform="matrix(0.006357421875000001,0,0,0.006357421875000001,15.664687500000001,0)" xlink:href="#az"/><use transform="matrix(0.006357421875000001,0,0,0.006357421875000001,18.817968750000002,0)" xlink:href="#aw"/><use transform="matrix(0.006357421875000001,0,0,0.006357421875000001,26.408730468750004,0)" xlink:href="#aP"/></g><path d="M180 0v-1490h270l367 940c28 72 75 218 110 339 35-117 81-264 110-339l362-940h271V0h-187c2-448-5-837 7-1287-157 497-311 829-483 1287H842C666-458 514-784 354-1284c12 438 5 843 7 1284H180" id="bd"/><g id="t"><use transform="matrix(0.006357421875000001,0,0,0.006357421875000001,0,0)" xlink:href="#bd"/><use transform="matrix(0.006357421875000001,0,0,0.006357421875000001,11.761230468750002,0)" xlink:href="#ay"/><use transform="matrix(0.006357421875000001,0,0,0.006357421875000001,19.072265625000004,0)" xlink:href="#au"/><use transform="matrix(0.006357421875000001,0,0,0.006357421875000001,26.76474609375001,0)" xlink:href="#ay"/><use transform="matrix(0.006357421875000001,0,0,0.006357421875000001,34.075781250000006,0)" xlink:href="#aA"/><use transform="matrix(0.006357421875000001,0,0,0.006357421875000001,42.060703125,0)" xlink:href="#aw"/><use transform="matrix(0.006357421875000001,0,0,0.006357421875000001,49.651464843750006,0)" xlink:href="#aI"/><use transform="matrix(0.006357421875000001,0,0,0.006357421875000001,61.05667968750001,0)" xlink:href="#aw"/><use transform="matrix(0.006357421875000001,0,0,0.006357421875000001,68.64744140625001,0)" xlink:href="#au"/><use transform="matrix(0.006357421875000001,0,0,0.006357421875000001,76.33992187500002,0)" xlink:href="#aL"/></g><g id="u"><use transform="matrix(0.006357421875000001,0,0,0.006357421875000001,0,0)" xlink:href="#bc"/><use transform="matrix(0.006357421875000001,0,0,0.006357421875000001,9.510703125000001,0)" xlink:href="#aM"/><use transform="matrix(0.006357421875000001,0,0,0.006357421875000001,14.196123046875002,0)" xlink:href="#aw"/><use transform="matrix(0.006357421875000001,0,0,0.006357421875000001,21.786884765625004,0)" xlink:href="#av"/><use transform="matrix(0.006357421875000001,0,0,0.006357421875000001,29.759091796875005,0)" xlink:href="#aH"/><use transform="matrix(0.006357421875000001,0,0,0.006357421875000001,32.912373046875004,0)" xlink:href="#aL"/></g><path d="M158 418v-1536h174v179h20c37-59 106-193 324-193 279 0 474 222 474 576 0 356-194 580-473 580-213 0-288-135-325-197h-14v591H158zm492-555c209 0 317-186 317-421 0-232-105-413-317-413-206 0-314 166-314 413 0 249 111 421 314 421" id="be"/><g id="v"><use transform="matrix(0.006357421875000001,0,0,0.006357421875000001,0,0)" xlink:href="#av"/><use transform="matrix(0.006357421875000001,0,0,0.006357421875000001,7.972207031250001,0)" xlink:href="#aw"/><use transform="matrix(0.006357421875000001,0,0,0.006357421875000001,15.562968750000001,0)" xlink:href="#be"/><use transform="matrix(0.006357421875000001,0,0,0.006357421875000001,23.66232421875,0)" xlink:href="#ay"/><use transform="matrix(0.006357421875000001,0,0,0.006357421875000001,30.973359375000005,0)" xlink:href="#aM"/><use transform="matrix(0.006357421875000001,0,0,0.006357421875000001,36.078369140625,0)" xlink:href="#aL"/><use transform="matrix(0.006357421875000001,0,0,0.006357421875000001,40.337841796875,0)" xlink:href="#aI"/><use transform="matrix(0.006357421875000001,0,0,0.006357421875000001,51.743056640625,0)" xlink:href="#aw"/><use transform="matrix(0.006357421875000001,0,0,0.006357421875000001,59.33381835937501,0)" xlink:href="#au"/><use transform="matrix(0.006357421875000001,0,0,0.006357421875000001,67.02629882812501,0)" xlink:href="#aL"/></g><filter id="w" filterUnits="objectBoundingBox" x="-.03" y="-.02" width="1.06" height="1.11"><feOffset result="offOut" in="SourceAlpha" dy="6"/><feGaussianBlur result="blurOut" in="offOut" stdDeviation="5"/><feColorMatrix result="colorOut" in="blurOut" values="0 0 0 0 0 0 0 0 0 0 0 0 0 0 0 0 0 0 0.5019607843137255 0"/><feBlend in="SourceGraphic" in2="colorOut"/></filter><image width="10" height="10" id="bf" xlink:href="https://images.lucid.app/images/e693f4b6-8f38-4cb7-8d64-69ee7646be5b/content" preserveAspectRatio="none"/><pattern id="x" patternUnits="userSpaceOnUse" x="-1786.31" y="-765.22" width="33.42" height="33.42"><use xlink:href="#bf" transform="translate(-2.2737367544323206e-13, 0) scale(3.3418045753973957,3.3418045753973957)"/></pattern><path fill="#333" d="M786 20C389 20 94-260 94-744c0-487 299-766 692-766 339 0 597 194 641 529h-309c-28-162-156-258-326-258-233 0-388 179-388 495 0 323 157 493 387 493 170 0 298-97 328-259h309c-34 277-266 530-642 530" id="bg"/><path fill="#333" d="M628 22C291 22 81-210 81-554c0-346 210-578 547-578 336 0 547 232 547 578 0 344-211 576-547 576zm0-236c160 0 242-146 242-341 0-197-82-341-242-341S387-753 387-555c0 195 81 341 241 341" id="bh"/><path fill="#333" d="M428-647V0H128v-1118h283l4 231c63-156 176-245 348-245 232 0 384 159 384 421V0H847v-659c0-139-76-222-202-222-128 0-217 86-217 234" id="bi"/><path fill="#333" d="M537 19C279 19 81-185 81-557c0-382 206-575 454-575 190 0 278 113 318 202h10v-560h300V0H868v-179h-15C812-89 719 19 537 19zm92-241c153 0 240-134 240-336 0-203-86-334-240-334-158 0-240 138-240 334 0 197 84 336 240 336" id="bj"/><path fill="#333" d="M128 0v-1118h300V0H128zm150-1264c-91 0-165-68-165-154 0-85 74-154 165-154 90 0 165 69 165 154 0 86-75 154-165 154" id="bk"/><path fill="#333" d="M683-1118v229H474v562c0 71 29 104 102 104 23 0 73-7 95-13l43 225C647 9 580 16 520 16 296 16 174-96 174-301v-588H20v-229h154v-266h300v266h209" id="bl"/><path fill="#333" d="M440 22C227 22 68-92 68-313c0-250 202-322 422-343 195-21 271-24 271-105 0-95-63-149-175-149-116 0-187 57-211 129l-275-46c57-194 237-305 487-305 240 0 474 108 474 379V0H777v-155h-10C713-51 605 22 440 22zm85-211c140 0 238-93 238-211v-121c-37 26-156 42-222 51-111 16-185 59-185 149 0 87 70 132 169 132" id="bm"/><path fill="#333" d="M428-1490V0H128v-1490h300" id="bn"/><g id="y"><use transform="matrix(0.010091145833333332,0,0,0.010091145833333332,0,0)" xlink:href="#bg"/><use transform="matrix(0.010091145833333332,0,0,0.010091145833333332,15.288085937499998,0)" xlink:href="#bh"/><use transform="matrix(0.010091145833333332,0,0,0.010091145833333332,27.962565104166664,0)" xlink:href="#bi"/><use transform="matrix(0.010091145833333332,0,0,0.010091145833333332,40.828776041666664,0)" xlink:href="#bj"/><use transform="matrix(0.010091145833333332,0,0,0.010091145833333332,53.8564453125,0)" xlink:href="#bk"/><use transform="matrix(0.010091145833333332,0,0,0.010091145833333332,59.45703125,0)" xlink:href="#bl"/><use transform="matrix(0.010091145833333332,0,0,0.010091145833333332,67.025390625,0)" xlink:href="#bk"/><use transform="matrix(0.010091145833333332,0,0,0.010091145833333332,72.6259765625,0)" xlink:href="#bh"/><use transform="matrix(0.010091145833333332,0,0,0.010091145833333332,85.30045572916667,0)" xlink:href="#bi"/><use transform="matrix(0.010091145833333332,0,0,0.010091145833333332,98.16666666666667,0)" xlink:href="#bm"/><use transform="matrix(0.010091145833333332,0,0,0.010091145833333332,110.1650390625,0)" xlink:href="#bn"/></g><path fill="#333" d="M750-1118v229H516V0H217v-889H20v-229h197v-86c0-238 156-356 363-356 94 0 178 20 215 31l-54 226c-25-7-61-15-100-15-123-3-131 84-125 200h234" id="bo"/><path fill="#333" d="M128 0v-1118h290v195h12c54-169 184-238 367-200v268c-27-8-86-15-130-15-138 0-239 95-239 234V0H128" id="bp"/><path fill="#333" d="M128 0v-1118h278l12 217c60-163 185-234 319-234 143 0 236 81 288 251 63-172 205-251 359-251 205 0 357 138 357 381V0h-301v-697c0-126-76-187-177-187-114 0-184 79-184 196V0H789v-705c0-109-72-179-174-179-106 0-187 74-187 208V0H128" id="bq"/><path fill="#333" d="M625 442c-280 0-454-114-503-274l258-72c28 63 97 128 243 128 153 0 246-69 246-216v-206h-23C805-108 717-16 536-16 284-16 81-191 81-561c0-378 208-571 456-571 188 0 280 113 321 202h13v-188h295V-9c0 303-226 451-541 451zm5-686c153 0 240-119 240-319 0-198-86-329-240-329-158 0-241 137-241 329 0 195 85 319 241 319" id="br"/><g id="z"><use transform="matrix(0.010091145833333332,0,0,0.010091145833333332,0,0)" xlink:href="#bo"/><use transform="matrix(0.010091145833333332,0,0,0.010091145833333332,7.780273437499999,0)" xlink:href="#bh"/><use transform="matrix(0.010091145833333332,0,0,0.010091145833333332,20.454752604166664,0)" xlink:href="#bp"/><use transform="matrix(0.010091145833333332,0,0,0.010091145833333332,29.022135416666664,0)" xlink:href="#bq"/><use transform="matrix(0.010091145833333332,0,0,0.010091145833333332,47.882486979166664,0)" xlink:href="#bm"/><use transform="matrix(0.010091145833333332,0,0,0.010091145833333332,59.880859374999986,0)" xlink:href="#bl"/><use transform="matrix(0.010091145833333332,0,0,0.010091145833333332,66.72265624999999,0)" xlink:href="#bl"/><use transform="matrix(0.010091145833333332,0,0,0.010091145833333332,74.29101562499999,0)" xlink:href="#bk"/><use transform="matrix(0.010091145833333332,0,0,0.010091145833333332,79.89160156249999,0)" xlink:href="#bi"/><use transform="matrix(0.010091145833333332,0,0,0.010091145833333332,92.75781249999999,0)" xlink:href="#br"/></g><path fill="#333" d="M783 20c-382 0-661-292-661-764 0-473 279-766 661-766 302 0 548 182 601 489h-190c-42-204-217-313-411-313-268 0-476 208-476 590 0 381 209 588 476 588 195 0 369-110 411-313h190c-52 303-296 489-601 489" id="bs"/><path fill="#333" d="M613 24c-304 0-509-231-509-576 0-350 205-580 509-580 305 0 511 230 511 580 0 345-206 576-511 576zm0-161c226 0 329-195 329-415 0-222-103-419-329-419-223 0-326 196-326 419 0 220 103 415 326 415" id="bt"/><path fill="#333" d="M338-670V0H158v-1118h173l1 207c72-158 192-221 342-221 226 0 378 139 378 422V0H872v-695c0-172-96-275-252-275-161 0-282 109-282 300" id="bu"/><path fill="#333" d="M577 24c-279 0-473-224-473-580 0-354 195-576 474-576 218 0 287 134 324 193h14v-551h180V0H922v-173h-20C865-111 790 24 577 24zm27-161c203 0 314-172 314-421 0-247-108-413-314-413-212 0-317 181-317 413 0 235 108 421 317 421" id="bv"/><path fill="#333" d="M158 0v-1118h180V0H158zm91-1301c-68 0-125-53-125-119s57-119 125-119c69 0 126 53 126 119s-57 119-126 119" id="bw"/><path fill="#333" d="M598-1118v154H368v674c0 100 37 144 132 144 23 0 62-6 92-12L629-6c-37 13-88 20-134 20-193 0-307-107-307-290v-688H20v-154h168v-266h180v266h230" id="bx"/><path fill="#333" d="M471 26C259 26 90-98 90-318c0-256 228-303 435-329 202-27 287-16 287-108 0-139-79-219-234-219-161 0-248 86-283 164l-173-57c86-203 278-265 451-265 150 0 419 46 419 395V0H815v-152h-12C765-73 660 26 471 26zm31-159c199 0 310-134 310-271v-155c-30 35-226 55-295 64-131 17-246 59-246 186 0 116 97 176 231 176" id="by"/><path fill="#333" d="M338-1490V0H158v-1490h180" id="bz"/><g id="A"><use transform="matrix(0.008072916666666667,0,0,0.008072916666666667,0,0)" xlink:href="#bs"/><use transform="matrix(0.008072916666666667,0,0,0.008072916666666667,12.077083333333334,0)" xlink:href="#bt"/><use transform="matrix(0.008072916666666667,0,0,0.008072916666666667,21.990625,0)" xlink:href="#bu"/><use transform="matrix(0.008072916666666667,0,0,0.008072916666666667,31.75885416666667,0)" xlink:href="#bv"/><use transform="matrix(0.008072916666666667,0,0,0.008072916666666667,41.882291666666674,0)" xlink:href="#bw"/><use transform="matrix(0.008072916666666667,0,0,0.008072916666666667,45.886458333333344,0)" xlink:href="#bx"/><use transform="matrix(0.008072916666666667,0,0,0.008072916666666667,51.29531250000001,0)" xlink:href="#bw"/><use transform="matrix(0.008072916666666667,0,0,0.008072916666666667,55.29947916666668,0)" xlink:href="#bt"/><use transform="matrix(0.008072916666666667,0,0,0.008072916666666667,65.21302083333335,0)" xlink:href="#bu"/><use transform="matrix(0.008072916666666667,0,0,0.008072916666666667,74.98125000000002,0)" xlink:href="#by"/><use transform="matrix(0.008072916666666667,0,0,0.008072916666666667,84.26510416666669,0)" xlink:href="#bz"/></g><path fill="#333" d="M678-1118v154H420V0H240v-964H20v-154h220v-149c0-194 155-293 318-293 85 0 141 18 168 30l-50 154c-19-6-47-17-97-17-111 0-159 58-159 166v109h258" id="bA"/><path fill="#333" d="M158 0v-1118h174v172h12c41-113 157-188 290-188 26 0 70 2 91 3v181c-11-2-60-10-108-10-161 0-279 109-279 260V0H158" id="bB"/><path fill="#333" d="M158 0v-1118h175l1 205c55-151 181-225 313-225 147 0 245 90 285 228 53-141 190-228 352-228 194 0 352 125 352 384V0h-181v-749c0-161-105-225-225-225-151 0-243 103-243 244V0H807v-767c0-124-93-207-219-207-131 0-250 92-250 270V0H158" id="bC"/><path fill="#333" d="M611 442c-248 0-391-105-460-228l146-94c47 65 117 165 314 165 178 0 307-82 307-266v-224h-17C863-141 792-18 576-18c-268 0-472-195-472-546 0-346 197-568 476-568 216 0 288 133 326 193h17v-179h175V29c0 289-215 413-487 413zm-5-620c203 0 314-146 314-390 0-237-108-403-314-403-213 0-319 180-319 403 0 230 109 390 319 390" id="bD"/><g id="B"><use transform="matrix(0.008072916666666667,0,0,0.008072916666666667,0,0)" xlink:href="#bA"/><use transform="matrix(0.008072916666666667,0,0,0.008072916666666667,5.634895833333334,0)" xlink:href="#bt"/><use transform="matrix(0.008072916666666667,0,0,0.008072916666666667,15.548437500000002,0)" xlink:href="#bB"/><use transform="matrix(0.008072916666666667,0,0,0.008072916666666667,22.030989583333337,0)" xlink:href="#bC"/><use transform="matrix(0.008072916666666667,0,0,0.008072916666666667,36.51380208333334,0)" xlink:href="#by"/><use transform="matrix(0.008072916666666667,0,0,0.008072916666666667,45.79765625,0)" xlink:href="#bx"/><use transform="matrix(0.008072916666666667,0,0,0.008072916666666667,50.80286458333333,0)" xlink:href="#bx"/><use transform="matrix(0.008072916666666667,0,0,0.008072916666666667,56.211718749999996,0)" xlink:href="#bw"/><use transform="matrix(0.008072916666666667,0,0,0.008072916666666667,60.215885416666666,0)" xlink:href="#bu"/><use transform="matrix(0.008072916666666667,0,0,0.008072916666666667,69.98411458333334,0)" xlink:href="#bD"/></g><path fill="#333" d="M628 24c-324 0-524-230-524-574 0-343 198-582 503-582 237 0 487 146 487 559v75H286c9 234 145 362 343 362 132 0 231-58 273-172l174 48C1024-91 857 24 628 24zM287-650h624c-17-190-120-322-304-322-192 0-309 151-320 322" id="bE"/><path fill="#333" d="M538 24C308 24 148-78 108-271l171-41c32 123 123 178 257 178 156 0 256-77 256-169 0-77-54-128-164-154l-186-44c-203-48-300-148-300-305 0-192 176-326 414-326 230 0 351 112 402 269l-163 42c-31-80-94-158-238-158-133 0-233 69-233 162 0 83 57 129 188 160l169 40c203 48 298 149 298 302 0 196-179 339-441 339" id="bF"/><g id="C"><use transform="matrix(0.008072916666666667,0,0,0.008072916666666667,0,0)" xlink:href="#bt"/><use transform="matrix(0.008072916666666667,0,0,0.008072916666666667,9.913541666666667,0)" xlink:href="#bA"/><use transform="matrix(0.008072916666666667,0,0,0.008072916666666667,15.386979166666666,0)" xlink:href="#bA"/><use transform="matrix(0.008072916666666667,0,0,0.008072916666666667,21.021875,0)" xlink:href="#bE"/><use transform="matrix(0.008072916666666667,0,0,0.008072916666666667,30.660937500000003,0)" xlink:href="#bB"/><use transform="matrix(0.008072916666666667,0,0,0.008072916666666667,36.88515625,0)" xlink:href="#bF"/></g><use transform="matrix(0.008072916666666667,0,0,0.008072916666666667,0,0)" xlink:href="#by" id="D"/><g id="E"><use transform="matrix(0.008072916666666667,0,0,0.008072916666666667,0,0)" xlink:href="#bD"/><use transform="matrix(0.008072916666666667,0,0,0.008072916666666667,10.139583333333334,0)" xlink:href="#bB"/><use transform="matrix(0.008072916666666667,0,0,0.008072916666666667,16.089322916666667,0)" xlink:href="#bE"/><use transform="matrix(0.008072916666666667,0,0,0.008072916666666667,25.889843749999997,0)" xlink:href="#by"/><use transform="matrix(0.008072916666666667,0,0,0.008072916666666667,35.17369791666667,0)" xlink:href="#bx"/></g><path fill="#333" d="M409 0L70-1118h191c89 329 165 560 243 925 75-353 154-601 240-925h192c85 325 161 564 235 922 77-354 157-598 244-922h191L1267 0h-179c-86-307-176-590-250-913C763-588 675-308 588 0H409" id="bG"/><path fill="#333" d="M140 405l46-156c120 36 205 19 263-150l32-93L54-1118h197c107 313 237 620 324 950 87-331 219-637 326-950h196L606 167c-68 178-176 259-334 259-64 0-113-12-132-21" id="bH"/><g id="F"><use transform="matrix(0.008072916666666667,0,0,0.008072916666666667,0,0)" xlink:href="#bG"/><use transform="matrix(0.008072916666666667,0,0,0.008072916666666667,13.530208333333334,0)" xlink:href="#by"/><use transform="matrix(0.008072916666666667,0,0,0.008072916666666667,22.571875000000002,0)" xlink:href="#bH"/></g><g id="G"><use transform="matrix(0.008072916666666667,0,0,0.008072916666666667,0,0)" xlink:href="#bx"/><use transform="matrix(0.008072916666666667,0,0,0.008072916666666667,5.247395833333334,0)" xlink:href="#bt"/></g><path fill="#333" d="M338-670V0H158v-1490h180v566c73-149 190-208 336-208 226 0 379 139 379 422V0H872v-695c0-172-96-275-252-275-161 0-282 109-282 300" id="bI"/><g id="H"><use transform="matrix(0.008072916666666667,0,0,0.008072916666666667,0,0)" xlink:href="#bI"/><use transform="matrix(0.008072916666666667,0,0,0.008072916666666667,9.776302083333334,0)" xlink:href="#bw"/><use transform="matrix(0.008072916666666667,0,0,0.008072916666666667,13.78046875,0)" xlink:href="#bD"/><use transform="matrix(0.008072916666666667,0,0,0.008072916666666667,23.920052083333335,0)" xlink:href="#bI"/><use transform="matrix(0.008072916666666667,0,0,0.008072916666666667,33.696354166666666,0)" xlink:href="#bz"/><use transform="matrix(0.008072916666666667,0,0,0.008072916666666667,37.700520833333336,0)" xlink:href="#bw"/><use transform="matrix(0.008072916666666667,0,0,0.008072916666666667,41.704687500000006,0)" xlink:href="#bD"/><use transform="matrix(0.008072916666666667,0,0,0.008072916666666667,51.84427083333334,0)" xlink:href="#bI"/><use transform="matrix(0.008072916666666667,0,0,0.008072916666666667,61.620572916666674,0)" xlink:href="#bx"/></g><path fill="#333" d="M158 418v-1536h174v179h20c37-59 106-193 324-193 279 0 474 222 474 576 0 356-194 580-473 580-213 0-288-135-325-197h-14v591H158zm492-555c209 0 317-186 317-421 0-232-105-413-317-413-206 0-314 166-314 413 0 249 111 421 314 421" id="bJ"/><g id="I"><use transform="matrix(0.008072916666666667,0,0,0.008072916666666667,0,0)" xlink:href="#bw"/><use transform="matrix(0.008072916666666667,0,0,0.008072916666666667,4.004166666666667,0)" xlink:href="#bC"/><use transform="matrix(0.008072916666666667,0,0,0.008072916666666667,18.486979166666668,0)" xlink:href="#bJ"/><use transform="matrix(0.008072916666666667,0,0,0.008072916666666667,28.61041666666667,0)" xlink:href="#bt"/><use transform="matrix(0.008072916666666667,0,0,0.008072916666666667,38.52395833333334,0)" xlink:href="#bB"/><use transform="matrix(0.008072916666666667,0,0,0.008072916666666667,45.00651041666667,0)" xlink:href="#bx"/><use transform="matrix(0.008072916666666667,0,0,0.008072916666666667,50.49609375,0)" xlink:href="#by"/><use transform="matrix(0.008072916666666667,0,0,0.008072916666666667,59.77994791666667,0)" xlink:href="#bu"/><use transform="matrix(0.008072916666666667,0,0,0.008072916666666667,69.54817708333334,0)" xlink:href="#bx"/></g><g id="J"><use transform="matrix(0.008072916666666667,0,0,0.008072916666666667,0,0)" xlink:href="#bw"/><use transform="matrix(0.008072916666666667,0,0,0.008072916666666667,4.004166666666667,0)" xlink:href="#bu"/><use transform="matrix(0.008072916666666667,0,0,0.008072916666666667,13.772395833333334,0)" xlink:href="#bA"/><use transform="matrix(0.008072916666666667,0,0,0.008072916666666667,19.40729166666667,0)" xlink:href="#bt"/><use transform="matrix(0.008072916666666667,0,0,0.008072916666666667,29.320833333333336,0)" xlink:href="#bB"/><use transform="matrix(0.008072916666666667,0,0,0.008072916666666667,35.80338541666667,0)" xlink:href="#bC"/><use transform="matrix(0.008072916666666667,0,0,0.008072916666666667,50.28619791666667,0)" xlink:href="#by"/><use transform="matrix(0.008072916666666667,0,0,0.008072916666666667,59.57005208333334,0)" xlink:href="#bx"/><use transform="matrix(0.008072916666666667,0,0,0.008072916666666667,64.97890625000001,0)" xlink:href="#bw"/><use transform="matrix(0.008072916666666667,0,0,0.008072916666666667,68.98307291666667,0)" xlink:href="#bt"/><use transform="matrix(0.008072916666666667,0,0,0.008072916666666667,78.89661458333333,0)" xlink:href="#bu"/></g><g id="K"><use transform="matrix(0.008072916666666667,0,0,0.008072916666666667,0,0)" xlink:href="#bt"/><use transform="matrix(0.008072916666666667,0,0,0.008072916666666667,9.913541666666667,0)" xlink:href="#bB"/></g><path fill="#333" d="M481 0L54-1118h197c107 314 236 620 325 951 87-331 217-637 324-951h197L670 0H481" id="bK"/><path fill="#333" d="M537 14c-226 0-379-139-379-422v-710h180v695c0 172 97 275 253 275 160 0 281-109 281-300v-670h181V0H879v-209C806-46 684 14 537 14" id="bL"/><g id="L"><use transform="matrix(0.008072916666666667,0,0,0.008072916666666667,0,0)" xlink:href="#bK"/><use transform="matrix(0.008072916666666667,0,0,0.008072916666666667,9.291927083333334,0)" xlink:href="#bw"/><use transform="matrix(0.008072916666666667,0,0,0.008072916666666667,13.29609375,0)" xlink:href="#bF"/><use transform="matrix(0.008072916666666667,0,0,0.008072916666666667,22.022916666666667,0)" xlink:href="#bL"/><use transform="matrix(0.008072916666666667,0,0,0.008072916666666667,31.79921875,0)" xlink:href="#by"/><use transform="matrix(0.008072916666666667,0,0,0.008072916666666667,41.083072916666666,0)" xlink:href="#bz"/><use transform="matrix(0.008072916666666667,0,0,0.008072916666666667,45.087239583333336,0)" xlink:href="#bz"/><use transform="matrix(0.008072916666666667,0,0,0.008072916666666667,49.17213541666667,0)" xlink:href="#bH"/></g><g id="M"><use transform="matrix(0.008072916666666667,0,0,0.008072916666666667,0,0)" xlink:href="#by"/><use transform="matrix(0.008072916666666667,0,0,0.008072916666666667,9.283854166666668,0)" xlink:href="#bz"/><use transform="matrix(0.008072916666666667,0,0,0.008072916666666667,13.288020833333334,0)" xlink:href="#bE"/><use transform="matrix(0.008072916666666667,0,0,0.008072916666666667,22.927083333333336,0)" xlink:href="#bB"/><use transform="matrix(0.008072916666666667,0,0,0.008072916666666667,29.409635416666667,0)" xlink:href="#bx"/></g><g id="N"><use transform="matrix(0.008072916666666667,0,0,0.008072916666666667,0,0)" xlink:href="#bH"/><use transform="matrix(0.008072916666666667,0,0,0.008072916666666667,8.969010416666668,0)" xlink:href="#bt"/><use transform="matrix(0.008072916666666667,0,0,0.008072916666666667,18.882552083333337,0)" xlink:href="#bL"/></g><g id="O"><use transform="matrix(0.008072916666666667,0,0,0.008072916666666667,0,0)" xlink:href="#bG"/><use transform="matrix(0.008072916666666667,0,0,0.008072916666666667,13.530208333333334,0)" xlink:href="#bI"/><use transform="matrix(0.008072916666666667,0,0,0.008072916666666667,23.30651041666667,0)" xlink:href="#bE"/><use transform="matrix(0.008072916666666667,0,0,0.008072916666666667,32.94557291666667,0)" xlink:href="#bu"/></g><g id="P"><use transform="matrix(0.008072916666666667,0,0,0.008072916666666667,0,0)" xlink:href="#bF"/><use transform="matrix(0.008072916666666667,0,0,0.008072916666666667,8.726822916666668,0)" xlink:href="#bt"/><use transform="matrix(0.008072916666666667,0,0,0.008072916666666667,18.640364583333337,0)" xlink:href="#bC"/><use transform="matrix(0.008072916666666667,0,0,0.008072916666666667,33.12317708333334,0)" xlink:href="#bE"/><use transform="matrix(0.008072916666666667,0,0,0.008072916666666667,42.76223958333334,0)" xlink:href="#bx"/><use transform="matrix(0.008072916666666667,0,0,0.008072916666666667,48.171093750000004,0)" xlink:href="#bI"/><use transform="matrix(0.008072916666666667,0,0,0.008072916666666667,57.94739583333334,0)" xlink:href="#bw"/><use transform="matrix(0.008072916666666667,0,0,0.008072916666666667,61.95156250000001,0)" xlink:href="#bu"/><use transform="matrix(0.008072916666666667,0,0,0.008072916666666667,71.71979166666668,0)" xlink:href="#bD"/></g><g id="Q"><use transform="matrix(0.008072916666666667,0,0,0.008072916666666667,0,0)" xlink:href="#bu"/><use transform="matrix(0.008072916666666667,0,0,0.008072916666666667,9.768229166666668,0)" xlink:href="#bE"/><use transform="matrix(0.008072916666666667,0,0,0.008072916666666667,19.40729166666667,0)" xlink:href="#bE"/><use transform="matrix(0.008072916666666667,0,0,0.008072916666666667,29.04635416666667,0)" xlink:href="#bv"/><use transform="matrix(0.008072916666666667,0,0,0.008072916666666667,39.16979166666667,0)" xlink:href="#bF"/></g><path fill="#333" d="M295 13c-75 0-135-60-135-135s60-135 135-135 135 60 135 135S370 13 295 13" id="bM"/><g id="R"><use transform="matrix(0.008072916666666667,0,0,0.008072916666666667,0,0)" xlink:href="#by"/><use transform="matrix(0.008072916666666667,0,0,0.008072916666666667,9.283854166666668,0)" xlink:href="#bx"/><use transform="matrix(0.008072916666666667,0,0,0.008072916666666667,14.2890625,0)" xlink:href="#bx"/><use transform="matrix(0.008072916666666667,0,0,0.008072916666666667,19.536458333333332,0)" xlink:href="#bE"/><use transform="matrix(0.008072916666666667,0,0,0.008072916666666667,29.175520833333334,0)" xlink:href="#bu"/><use transform="matrix(0.008072916666666667,0,0,0.008072916666666667,38.94375,0)" xlink:href="#bx"/><use transform="matrix(0.008072916666666667,0,0,0.008072916666666667,44.352604166666666,0)" xlink:href="#bw"/><use transform="matrix(0.008072916666666667,0,0,0.008072916666666667,48.356770833333336,0)" xlink:href="#bt"/><use transform="matrix(0.008072916666666667,0,0,0.008072916666666667,58.2703125,0)" xlink:href="#bu"/><use transform="matrix(0.008072916666666667,0,0,0.008072916666666667,68.03854166666667,0)" xlink:href="#bM"/></g><path fill="#333" d="M180 0v-1490h190v1322h690V0H180" id="bN"/><g id="S"><use transform="matrix(0.008072916666666667,0,0,0.008072916666666667,0,0)" xlink:href="#bN"/><use transform="matrix(0.008072916666666667,0,0,0.008072916666666667,9.348437500000001,0)" xlink:href="#bE"/><use transform="matrix(0.008072916666666667,0,0,0.008072916666666667,19.148958333333336,0)" xlink:href="#by"/><use transform="matrix(0.008072916666666667,0,0,0.008072916666666667,28.432812500000004,0)" xlink:href="#bB"/><use transform="matrix(0.008072916666666667,0,0,0.008072916666666667,34.915364583333336,0)" xlink:href="#bu"/></g><g id="T"><use transform="matrix(0.008072916666666667,0,0,0.008072916666666667,0,0)" xlink:href="#bI"/><use transform="matrix(0.008072916666666667,0,0,0.008072916666666667,9.776302083333334,0)" xlink:href="#bt"/><use transform="matrix(0.008072916666666667,0,0,0.008072916666666667,19.391145833333333,0)" xlink:href="#bG"/></g><g id="U"><use transform="matrix(0.008072916666666667,0,0,0.008072916666666667,0,0)" xlink:href="#bL"/><use transform="matrix(0.008072916666666667,0,0,0.008072916666666667,9.776302083333334,0)" xlink:href="#bF"/><use transform="matrix(0.008072916666666667,0,0,0.008072916666666667,18.503125000000004,0)" xlink:href="#bE"/></g><g id="V"><use transform="matrix(0.008072916666666667,0,0,0.008072916666666667,0,0)" xlink:href="#bs"/><use transform="matrix(0.008072916666666667,0,0,0.008072916666666667,12.077083333333334,0)" xlink:href="#bt"/><use transform="matrix(0.008072916666666667,0,0,0.008072916666666667,21.990625,0)" xlink:href="#bu"/><use transform="matrix(0.008072916666666667,0,0,0.008072916666666667,31.75885416666667,0)" xlink:href="#bv"/><use transform="matrix(0.008072916666666667,0,0,0.008072916666666667,41.882291666666674,0)" xlink:href="#bw"/><use transform="matrix(0.008072916666666667,0,0,0.008072916666666667,45.886458333333344,0)" xlink:href="#bx"/><use transform="matrix(0.008072916666666667,0,0,0.008072916666666667,51.29531250000001,0)" xlink:href="#bw"/><use transform="matrix(0.008072916666666667,0,0,0.008072916666666667,55.29947916666668,0)" xlink:href="#bt"/><use transform="matrix(0.008072916666666667,0,0,0.008072916666666667,65.21302083333335,0)" xlink:href="#bu"/><use transform="matrix(0.008072916666666667,0,0,0.008072916666666667,74.98125000000002,0)" xlink:href="#by"/><use transform="matrix(0.008072916666666667,0,0,0.008072916666666667,84.26510416666669,0)" xlink:href="#bz"/></g><path fill="#333" d="M180 0v-1490h901v168H370v510h643v168H370V0H180" id="bO"/><g id="W"><use transform="matrix(0.008072916666666667,0,0,0.008072916666666667,0,0)" xlink:href="#bO"/><use transform="matrix(0.008072916666666667,0,0,0.008072916666666667,9.106250000000001,0)" xlink:href="#bt"/><use transform="matrix(0.008072916666666667,0,0,0.008072916666666667,19.01979166666667,0)" xlink:href="#bB"/><use transform="matrix(0.008072916666666667,0,0,0.008072916666666667,25.50234375,0)" xlink:href="#bC"/><use transform="matrix(0.008072916666666667,0,0,0.008072916666666667,39.98515625,0)" xlink:href="#by"/><use transform="matrix(0.008072916666666667,0,0,0.008072916666666667,49.269010416666674,0)" xlink:href="#bx"/><use transform="matrix(0.008072916666666667,0,0,0.008072916666666667,54.27421875,0)" xlink:href="#bx"/><use transform="matrix(0.008072916666666667,0,0,0.008072916666666667,59.68307291666667,0)" xlink:href="#bw"/><use transform="matrix(0.008072916666666667,0,0,0.008072916666666667,63.68723958333334,0)" xlink:href="#bu"/><use transform="matrix(0.008072916666666667,0,0,0.008072916666666667,73.45546875000001,0)" xlink:href="#bD"/></g><g id="X"><use transform="matrix(0.008072916666666667,0,0,0.008072916666666667,0,0)" xlink:href="#bI"/><use transform="matrix(0.008072916666666667,0,0,0.008072916666666667,9.776302083333334,0)" xlink:href="#bE"/><use transform="matrix(0.008072916666666667,0,0,0.008072916666666667,19.415364583333336,0)" xlink:href="#bB"/><use transform="matrix(0.008072916666666667,0,0,0.008072916666666667,25.36510416666667,0)" xlink:href="#bE"/><path fill="#8080ff" d="M-.83 3.37h36.66V4.5H-.83z"/><use transform="matrix(0.008072916666666667,0,0,0.008072916666666667,35.00416666666667,0)" xlink:href="#bM"/></g><path fill="#333" d="M135 0v-1490h305v1237h643V0H135" id="bP"/><path fill="#333" d="M513 14c-232 0-385-159-385-421v-711h300v659c0 139 76 222 202 222 127 0 217-86 217-234v-647h301V0H864l-4-232C797-74 683 14 513 14" id="bQ"/><path fill="#333" d="M628 22C291 22 81-210 81-554c0-346 210-578 547-578 265 0 455 142 497 372l-279 52c-25-116-99-188-215-188-160 0-244 139-244 341 0 200 84 341 244 341 116 0 193-74 217-195l279 51C1085-123 896 22 628 22" id="bR"/><path fill="#333" d="M428-647V0H128v-1490h294v586c65-146 175-228 341-228 232 0 385 159 385 421V0H847v-659c0-139-76-222-202-222-128 0-217 86-217 234" id="bS"/><g id="Z"><use transform="matrix(0.010091145833333332,0,0,0.010091145833333332,0,0)" xlink:href="#bP"/><use transform="matrix(0.010091145833333332,0,0,0.010091145833333332,11.685546874999998,0)" xlink:href="#bQ"/><use transform="matrix(0.010091145833333332,0,0,0.010091145833333332,24.551757812499996,0)" xlink:href="#bR"/><use transform="matrix(0.010091145833333332,0,0,0.010091145833333332,36.711588541666664,0)" xlink:href="#bk"/><use transform="matrix(0.010091145833333332,0,0,0.010091145833333332,42.312174479166664,0)" xlink:href="#bj"/><use transform="matrix(0.010091145833333332,0,0,0.010091145833333332,55.33984375,0)" xlink:href="#bR"/><use transform="matrix(0.010091145833333332,0,0,0.010091145833333332,67.49967447916667,0)" xlink:href="#bS"/><use transform="matrix(0.010091145833333332,0,0,0.010091145833333332,80.36588541666667,0)" xlink:href="#bm"/><use transform="matrix(0.010091145833333332,0,0,0.010091145833333332,92.36425781250001,0)" xlink:href="#bp"/><use transform="matrix(0.010091145833333332,0,0,0.010091145833333332,101.18391927083333,0)" xlink:href="#bl"/></g><path fill="#333" d="M754 19C571 19 479-89 437-179h-14V0H128v-1490h300v560h9c41-89 129-202 319-202 248 0 453 193 453 575 0 372-197 576-455 576zm-92-241c156 0 240-139 240-336 0-196-83-334-240-334-154 0-241 131-241 334 0 202 88 336 241 336" id="bT"/><path fill="#333" d="M572 22C302 22 117-98 78-306l279-48c29 105 101 156 224 156 114 0 185-48 185-115 0-118-228-130-337-155-215-49-322-150-322-317 0-215 187-347 470-347 265 0 424 116 466 298l-266 47c-24-76-87-130-196-130-98 0-174 46-174 113 0 56 38 95 144 117l201 40c216 44 320 143 320 302 0 220-207 367-500 367" id="bU"/><g id="aa"><use transform="matrix(0.010091145833333332,0,0,0.010091145833333332,0,0)" xlink:href="#bT"/><use transform="matrix(0.010091145833333332,0,0,0.010091145833333332,13.229492187499998,0)" xlink:href="#bm"/><use transform="matrix(0.010091145833333332,0,0,0.010091145833333332,25.227864583333332,0)" xlink:href="#bU"/><use transform="matrix(0.010091145833333332,0,0,0.010091145833333332,36.80240885416666,0)" xlink:href="#bk"/><use transform="matrix(0.010091145833333332,0,0,0.010091145833333332,42.40299479166665,0)" xlink:href="#bR"/><use transform="matrix(0.010091145833333332,0,0,0.010091145833333332,54.562825520833314,0)" xlink:href="#bU"/></g><filter id="Y" filterUnits="objectBoundingBox" x="-.04" y="-.09" width="1.08" height="1.43"><feOffset result="offOut" in="SourceAlpha" dy="6"/><feGaussianBlur result="blurOut" in="offOut" stdDeviation="5"/><feColorMatrix result="colorOut" in="blurOut" values="0 0 0 0 0 0 0 0 0 0 0 0 0 0 0 0 0 0 0.5019607843137255 0"/><feBlend in="SourceGraphic" in2="colorOut"/></filter><image width="10" height="10" id="bV" xlink:href="https://images.lucid.app/images/06db5823-b0ba-4696-9800-591d1047a6c1/content" preserveAspectRatio="none"/><pattern id="ab" patternUnits="userSpaceOnUse" x="-2078.99" y="-578.12" width="36.47" height="36.47"><use xlink:href="#bV" transform="translate(0, 0) scale(3.6470705738677283,3.6470705738677283)"/></pattern><path fill="#fff" d="M789 20C394 20 94-260 94-744c0-487 300-766 695-766s695 279 695 766c0 264-89 467-233 597l215 271h-285L1058-29C976 3 886 20 789 20zm-94-532h261l108 139c70-83 110-208 110-371 0-321-154-495-385-495s-385 175-385 495c0 356 184 537 481 482" id="bW"/><path fill="#fff" d="M513 14c-232 0-385-159-385-421v-711h300v659c0 139 76 222 202 222 127 0 217-86 217-234v-647h301V0H864l-4-232C797-74 683 14 513 14" id="bX"/><path fill="#fff" d="M128 0v-1118h300V0H128zm150-1264c-91 0-165-68-165-154 0-85 74-154 165-154 90 0 165 69 165 154 0 86-75 154-165 154" id="bY"/><path fill="#fff" d="M628 22C291 22 81-210 81-554c0-346 210-578 547-578 265 0 455 142 497 372l-279 52c-25-116-99-188-215-188-160 0-244 139-244 341 0 200 84 341 244 341 116 0 193-74 217-195l279 51C1085-123 896 22 628 22" id="bZ"/><path fill="#fff" d="M128 0v-1490h300v802h17l366-430h347L740-633 1179 0H826L514-456l-86 97V0H128" id="ca"/><g id="ad"><use transform="matrix(0.012109375,0,0,0.012109375,0,0)" xlink:href="#bW"/><use transform="matrix(0.012109375,0,0,0.012109375,19.266015625,0)" xlink:href="#bX"/><use transform="matrix(0.012109375,0,0,0.012109375,34.70546875,0)" xlink:href="#bY"/><use transform="matrix(0.012109375,0,0,0.012109375,41.426171875,0)" xlink:href="#bZ"/><use transform="matrix(0.012109375,0,0,0.012109375,56.01796875,0)" xlink:href="#ca"/></g><path fill="#fff" d="M683-1118v229H474v562c0 71 29 104 102 104 23 0 73-7 95-13l43 225C647 9 580 16 520 16 296 16 174-96 174-301v-588H20v-229h154v-266h300v266h209" id="cb"/><path fill="#fff" d="M128 418v-1536h295v188h14c41-89 129-202 319-202 248 0 453 193 453 575 0 372-197 576-455 576-183 0-275-108-317-198h-9v597H128zm534-640c156 0 240-139 240-336 0-196-83-334-240-334-154 0-241 131-241 334 0 202 88 336 241 336" id="cc"/><path fill="#fff" d="M572 22C302 22 117-98 78-306l279-48c29 105 101 156 224 156 114 0 185-48 185-115 0-118-228-130-337-155-215-49-322-150-322-317 0-215 187-347 470-347 265 0 424 116 466 298l-266 47c-24-76-87-130-196-130-98 0-174 46-174 113 0 56 38 95 144 117l201 40c216 44 320 143 320 302 0 220-207 367-500 367" id="cd"/><g id="ae"><use transform="matrix(0.012109375,0,0,0.012109375,0,0)" xlink:href="#cb"/><use transform="matrix(0.012109375,0,0,0.012109375,9.08203125,0)" xlink:href="#bY"/><use transform="matrix(0.012109375,0,0,0.012109375,15.802734375,0)" xlink:href="#cc"/><use transform="matrix(0.012109375,0,0,0.012109375,31.4359375,0)" xlink:href="#cd"/></g><filter id="ac" filterUnits="objectBoundingBox" x="-.03" y="-.07" width="1.06" height="1.36"><feOffset result="offOut" in="SourceAlpha" dy="6"/><feGaussianBlur result="blurOut" in="offOut" stdDeviation="5"/><feColorMatrix result="colorOut" in="blurOut" values="0 0 0 0 0 0 0 0 0 0 0 0 0 0 0 0 0 0 0.5019607843137255 0"/><feBlend in="SourceGraphic" in2="colorOut"/></filter><image width="10" height="10" id="ce" xlink:href="https://cdn-cashy-static-assets.lucidchart.com/app/common/quickactions/icons/video-24-icon.svg" preserveAspectRatio="none"/><pattern id="ag" patternUnits="userSpaceOnUse" x="-1488.99" y="-546.98" width="191.82" height="77.87"><use xlink:href="#ce" transform="translate(24.514737657270643, 24.514737657270643) scale(2.8840867832083044,2.8840867832083044)"/></pattern><path fill="#282c33" d="M135 0v-1490h581c339 0 533 192 533 485 0 204-94 351-264 424L1302 0H964L680-532H440V0H135zm305-779h220c186 0 274-77 274-226 0-150-88-233-275-233H440v459" id="cf"/><path fill="#282c33" d="M633 22C291 22 81-200 81-553c0-345 210-579 537-579 292 0 525 185 525 567v84H378c7 183 109 277 260 277 105 0 184-46 216-132l272 51C1071-99 893 22 633 22zM380-669h474c-15-146-94-237-233-237-143 0-229 99-241 237" id="cg"/><path fill="#282c33" d="M628 22C291 22 81-210 81-554c0-346 210-578 547-578 265 0 455 142 497 372l-279 52c-25-116-99-188-215-188-160 0-244 139-244 341 0 200 84 341 244 341 116 0 193-74 217-195l279 51C1085-123 896 22 628 22" id="ch"/><path fill="#282c33" d="M628 22C291 22 81-210 81-554c0-346 210-578 547-578 336 0 547 232 547 578 0 344-211 576-547 576zm0-236c160 0 242-146 242-341 0-197-82-341-242-341S387-753 387-555c0 195 81 341 241 341" id="ci"/><path fill="#282c33" d="M128 0v-1118h290v195h12c54-169 184-238 367-200v268c-27-8-86-15-130-15-138 0-239 95-239 234V0H128" id="cj"/><path fill="#282c33" d="M537 19C279 19 81-185 81-557c0-382 206-575 454-575 190 0 278 113 318 202h10v-560h300V0H868v-179h-15C812-89 719 19 537 19zm92-241c153 0 240-134 240-336 0-203-86-334-240-334-158 0-240 138-240 334 0 197 84 336 240 336" id="ck"/><g id="ah"><use transform="matrix(0.007041227498067149,0,0,0.007041227498067149,0,0)" xlink:href="#cf"/><use transform="matrix(0.007041227498067149,0,0,0.007041227498067149,9.294420297448637,0)" xlink:href="#cg"/><use transform="matrix(0.007041227498067149,0,0,0.007041227498067149,17.884717845090556,0)" xlink:href="#ch"/><use transform="matrix(0.007041227498067149,0,0,0.007041227498067149,26.36939698026147,0)" xlink:href="#ci"/><use transform="matrix(0.007041227498067149,0,0,0.007041227498067149,35.21317871783381,0)" xlink:href="#cj"/><use transform="matrix(0.007041227498067149,0,0,0.007041227498067149,40.73350107631846,0)" xlink:href="#ck"/></g><path fill="#282c33" d="M443 0L31-1118h319c90 293 199 572 268 885 66-313 175-593 264-885h315L784 0H443" id="cl"/><path fill="#282c33" d="M128 0v-1118h300V0H128zm150-1264c-91 0-165-68-165-154 0-85 74-154 165-154 90 0 165 69 165 154 0 86-75 154-165 154" id="cm"/><g id="ai"><use transform="matrix(0.007041227498067149,0,0,0.007041227498067149,0,0)" xlink:href="#cl"/><use transform="matrix(0.007041227498067149,0,0,0.007041227498067149,8.64662736762646,0)" xlink:href="#cm"/><use transform="matrix(0.007041227498067149,0,0,0.007041227498067149,12.554508629053727,0)" xlink:href="#ck"/><use transform="matrix(0.007041227498067149,0,0,0.007041227498067149,21.64473332905842,0)" xlink:href="#cg"/><use transform="matrix(0.007041227498067149,0,0,0.007041227498067149,30.23503087670034,0)" xlink:href="#ci"/></g><filter id="af" filterUnits="objectBoundingBox" x="-.04" y="-.04" width="1.08" height="1.21"><feOffset result="offOut" in="SourceAlpha" dy="5"/><feGaussianBlur result="blurOut" in="offOut" stdDeviation="4"/><feColorMatrix result="colorOut" in="blurOut" values="0 0 0 0 0 0 0 0 0 0 0 0 0 0 0 0 0 0 0.14901960784313725 0"/><feBlend in="SourceGraphic" in2="colorOut"/></filter><image width="10" height="10" id="cn" xlink:href="https://cdn-cashy-static-assets.lucidchart.com/app/common/quickactions/icons/share-24-icon.svg" preserveAspectRatio="none"/><pattern id="ak" patternUnits="userSpaceOnUse" x="-1488.99" y="-469.11" width="140.4" height="77.87"><use xlink:href="#cn" transform="translate(24.514737657270643, 24.514737657270587) scale(2.8840867832083044,2.8840867832083044)"/></pattern><path fill="#282c33" d="M681 22C323 22 94-145 85-462h297c10 151 131 226 296 226 163 0 271-77 271-190 0-102-95-149-257-189l-164-41c-252-61-403-188-403-405 0-269 236-449 560-449 330 0 546 183 551 445H941c-11-119-106-188-259-188-156 0-244 72-244 172-3 156 226 185 373 221 250 61 445 186 445 436 0 271-213 446-575 446" id="co"/><path fill="#282c33" d="M428-647V0H128v-1490h294v586c65-146 175-228 341-228 232 0 385 159 385 421V0H847v-659c0-139-76-222-202-222-128 0-217 86-217 234" id="cp"/><path fill="#282c33" d="M440 22C227 22 68-92 68-313c0-250 202-322 422-343 195-21 271-24 271-105 0-95-63-149-175-149-116 0-187 57-211 129l-275-46c57-194 237-305 487-305 240 0 474 108 474 379V0H777v-155h-10C713-51 605 22 440 22zm85-211c140 0 238-93 238-211v-121c-37 26-156 42-222 51-111 16-185 59-185 149 0 87 70 132 169 132" id="cq"/><g id="al"><use transform="matrix(0.007041227498067149,0,0,0.007041227498067149,0,0)" xlink:href="#co"/><use transform="matrix(0.007041227498067149,0,0,0.007041227498067149,9.442286074908047,0)" xlink:href="#cp"/><use transform="matrix(0.007041227498067149,0,0,0.007041227498067149,18.419851134943663,0)" xlink:href="#cq"/><use transform="matrix(0.007041227498067149,0,0,0.007041227498067149,26.791870630145503,0)" xlink:href="#cj"/><use transform="matrix(0.007041227498067149,0,0,0.007041227498067149,32.312192988630144,0)" xlink:href="#cg"/></g><filter id="aj" filterUnits="objectBoundingBox" x="-.06" y="-.04" width="1.11" height="1.21"><feOffset result="offOut" in="SourceAlpha" dy="5"/><feGaussianBlur result="blurOut" in="offOut" stdDeviation="4"/><feColorMatrix result="colorOut" in="blurOut" values="0 0 0 0 0 0 0 0 0 0 0 0 0 0 0 0 0 0 0.14901960784313725 0"/><feBlend in="SourceGraphic" in2="colorOut"/></filter><path d="M180 0v-1490h528c311 0 458 177 458 395 0 191-114 278-244 313v14c139 9 302 137 302 371 0 225-148 397-499 397H180zm190-168h350c232 0 321-102 321-231 0-149-120-277-311-277H370v508zm0-668h328c160 0 286-101 286-255 0-129-87-231-280-231H370v486" id="cr"/><path d="M180 0v-1490h510c348 0 508 209 508 474 0 266-160 477-507 477H370V0H180zm190-706h312c236 0 327-133 327-310 0-176-91-307-329-307H370v617" id="cs"/><g id="am"><use transform="matrix(0.010850694444444444,0,0,0.010850694444444444,0,0)" xlink:href="#cr"/><use transform="matrix(0.010850694444444444,0,0,0.010850694444444444,14.539930555555555,0)" xlink:href="#cs"/><use transform="matrix(0.010850694444444444,0,0,0.010850694444444444,28.73263888888889,0)" xlink:href="#bd"/><use transform="matrix(0.010850694444444444,0,0,0.010850694444444444,48.80642361111111,0)" xlink:href="#aJ"/></g><path d="M98-1322v-168h1126v168H757V0H567v-1322H98" id="ct"/><g id="an"><use transform="matrix(0.010850694444444444,0,0,0.010850694444444444,0,0)" xlink:href="#ct"/><use transform="matrix(0.010850694444444444,0,0,0.010850694444444444,14.344618055555555,0)" xlink:href="#aH"/><use transform="matrix(0.010850694444444444,0,0,0.010850694444444444,19.7265625,0)" xlink:href="#az"/><use transform="matrix(0.010850694444444444,0,0,0.010850694444444444,25.108506944444443,0)" xlink:href="#aE"/><use transform="matrix(0.010850694444444444,0,0,0.010850694444444444,38.71527777777777,0)" xlink:href="#at"/><use transform="matrix(0.010850694444444444,0,0,0.010850694444444444,51.855468749999986,0)" xlink:href="#av"/></g><g id="ao"><use transform="matrix(0.010850694444444444,0,0,0.010850694444444444,0,0)" xlink:href="#aG"/><use transform="matrix(0.010850694444444444,0,0,0.010850694444444444,8.22482638888889,0)" xlink:href="#aM"/><use transform="matrix(0.010850694444444444,0,0,0.010850694444444444,16.590711805555557,0)" xlink:href="#ay"/></g><g id="ap"><use transform="matrix(0.010850694444444444,0,0,0.010850694444444444,0,0)" xlink:href="#aG"/><use transform="matrix(0.010850694444444444,0,0,0.010850694444444444,8.22482638888889,0)" xlink:href="#aH"/><use transform="matrix(0.010850694444444444,0,0,0.010850694444444444,13.606770833333332,0)" xlink:href="#az"/><use transform="matrix(0.010850694444444444,0,0,0.010850694444444444,18.98871527777778,0)" xlink:href="#aI"/><use transform="matrix(0.010850694444444444,0,0,0.010850694444444444,38.454861111111114,0)" xlink:href="#aP"/><use transform="matrix(0.010850694444444444,0,0,0.010850694444444444,50.18446180555556,0)" xlink:href="#aw"/><use transform="matrix(0.010850694444444444,0,0,0.010850694444444444,63.14019097222222,0)" xlink:href="#az"/><use transform="matrix(0.010850694444444444,0,0,0.010850694444444444,68.52213541666667,0)" xlink:href="#aP"/><use transform="matrix(0.010850694444444444,0,0,0.010850694444444444,80.25173611111111,0)" xlink:href="#aC"/><use transform="matrix(0.010850694444444444,0,0,0.010850694444444444,92.44791666666666,0)" xlink:href="#ay"/><use transform="matrix(0.010850694444444444,0,0,0.010850694444444444,104.9262152777778,0)" xlink:href="#aE"/></g><path d="M338-670V0H158v-1490h180v566c73-149 190-208 336-208 226 0 379 139 379 422V0H872v-695c0-172-96-275-252-275-161 0-282 109-282 300" id="cu"/><g id="aq"><use transform="matrix(0.010850694444444444,0,0,0.010850694444444444,0,0)" xlink:href="#ct"/><use transform="matrix(0.010850694444444444,0,0,0.010850694444444444,14.344618055555555,0)" xlink:href="#cu"/><use transform="matrix(0.010850694444444444,0,0,0.010850694444444444,27.48480902777778,0)" xlink:href="#aw"/></g><path d="M481 0L54-1118h197c107 314 236 620 325 951 87-331 217-637 324-951h197L670 0H481" id="cv"/><g id="ar"><use transform="matrix(0.010850694444444444,0,0,0.010850694444444444,0,0)" xlink:href="#bd"/><use transform="matrix(0.010850694444444444,0,0,0.010850694444444444,20.07378472222222,0)" xlink:href="#aK"/><use transform="matrix(0.010850694444444444,0,0,0.010850694444444444,32.96440972222222,0)" xlink:href="#cv"/><use transform="matrix(0.010850694444444444,0,0,0.010850694444444444,45.45355902777778,0)" xlink:href="#aH"/><use transform="matrix(0.010850694444444444,0,0,0.010850694444444444,50.83550347222222,0)" xlink:href="#aw"/><use transform="matrix(0.010850694444444444,0,0,0.010850694444444444,63.791232638888886,0)" xlink:href="#aP"/></g></defs></g></svg>