<svg xmlns="http://www.w3.org/2000/svg" xmlns:xlink="http://www.w3.org/1999/xlink" xmlns:lucid="lucid" width="1560.22" height="983.23"><g transform="translate(30.77547737177474 -41.670951190554206)" lucid:page-tab-id="AWaHsC7qwwxe"><path d="M-500 0h2500v1500H-500z" fill="#fff"/><path d="M906.28 173.7v10.02m0 10.03v20.05m0 10.03v20.05m0 10.03v20.06m0 10.03v20.05m0 10.02v20.06m0 10.02v20.06m0 10.04v20.05m0 10.02v20.05m0 10.03v20.05m0 10.03v20.06m0 10.02v20.06m0 10.02v20.06m0 10.03v20.05m0 10.03v20.06m0 10.03v20.04m0 10.03v20.05m0 10.03v20.06m0 10.03v20.06m0 10v20.07m0 10.03v20.05m0 10.03v20.05m0 10.03v20.05m0 10.04v20.06m0 10.02v20.06m0 10.02v20.06m0 10.02v20.06m0 10.03v10.02a1.83 1.83 0 0 0 1.83 1.83M906.28 173.7v-3.5M908.1 987.73h.5M1220.24 168.12v10m0 10.02v20.02m0 10v20.03m0 10v20.03m0 10v20.03m0 10v20.03m0 10v20.02m0 10v20.03m0 10v20.03m0 10v20.03m0 10.02v20.02m0 10v20.03m0 10v20.03m0 10v20.03m0 10v20.04m0 10v20.03m0 10v20.03m0 10v20.03m0 10v20.03m0 10v20.02m0 10v20.03m0 10v20.03m0 10v20.03m0 10.02v20.02m0 10v20.03m0 10v20.04m0 10.02v20.02m0 10v10.02" stroke="#333" fill="none"/><path d="M1220.72 168.13h-.95v-.5h.95z" stroke="#333" stroke-width=".05" fill="#333"/><path d="M1220.24 978.94v3.52" stroke="#333" fill="none"/><g filter="url(#a)"><path d="M388.42 60.67a16 16 0 0 1 16-16h320a16 16 0 0 1 16 16v224a16 16 0 0 1-16 16h-320a16 16 0 0 1-16-16z" fill="#fff"/><path d="M412.42 100.67h48v48h-48z" fill="url(#b)"/><path d="M476.42 100.67h48v48h-48z" fill="url(#c)"/><path d="M540.42 100.67h48v48h-48z" fill="url(#d)"/><path d="M604.42 100.67h48v48h-48z" fill="url(#e)"/><use xlink:href="#f" transform="matrix(1,0,0,1,404.41728022448274,44.670951190554206) translate(0 31.595064621449232)"/><use xlink:href="#g" transform="matrix(1,0,0,1,404.41728022448274,44.670951190554206) translate(101.31646455223883 31.595064621449232)"/><use xlink:href="#h" transform="matrix(1,0,0,1,404.41728022448274,44.670951190554206) translate(184.79769123134332 31.595064621449232)"/></g><path d="M1176.95 952.9a8 8 0 0 1 8-8h70.58a8 8 0 0 1 8 8v64a8 8 0 0 1-8 8h-70.58a8 8 0 0 1-8-8z" fill="none"/><path d="M1185.6 952.9l69.27 64m0-64l-69.26 64" stroke="#5d646f" stroke-width="8" fill="none"/><path d="M1201.32 243.35a8 8 0 0 1 8-8h24a8 8 0 0 1 8 8V936.9a8 8 0 0 1-8 8h-24a8 8 0 0 1-8-8z" stroke="#6db1ff" stroke-width="2" fill="#ced4db"/><path d="M886.53 97.2a19.75 19.75 0 0 1 19.75-19.74 19.75 19.75 0 0 1 19.75 19.75 19.75 19.75 0 0 1-19.75 19.76 19.75 19.75 0 0 1-19.75-19.75" stroke="#333" fill="#fff"/><path d="M866.28 85.46a8 8 0 0 1 8-8h64a8 8 0 0 1 8 8v142a8 8 0 0 1-8 8h-64a8 8 0 0 1-8-8z" fill="none"/><path d="M906.28 116.96v55.3l40 63.2m-40-63.2l-40 63.2m0-98.75h80" stroke="#333" fill="none"/><use xlink:href="#i" transform="matrix(1,0,0,1,786.2792865964875,235.45851538806528) translate(98.88125 17.014322916666668)"/><path d="M909.1 321.3h4.87m4.85 0h9.7m4.86 0h9.7m4.86 0h9.7m4.86 0h9.7m4.86 0h9.7m4.86 0h9.7m4.86 0h9.7m4.86 0h9.7m4.86 0h9.7m4.86 0h9.67m4.8 0h9.6m4.82 0h9.6m4.8 0h9.62m4.8 0h9.6m4.8 0h9.62m4.8 0h9.62m4.8 0h9.6m4.8 0h9.62m4.8 0h4.8M909.13 321.3h-.52" stroke="#333" fill="none"/><path d="M1199.2 321.3l-14.27 4.62v-9.27z" stroke="#333" fill="#333"/><path d="M-24.27 51.62a6 6 0 0 1 6-6h340.7a6 6 0 0 1 6 6v171.85a6 6 0 0 1-6 6h-340.7a6 6 0 0 1-6-6z" stroke="#000" stroke-opacity="0" stroke-width="3" fill="#fff" filter="url(#j)"/><path d="M3.9 73.4h78.15l11.32.04 5.9.04 1.16.15" stroke="#cfe4ff" stroke-width="23.94" stroke-linejoin="bevel" fill="none"/><path d="M-9.23 55.53a6 6 0 0 1 6-6h252.2a6 6 0 0 1 6 6V94.7a6 6 0 0 1-6 6H-3.24a6 6 0 0 1-6-6z" fill="none"/><use xlink:href="#k" transform="matrix(1,0,0,1,2.772953929665846,61.53334137427419) translate(0 21.517903645833332)"/><use xlink:href="#l" transform="matrix(1,0,0,1,2.772953929665846,61.53334137427419) translate(106.27994791666669 21.517903645833332)"/><path d="M-9.23 83.46a6 6 0 0 1 6-6H293.9a6 6 0 0 1 6 6v140a6 6 0 0 1-6 6H-3.24a6 6 0 0 1-6-6z" fill="none"/><use xlink:href="#m" transform="matrix(1,0,0,1,2.772953929654477,89.45851538806528) translate(0 30.504947916666662)"/><use xlink:href="#n" transform="matrix(1,0,0,1,2.772953929654477,89.45851538806528) translate(56.64765625 30.504947916666662)"/><use xlink:href="#o" transform="matrix(1,0,0,1,2.772953929654477,89.45851538806528) translate(70.58151041666666 30.504947916666662)"/><use xlink:href="#p" transform="matrix(1,0,0,1,2.772953929654477,89.45851538806528) translate(151.98880208333333 30.504947916666662)"/><use xlink:href="#q" transform="matrix(1,0,0,1,2.772953929654477,89.45851538806528) translate(220.18072916666665 30.504947916666662)"/><use xlink:href="#r" transform="matrix(1,0,0,1,2.772953929654477,89.45851538806528) translate(0 50.50963541666667)"/><use xlink:href="#s" transform="matrix(1,0,0,1,2.772953929654477,89.45851538806528) translate(52.81302083333334 50.50963541666667)"/><use xlink:href="#t" transform="matrix(1,0,0,1,2.772953929654477,89.45851538806528) translate(82.28723958333335 50.50963541666667)"/><use xlink:href="#u" transform="matrix(1,0,0,1,2.772953929654477,89.45851538806528) translate(124.44401041666669 50.50963541666667)"/><use xlink:href="#n" transform="matrix(1,0,0,1,2.772953929654477,89.45851538806528) translate(150.86666666666667 50.50963541666667)"/><use xlink:href="#v" transform="matrix(1,0,0,1,2.772953929654477,89.45851538806528) translate(164.80052083333334 50.50963541666667)"/><use xlink:href="#w" transform="matrix(1,0,0,1,2.772953929654477,89.45851538806528) translate(0 70.51432291666667)"/><use xlink:href="#x" transform="matrix(1,0,0,1,2.772953929654477,89.45851538806528) translate(89.97265625000001 70.51432291666667)"/><use xlink:href="#y" transform="matrix(1,0,0,1,2.772953929654477,89.45851538806528) translate(163.58958333333334 70.51432291666667)"/><use xlink:href="#z" transform="matrix(1,0,0,1,2.772953929654477,89.45851538806528) translate(184.37734375 70.51432291666667)"/><use xlink:href="#A" transform="matrix(1,0,0,1,2.772953929654477,89.45851538806528) translate(0 90.51901041666666)"/><use xlink:href="#n" transform="matrix(1,0,0,1,2.772953929654477,89.45851538806528) translate(53.85442708333334 90.51901041666666)"/><use xlink:href="#B" transform="matrix(1,0,0,1,2.772953929654477,89.45851538806528) translate(67.78828125000001 90.51901041666666)"/><use xlink:href="#C" transform="matrix(1,0,0,1,2.772953929654477,89.45851538806528) translate(114.18333333333335 90.51901041666666)"/><use xlink:href="#D" transform="matrix(1,0,0,1,2.772953929654477,89.45851538806528) translate(172.9541666666667 90.51901041666666)"/><use xlink:href="#E" transform="matrix(1,0,0,1,2.772953929654477,89.45851538806528) translate(206.77968750000005 90.51901041666666)"/><use xlink:href="#F" transform="matrix(1,0,0,1,2.772953929654477,89.45851538806528) translate(0 110.52369791666668)"/><use xlink:href="#G" transform="matrix(1,0,0,1,2.772953929654477,89.45851538806528) translate(44.63515625 110.52369791666668)"/><use xlink:href="#H" transform="matrix(1,0,0,1,2.772953929654477,89.45851538806528) translate(63.057552083333334 110.52369791666668)"/><use xlink:href="#I" transform="matrix(1,0,0,1,2.772953929654477,89.45851538806528) translate(94.88906250000001 110.52369791666668)"/><use xlink:href="#J" transform="matrix(1,0,0,1,2.772953929654477,89.45851538806528) translate(133.08203125 110.52369791666668)"/><use xlink:href="#K" transform="matrix(1,0,0,1,2.772953929654477,89.45851538806528) translate(187.6953125 110.52369791666668)"/><g transform="matrix(1,0,0,1,2.772953929654477,89.45851538806528)"><a xlink:href="https://www.youtube.com/watch?v=CGRlAlmhaRA" target="_blank"><path class="lucid-link lucid-hotspot lucid-overlay-hotspot" fill-opacity="0" d="M67.8 74.5h46.4v20H67.8z"/></a><a xlink:href="https://www.youtube.com/watch?v=CGRlAlmhaRA" target="_blank"><path class="lucid-link lucid-hotspot lucid-overlay-hotspot" fill-opacity="0" d="M114.18 74.5h54.12v20h-54.12z"/></a><a xlink:href="https://lucidchart.zendesk.com/hc/en-us/articles/208029986-UML-Sequence-Markup" target="_blank"><path class="lucid-link lucid-hotspot lucid-overlay-hotspot" fill-opacity="0" d="M94.9 94.5h38.18v20h-38.2z"/></a><a xlink:href="https://lucidchart.zendesk.com/hc/en-us/articles/208029986-UML-Sequence-Markup" target="_blank"><path class="lucid-link lucid-hotspot lucid-overlay-hotspot" fill-opacity="0" d="M133.08 94.5h54.6v20h-54.6z"/></a><a xlink:href="https://lucidchart.zendesk.com/hc/en-us/articles/208029986-UML-Sequence-Markup" target="_blank"><path class="lucid-link lucid-hotspot lucid-overlay-hotspot" fill-opacity="0" d="M187.7 94.5h48.27v20H187.7z"/></a></g><path d="M277.08 63.2h31.5v24.37h-31.5z" fill="url(#L)"/><path d="M290.02 82.92h20.8v20.8h-20.8z" fill="url(#M)" transform="matrix(6.123233995736766e-17,1,-1,6.123233995736766e-17,393.7334054313036,-207.10364759128746)"/><path d="M1125.2 53.62a8 8 0 0 1 8-8h174.08a8 8 0 0 1 8 8v105a8 8 0 0 1-8 8H1133.2a8 8 0 0 1-8-8z" stroke="#ff80df" stroke-width="2" fill="#6db1ff"/><use xlink:href="#N" transform="matrix(1,0,0,1,1133.2046689907475,53.62148887980675) translate(58.50208333333333 58.51432291666667)"/><g filter="url(#O)"><path d="M566.94 486.84a9.4 9.4 0 0 1 9.4-9.4h135.9a9.4 9.4 0 0 1 9.4 9.4V515a9.4 9.4 0 0 1-9.4 9.4h-135.9a9.4 9.4 0 0 1-9.4-9.4z" stroke="#282c33" fill="#fff"/><path d="M574.76 494.66a9.4 9.4 0 0 1 9.4-9.4h12.5a9.4 9.4 0 0 1 9.4 9.4v12.52a9.4 9.4 0 0 1-9.4 9.4h-12.5a9.4 9.4 0 0 1-9.4-9.4z" fill="url(#P)"/><use xlink:href="#Q" transform="matrix(1,0,0,1,621.708618211274,479.0132359725507) translate(0 29.192233384385283)"/></g><g filter="url(#R)"><path d="M504.42 338.82a18.15 18.15 0 0 1 18.15-18.15h199.7a18.15 18.15 0 0 1 18.15 18.15v81.7a18.15 18.15 0 0 1-18.16 18.15h-199.7a18.15 18.15 0 0 1-18.14-18.15z" fill="#fff"/><path d="M522.57 347.9a9.08 9.08 0 0 1 9.08-9.07H713.2a9.08 9.08 0 0 1 9.06 9.07v27.23a9.08 9.08 0 0 1-9.07 9.08H531.64a9.08 9.08 0 0 1-9.08-9.07z" stroke="#282c33" fill="#fff"/><path d="M522.57 406.9a13.62 13.62 0 0 1 13.62-13.6h86.3a13.62 13.62 0 0 1 13.6 13.6 13.62 13.62 0 0 1-13.6 13.62h-86.3a13.62 13.62 0 0 1-13.63-13.62z" fill="#282c33" fill-opacity=".08"/><path d="M554.2 355.47a9.08 9.08 0 0 1 9.1-9.08h12.1a9.08 9.08 0 0 1 9.07 9.07v12.1a9.08 9.08 0 0 1-9.08 9.07h-12.1a9.08 9.08 0 0 1-9.1-9.07z" fill="url(#S)"/><path d="M531.65 406.9a9.08 9.08 0 0 1 9.08-9.07 9.08 9.08 0 0 1 9.07 9.07 9.08 9.08 0 0 1-9.07 9.08 9.08 9.08 0 0 1-9.08-9.08z" fill="url(#T)"/><use xlink:href="#U" transform="matrix(1,0,0,1,599.5957032012456,340.3376178572209) translate(0 28.503180088141026)"/><use xlink:href="#V" transform="matrix(1,0,0,1,558.8788186860212,400.0940281136311) translate(0 13.189903846153845)"/></g><path d="M967.02 332.18a6 6 0 0 1 6-6h146.18a6 6 0 0 1 6 6v2.5a6 6 0 0 1-6 6H973.02a6 6 0 0 1-6-6z" fill="none"/><g><use xlink:href="#W" transform="matrix(1,0,0,1,967.0208412747038,326.1795202383296) translate(20.615451388888886 17.22222222222222)"/><use xlink:href="#X" transform="matrix(1,0,0,1,967.0208412747038,326.1795202383296) translate(78.04600694444446 17.22222222222222)"/></g><path d="M909.6 419.3h4.87m4.85 0h9.7m4.86 0h9.7m4.86 0h9.7m4.86 0h9.7m4.86 0h9.7m4.86 0h9.7m4.86 0h9.7m4.86 0h9.7m4.86 0h9.7m4.86 0h9.67m4.8 0h9.6m4.82 0h9.6m4.8 0h9.62m4.8 0h9.6m4.8 0h9.62m4.8 0h9.62m4.8 0h9.6m4.8 0h9.62m4.8 0h4.8M909.63 419.3h-.52" stroke="#333" fill="none"/><path d="M1199.7 419.3l-14.27 4.62v-9.27z" stroke="#333" fill="#333"/><path d="M960.56 424.67a6 6 0 0 1 6-6H1134a6 6 0 0 1 6 6v8a6 6 0 0 1-6 6H966.55a6 6 0 0 1-6-6z" fill="none"/><g><use xlink:href="#Y" transform="matrix(1,0,0,1,960.5623099667745,418.6709511905542) translate(20.763888888888886 17.22222222222222)"/><use xlink:href="#Z" transform="matrix(1,0,0,1,960.5623099667745,418.6709511905542) translate(84.609375 17.22222222222222)"/><use xlink:href="#aa" transform="matrix(1,0,0,1,960.5623099667745,418.6709511905542) translate(139.00173611111111 17.22222222222222)"/><use xlink:href="#ab" transform="matrix(1,0,0,1,960.5623099667745,418.6709511905542) translate(70.47743055555556 43.034722222222214)"/></g><path d="M909.6 511.78h4.87m4.85 0h9.7m4.86 0h9.7m4.86 0h9.7m4.86 0h9.7m4.86 0h9.7m4.86 0h9.7m4.86 0h9.7m4.86 0h9.7m4.86 0h9.7m4.86 0h9.67m4.8 0h9.6m4.82 0h9.6m4.8 0h9.62m4.8 0h9.6m4.8 0h9.62m4.8 0h9.62m4.8 0h9.6m4.8 0h9.62m4.8 0h4.8M909.63 511.78h-.52" stroke="#333" fill="none"/><path d="M1199.7 511.78l-14.27 4.63v-9.26z" stroke="#333" fill="#333"/><path d="M960.56 517.16a6 6 0 0 1 6-6H1134a6 6 0 0 1 6 6v8a6 6 0 0 1-6 6H966.55a6 6 0 0 1-6-6z" fill="none"/><g><use xlink:href="#ac" transform="matrix(1,0,0,1,960.5623099667744,511.1623821427788) translate(33.116319444444436 17.22222222222222)"/><use xlink:href="#ad" transform="matrix(1,0,0,1,960.5623099667744,511.1623821427788) translate(111.328125 17.22222222222222)"/><use xlink:href="#ae" transform="matrix(1,0,0,1,960.5623099667744,511.1623821427788) translate(13.038194444444429 43.034722222222214)"/><use xlink:href="#af" transform="matrix(1,0,0,1,960.5623099667744,511.1623821427788) translate(91.86631944444444 43.034722222222214)"/><use xlink:href="#ag" transform="matrix(1,0,0,1,960.5623099667744,511.1623821427788) translate(118.42881944444444 43.034722222222214)"/></g><path d="M960.56 609.65a6 6 0 0 1 6-6H1134a6 6 0 0 1 6 6v8a6 6 0 0 1-6 6H966.55a6 6 0 0 1-6-6z" fill="none"/><g><use xlink:href="#ah" transform="matrix(1,0,0,1,960.5623099667744,603.6538130950034) translate(15.954861111111114 17.22222222222222)"/><use xlink:href="#ai" transform="matrix(1,0,0,1,960.5623099667744,603.6538130950034) translate(116.5625 17.22222222222222)"/><use xlink:href="#ab" transform="matrix(1,0,0,1,960.5623099667744,603.6538130950034) translate(70.47743055555556 43.034722222222214)"/></g><path d="M1201.32 346.67a6 6 0 0 1 6-6h228a6 6 0 0 1 6 6v48a6 6 0 0 1-6 6h-228a6 6 0 0 1-6-6z" fill="none"/><g><use xlink:href="#aj" transform="matrix(1,0,0,1,1201.315824593997,340.6709511905542) translate(45.959201388888886 23.560763888888893)"/><use xlink:href="#ak" transform="matrix(1,0,0,1,1201.315824593997,340.6709511905542) translate(69.00607638888889 23.560763888888893)"/><use xlink:href="#al" transform="matrix(1,0,0,1,1201.315824593997,340.6709511905542) translate(127.0703125 23.560763888888893)"/><use xlink:href="#am" transform="matrix(1,0,0,1,1201.315824593997,340.6709511905542) translate(48.2595486111111 49.37326388888889)"/><use xlink:href="#an" transform="matrix(1,0,0,1,1201.315824593997,340.6709511905542) translate(160.9765625 49.37326388888889)"/></g><path d="M1241.32 657.16a6 6 0 0 1 6-6h138.28a6 6 0 0 1 6 6v19.52a6 6 0 0 1-6 6h-138.28a6 6 0 0 1-6-6z" fill="none"/><g><use xlink:href="#ao" transform="matrix(1,0,0,1,1246.315824593997,656.1623821427788) translate(0.36545138888888573 17.46701388888889)"/><use xlink:href="#ap" transform="matrix(1,0,0,1,1246.315824593997,656.1623821427788) translate(27.066840277777775 17.46701388888889)"/><use xlink:href="#aq" transform="matrix(1,0,0,1,1246.315824593997,656.1623821427788) translate(98.61197916666667 17.46701388888889)"/></g><path d="M1241.32 697.16a6 6 0 0 1 6-6h276.12a6 6 0 0 1 6 6v19.52a6 6 0 0 1-6 6h-276.12a6 6 0 0 1-6-6z" fill="none"/><g><use xlink:href="#ar" transform="matrix(1,0,0,1,1246.315824593997,696.1623821427788) translate(0.44184027777777146 17.46701388888889)"/><use xlink:href="#as" transform="matrix(1,0,0,1,1246.315824593997,696.1623821427788) translate(32.2907986111111 17.46701388888889)"/><use xlink:href="#at" transform="matrix(1,0,0,1,1246.315824593997,696.1623821427788) translate(76.49218749999999 17.46701388888889)"/><use xlink:href="#au" transform="matrix(1,0,0,1,1246.315824593997,696.1623821427788) translate(101.72656249999999 17.46701388888889)"/><use xlink:href="#av" transform="matrix(1,0,0,1,1246.315824593997,696.1623821427788) translate(137.49045138888889 17.46701388888889)"/><use xlink:href="#aw" transform="matrix(1,0,0,1,1246.315824593997,696.1623821427788) translate(156.91753472222223 17.46701388888889)"/></g><path d="M1241.32 737.16a6 6 0 0 1 6-6h194.57a6 6 0 0 1 6 6v19.52a6 6 0 0 1-6 6H1247.3a6 6 0 0 1-6-6z" fill="none"/><g><use xlink:href="#ax" transform="matrix(1,0,0,1,1246.315824593997,736.1623821427788) translate(0.2187499999999858 17.46701388888889)"/><use xlink:href="#as" transform="matrix(1,0,0,1,1246.315824593997,736.1623821427788) translate(31.729166666666654 17.46701388888889)"/><use xlink:href="#ay" transform="matrix(1,0,0,1,1246.315824593997,736.1623821427788) translate(75.93055555555554 17.46701388888889)"/><use xlink:href="#av" transform="matrix(1,0,0,1,1246.315824593997,736.1623821427788) translate(162.16319444444446 17.46701388888889)"/><use xlink:href="#az" transform="matrix(1,0,0,1,1246.315824593997,736.1623821427788) translate(181.59027777777777 17.46701388888889)"/></g><path d="M922.66 837.32h4.84m4.84 0h9.68m4.84 0h9.67m4.84 0h9.68m4.84 0h9.66m4.84 0h9.68m4.83 0h9.7m4.83 0h9.68m4.84 0h9.68m4.84 0H1058.18m4.88 0h9.77m4.9 0h9.75m4.9 0h9.76m4.88 0h9.77m4.87 0h9.77m4.88 0h9.77m4.88 0h9.76m4.9 0h9.75m4.88 0h9.77m4.88 0h4.88" stroke="#333" fill="none"/><path d="M907.9 837.32l14.26-4.64v9.28z" stroke="#333" fill="#333"/><path d="M1200.32 837.8h-.52v-.95h.52z" stroke="#333" stroke-width=".05" fill="#333"/><path d="M972.84 843.32a6 6 0 0 1 6-6h167.43a6 6 0 0 1 6 6v8a6 6 0 0 1-6 6H978.84a6 6 0 0 1-6-6z" fill="none"/><g><use xlink:href="#aA" transform="matrix(1,0,0,1,972.841789691162,837.3193660939592) translate(25.724826388888886 17.22222222222222)"/><use xlink:href="#aB" transform="matrix(1,0,0,1,972.841789691162,837.3193660939592) translate(46.17621527777777 17.22222222222222)"/><use xlink:href="#aC" transform="matrix(1,0,0,1,972.841789691162,837.3193660939592) translate(113.53732638888889 17.22222222222222)"/><use xlink:href="#aD" transform="matrix(1,0,0,1,972.841789691162,837.3193660939592) translate(30 43.034722222222214)"/><use xlink:href="#aE" transform="matrix(1,0,0,1,972.841789691162,837.3193660939592) translate(115.99826388888889 43.034722222222214)"/></g><defs><image width="10" height="10" id="aF" xlink:href="https://images.lucid.app/images/99b5231b-8c40-4b81-9c49-e382be342e7a/content" preserveAspectRatio="none"/><pattern id="b" patternUnits="userSpaceOnUse" x="412.42" y="100.67" width="48" height="48"><use xlink:href="#aF" transform="translate(0, 0) scale(4.8,4.8)"/></pattern><image width="10" height="10" id="aG" xlink:href="https://images.lucid.app/images/98ea0833-5089-410b-8baf-79fa257459ab/content" preserveAspectRatio="none"/><pattern id="c" patternUnits="userSpaceOnUse" x="476.42" y="100.67" width="48" height="48"><use xlink:href="#aG" transform="translate(0, 0) scale(4.8,4.8)"/></pattern><image width="10" height="10" id="aH" xlink:href="https://images.lucid.app/images/5770e123-e7fa-44fe-a9e6-6ac407f7ac8e/content" preserveAspectRatio="none"/><pattern id="d" patternUnits="userSpaceOnUse" x="540.42" y="100.67" width="48" height="48"><use xlink:href="#aH" transform="translate(0, 0) scale(4.8,4.8)"/></pattern><image width="10" height="10" id="aI" xlink:href="https://images.lucid.app/images/34f2dd44-cb15-439d-bb1e-72ecfbfe290f/content" preserveAspectRatio="none"/><pattern id="e" patternUnits="userSpaceOnUse" x="604.42" y="100.67" width="48" height="48"><use xlink:href="#aI" transform="translate(0, 0) scale(4.8,4.8)"/></pattern><path d="M681 22C323 22 94-145 85-462h297c10 151 131 226 296 226 163 0 271-77 271-190 0-102-95-149-257-189l-164-41c-252-61-403-188-403-405 0-269 236-449 560-449 330 0 546 183 551 445H941c-11-119-106-188-259-188-156 0-244 72-244 172-3 156 226 185 373 221 250 61 445 186 445 436 0 271-213 446-575 446" id="aJ"/><path d="M633 22C291 22 81-200 81-553c0-345 210-579 537-579 292 0 525 185 525 567v84H378c7 183 109 277 260 277 105 0 184-46 216-132l272 51C1071-99 893 22 633 22zM380-669h474c-15-146-94-237-233-237-143 0-229 99-241 237" id="aK"/><path d="M1163 418H863v-597h-10C812-89 719 19 537 19 279 19 81-185 81-557c0-382 206-575 454-575 190 0 278 113 318 202h15v-188h295V418zM629-222c153 0 240-134 240-336 0-203-86-334-240-334-158 0-240 138-240 334 0 197 84 336 240 336" id="aL"/><path d="M513 14c-232 0-385-159-385-421v-711h300v659c0 139 76 222 202 222 127 0 217-86 217-234v-647h301V0H864l-4-232C797-74 683 14 513 14" id="aM"/><path d="M428-647V0H128v-1118h283l4 231c63-156 176-245 348-245 232 0 384 159 384 421V0H847v-659c0-139-76-222-202-222-128 0-217 86-217 234" id="aN"/><path d="M628 22C291 22 81-210 81-554c0-346 210-578 547-578 265 0 455 142 497 372l-279 52c-25-116-99-188-215-188-160 0-244 139-244 341 0 200 84 341 244 341 116 0 193-74 217-195l279 51C1085-123 896 22 628 22" id="aO"/><g id="f"><use transform="matrix(0.009619869402985076,0,0,0.009619869402985076,0,0)" xlink:href="#aJ"/><use transform="matrix(0.009619869402985076,0,0,0.009619869402985076,12.900244869402988,0)" xlink:href="#aK"/><use transform="matrix(0.009619869402985076,0,0,0.009619869402985076,24.636485541044784,0)" xlink:href="#aL"/><use transform="matrix(0.009619869402985076,0,0,0.009619869402985076,37.05573694029851,0)" xlink:href="#aM"/><use transform="matrix(0.009619869402985076,0,0,0.009619869402985076,49.32107042910448,0)" xlink:href="#aK"/><use transform="matrix(0.009619869402985076,0,0,0.009619869402985076,61.05731110074627,0)" xlink:href="#aN"/><use transform="matrix(0.009619869402985076,0,0,0.009619869402985076,73.32264458955224,0)" xlink:href="#aO"/><use transform="matrix(0.009619869402985076,0,0,0.009619869402985076,84.91458722014927,0)" xlink:href="#aK"/></g><path d="M537 19C279 19 81-185 81-557c0-382 206-575 454-575 190 0 278 113 318 202h10v-560h300V0H868v-179h-15C812-89 719 19 537 19zm92-241c153 0 240-134 240-336 0-203-86-334-240-334-158 0-240 138-240 334 0 197 84 336 240 336" id="aP"/><path d="M128 0v-1118h300V0H128zm150-1264c-91 0-165-68-165-154 0-85 74-154 165-154 90 0 165 69 165 154 0 86-75 154-165 154" id="aQ"/><path d="M440 22C227 22 68-92 68-313c0-250 202-322 422-343 195-21 271-24 271-105 0-95-63-149-175-149-116 0-187 57-211 129l-275-46c57-194 237-305 487-305 240 0 474 108 474 379V0H777v-155h-10C713-51 605 22 440 22zm85-211c140 0 238-93 238-211v-121c-37 26-156 42-222 51-111 16-185 59-185 149 0 87 70 132 169 132" id="aR"/><path d="M625 442c-280 0-454-114-503-274l258-72c28 63 97 128 243 128 153 0 246-69 246-216v-206h-23C805-108 717-16 536-16 284-16 81-191 81-561c0-378 208-571 456-571 188 0 280 113 321 202h13v-188h295V-9c0 303-226 451-541 451zm5-686c153 0 240-119 240-319 0-198-86-329-240-329-158 0-241 137-241 329 0 195 85 319 241 319" id="aS"/><path d="M128 0v-1118h290v195h12c54-169 184-238 367-200v268c-27-8-86-15-130-15-138 0-239 95-239 234V0H128" id="aT"/><path d="M128 0v-1118h278l12 217c60-163 185-234 319-234 143 0 236 81 288 251 63-172 205-251 359-251 205 0 357 138 357 381V0h-301v-697c0-126-76-187-177-187-114 0-184 79-184 196V0H789v-705c0-109-72-179-174-179-106 0-187 74-187 208V0H128" id="aU"/><g id="g"><use transform="matrix(0.009619869402985076,0,0,0.009619869402985076,0,0)" xlink:href="#aP"/><use transform="matrix(0.009619869402985076,0,0,0.009619869402985076,12.419251399253733,0)" xlink:href="#aQ"/><use transform="matrix(0.009619869402985076,0,0,0.009619869402985076,17.75827891791045,0)" xlink:href="#aR"/><use transform="matrix(0.009619869402985076,0,0,0.009619869402985076,29.196303638059703,0)" xlink:href="#aS"/><use transform="matrix(0.009619869402985076,0,0,0.009619869402985076,41.64441464552239,0)" xlink:href="#aT"/><use transform="matrix(0.009619869402985076,0,0,0.009619869402985076,49.398029384328375,0)" xlink:href="#aR"/><use transform="matrix(0.009619869402985076,0,0,0.009619869402985076,60.836054104477626,0)" xlink:href="#aU"/></g><path d="M572 22C302 22 117-98 78-306l279-48c29 105 101 156 224 156 114 0 185-48 185-115 0-118-228-130-337-155-215-49-322-150-322-317 0-215 187-347 470-347 265 0 424 116 466 298l-266 47c-24-76-87-130-196-130-98 0-174 46-174 113 0 56 38 95 144 117l201 40c216 44 320 143 320 302 0 220-207 367-500 367" id="aV"/><path d="M428-647V0H128v-1490h294v586c65-146 175-228 341-228 232 0 385 159 385 421V0H847v-659c0-139-76-222-202-222-128 0-217 86-217 234" id="aW"/><path d="M128 418v-1536h295v188h14c41-89 129-202 319-202 248 0 453 193 453 575 0 372-197 576-455 576-183 0-275-108-317-198h-9v597H128zm534-640c156 0 240-139 240-336 0-196-83-334-240-334-154 0-241 131-241 334 0 202 88 336 241 336" id="aX"/><g id="h"><use transform="matrix(0.009619869402985076,0,0,0.009619869402985076,0,0)" xlink:href="#aV"/><use transform="matrix(0.009619869402985076,0,0,0.009619869402985076,11.033990205223883,0)" xlink:href="#aW"/><use transform="matrix(0.009619869402985076,0,0,0.009619869402985076,23.29932369402986,0)" xlink:href="#aR"/><use transform="matrix(0.009619869402985076,0,0,0.009619869402985076,34.73734841417911,0)" xlink:href="#aX"/><use transform="matrix(0.009619869402985076,0,0,0.009619869402985076,47.15659981343284,0)" xlink:href="#aK"/><use transform="matrix(0.009619869402985076,0,0,0.009619869402985076,58.89284048507463,0)" xlink:href="#aV"/></g><filter id="a" filterUnits="objectBoundingBox" x="-.01" y="-.02" width="1.03" height="1.04"><feOffset result="offOut" in="SourceAlpha" dy="1"/><feGaussianBlur result="blurOut" in="offOut" stdDeviation="2.5"/><feColorMatrix result="colorOut" in="blurOut" values="0 0 0 0 0 0 0 0 0 0 0 0 0 0 0 0 0 0 0.14901960784313725 0"/><feBlend in="SourceGraphic" in2="colorOut"/></filter><path d="M52 0l541-1490h220L1361 0h-200l-149-416H398L254 0H52zm404-582h497c-103-290-145-390-251-756-108 377-145 460-246 756" id="aY"/><path d="M613 24c-304 0-509-231-509-576 0-350 205-580 509-580 216 0 392 114 453 309l-173 49c-33-115-133-197-280-197-223 0-326 196-326 419 0 220 103 415 326 415 150 0 252-85 285-206l172 49C1010-95 832 24 613 24" id="aZ"/><path d="M598-1118v154H368v674c0 100 37 144 132 144 23 0 62-6 92-12L629-6c-37 13-88 20-134 20-193 0-307-107-307-290v-688H20v-154h168v-266h180v266h230" id="ba"/><path d="M613 24c-304 0-509-231-509-576 0-350 205-580 509-580 305 0 511 230 511 580 0 345-206 576-511 576zm0-161c226 0 329-195 329-415 0-222-103-419-329-419-223 0-326 196-326 419 0 220 103 415 326 415" id="bb"/><path d="M158 0v-1118h174v172h12c41-113 157-188 290-188 26 0 70 2 91 3v181c-11-2-60-10-108-10-161 0-279 109-279 260V0H158" id="bc"/><g id="i"><use transform="matrix(0.008072916666666667,0,0,0.008072916666666667,0,0)" xlink:href="#aY"/><use transform="matrix(0.008072916666666667,0,0,0.008072916666666667,11.407031250000001,0)" xlink:href="#aZ"/><use transform="matrix(0.008072916666666667,0,0,0.008072916666666667,20.852343750000003,0)" xlink:href="#ba"/><use transform="matrix(0.008072916666666667,0,0,0.008072916666666667,26.09973958333334,0)" xlink:href="#bb"/><use transform="matrix(0.008072916666666667,0,0,0.008072916666666667,36.013281250000006,0)" xlink:href="#bc"/></g><filter id="j" filterUnits="objectBoundingBox" x="-.03" y="-.02" width="1.06" height="1.11"><feOffset result="offOut" in="SourceAlpha" dy="6"/><feGaussianBlur result="blurOut" in="offOut" stdDeviation="5"/><feColorMatrix result="colorOut" in="blurOut" values="0 0 0 0 0 0 0 0 0 0 0 0 0 0 0 0 0 0 0.5019607843137255 0"/><feBlend in="SourceGraphic" in2="colorOut"/></filter><path fill="#333" d="M681 22C323 22 94-145 85-462h297c10 151 131 226 296 226 163 0 271-77 271-190 0-102-95-149-257-189l-164-41c-252-61-403-188-403-405 0-269 236-449 560-449 330 0 546 183 551 445H941c-11-119-106-188-259-188-156 0-244 72-244 172-3 156 226 185 373 221 250 61 445 186 445 436 0 271-213 446-575 446" id="bd"/><path fill="#333" d="M633 22C291 22 81-200 81-553c0-345 210-579 537-579 292 0 525 185 525 567v84H378c7 183 109 277 260 277 105 0 184-46 216-132l272 51C1071-99 893 22 633 22zM380-669h474c-15-146-94-237-233-237-143 0-229 99-241 237" id="be"/><path fill="#333" d="M1163 418H863v-597h-10C812-89 719 19 537 19 279 19 81-185 81-557c0-382 206-575 454-575 190 0 278 113 318 202h15v-188h295V418zM629-222c153 0 240-134 240-336 0-203-86-334-240-334-158 0-240 138-240 334 0 197 84 336 240 336" id="bf"/><path fill="#333" d="M513 14c-232 0-385-159-385-421v-711h300v659c0 139 76 222 202 222 127 0 217-86 217-234v-647h301V0H864l-4-232C797-74 683 14 513 14" id="bg"/><path fill="#333" d="M428-647V0H128v-1118h283l4 231c63-156 176-245 348-245 232 0 384 159 384 421V0H847v-659c0-139-76-222-202-222-128 0-217 86-217 234" id="bh"/><path fill="#333" d="M628 22C291 22 81-210 81-554c0-346 210-578 547-578 265 0 455 142 497 372l-279 52c-25-116-99-188-215-188-160 0-244 139-244 341 0 200 84 341 244 341 116 0 193-74 217-195l279 51C1085-123 896 22 628 22" id="bi"/><g id="k"><use transform="matrix(0.010091145833333332,0,0,0.010091145833333332,0,0)" xlink:href="#bd"/><use transform="matrix(0.010091145833333332,0,0,0.010091145833333332,13.532226562499998,0)" xlink:href="#be"/><use transform="matrix(0.010091145833333332,0,0,0.010091145833333332,25.843424479166664,0)" xlink:href="#bf"/><use transform="matrix(0.010091145833333332,0,0,0.010091145833333332,38.87109375,0)" xlink:href="#bg"/><use transform="matrix(0.010091145833333332,0,0,0.010091145833333332,51.7373046875,0)" xlink:href="#be"/><use transform="matrix(0.010091145833333332,0,0,0.010091145833333332,64.04850260416667,0)" xlink:href="#bh"/><use transform="matrix(0.010091145833333332,0,0,0.010091145833333332,76.91471354166667,0)" xlink:href="#bi"/><use transform="matrix(0.010091145833333332,0,0,0.010091145833333332,89.07454427083334,0)" xlink:href="#be"/></g><path fill="#333" d="M537 19C279 19 81-185 81-557c0-382 206-575 454-575 190 0 278 113 318 202h10v-560h300V0H868v-179h-15C812-89 719 19 537 19zm92-241c153 0 240-134 240-336 0-203-86-334-240-334-158 0-240 138-240 334 0 197 84 336 240 336" id="bj"/><path fill="#333" d="M128 0v-1118h300V0H128zm150-1264c-91 0-165-68-165-154 0-85 74-154 165-154 90 0 165 69 165 154 0 86-75 154-165 154" id="bk"/><path fill="#333" d="M440 22C227 22 68-92 68-313c0-250 202-322 422-343 195-21 271-24 271-105 0-95-63-149-175-149-116 0-187 57-211 129l-275-46c57-194 237-305 487-305 240 0 474 108 474 379V0H777v-155h-10C713-51 605 22 440 22zm85-211c140 0 238-93 238-211v-121c-37 26-156 42-222 51-111 16-185 59-185 149 0 87 70 132 169 132" id="bl"/><path fill="#333" d="M625 442c-280 0-454-114-503-274l258-72c28 63 97 128 243 128 153 0 246-69 246-216v-206h-23C805-108 717-16 536-16 284-16 81-191 81-561c0-378 208-571 456-571 188 0 280 113 321 202h13v-188h295V-9c0 303-226 451-541 451zm5-686c153 0 240-119 240-319 0-198-86-329-240-329-158 0-241 137-241 329 0 195 85 319 241 319" id="bm"/><path fill="#333" d="M128 0v-1118h290v195h12c54-169 184-238 367-200v268c-27-8-86-15-130-15-138 0-239 95-239 234V0H128" id="bn"/><path fill="#333" d="M128 0v-1118h278l12 217c60-163 185-234 319-234 143 0 236 81 288 251 63-172 205-251 359-251 205 0 357 138 357 381V0h-301v-697c0-126-76-187-177-187-114 0-184 79-184 196V0H789v-705c0-109-72-179-174-179-106 0-187 74-187 208V0H128" id="bo"/><path fill="#333" d="M572 22C302 22 117-98 78-306l279-48c29 105 101 156 224 156 114 0 185-48 185-115 0-118-228-130-337-155-215-49-322-150-322-317 0-215 187-347 470-347 265 0 424 116 466 298l-266 47c-24-76-87-130-196-130-98 0-174 46-174 113 0 56 38 95 144 117l201 40c216 44 320 143 320 302 0 220-207 367-500 367" id="bp"/><g id="l"><use transform="matrix(0.010091145833333332,0,0,0.010091145833333332,0,0)" xlink:href="#bj"/><use transform="matrix(0.010091145833333332,0,0,0.010091145833333332,13.027669270833332,0)" xlink:href="#bk"/><use transform="matrix(0.010091145833333332,0,0,0.010091145833333332,18.628255208333332,0)" xlink:href="#bl"/><use transform="matrix(0.010091145833333332,0,0,0.010091145833333332,30.626627604166664,0)" xlink:href="#bm"/><use transform="matrix(0.010091145833333332,0,0,0.010091145833333332,43.68457031250001,0)" xlink:href="#bn"/><use transform="matrix(0.010091145833333332,0,0,0.010091145833333332,51.81803385416666,0)" xlink:href="#bl"/><use transform="matrix(0.010091145833333332,0,0,0.010091145833333332,63.81640625,0)" xlink:href="#bo"/><use transform="matrix(0.010091145833333332,0,0,0.010091145833333332,82.67675781250001,0)" xlink:href="#bp"/></g><path fill="#333" d="M783 20c-382 0-661-292-661-764 0-473 279-766 661-766 302 0 548 182 601 489h-190c-42-204-217-313-411-313-268 0-476 208-476 590 0 381 209 588 476 588 195 0 369-110 411-313h190c-52 303-296 489-601 489" id="bq"/><path fill="#333" d="M158 0v-1118h174v172h12c41-113 157-188 290-188 26 0 70 2 91 3v181c-11-2-60-10-108-10-161 0-279 109-279 260V0H158" id="br"/><path fill="#333" d="M628 24c-324 0-524-230-524-574 0-343 198-582 503-582 237 0 487 146 487 559v75H286c9 234 145 362 343 362 132 0 231-58 273-172l174 48C1024-91 857 24 628 24zM287-650h624c-17-190-120-322-304-322-192 0-309 151-320 322" id="bs"/><path fill="#333" d="M471 26C259 26 90-98 90-318c0-256 228-303 435-329 202-27 287-16 287-108 0-139-79-219-234-219-161 0-248 86-283 164l-173-57c86-203 278-265 451-265 150 0 419 46 419 395V0H815v-152h-12C765-73 660 26 471 26zm31-159c199 0 310-134 310-271v-155c-30 35-226 55-295 64-131 17-246 59-246 186 0 116 97 176 231 176" id="bt"/><path fill="#333" d="M598-1118v154H368v674c0 100 37 144 132 144 23 0 62-6 92-12L629-6c-37 13-88 20-134 20-193 0-307-107-307-290v-688H20v-154h168v-266h180v266h230" id="bu"/><g id="m"><use transform="matrix(0.008072916666666667,0,0,0.008072916666666667,0,0)" xlink:href="#bq"/><use transform="matrix(0.008072916666666667,0,0,0.008072916666666667,12.077083333333334,0)" xlink:href="#br"/><use transform="matrix(0.008072916666666667,0,0,0.008072916666666667,18.026822916666667,0)" xlink:href="#bs"/><use transform="matrix(0.008072916666666667,0,0,0.008072916666666667,27.82734375,0)" xlink:href="#bt"/><use transform="matrix(0.008072916666666667,0,0,0.008072916666666667,37.11119791666667,0)" xlink:href="#bu"/><use transform="matrix(0.008072916666666667,0,0,0.008072916666666667,42.35859375,0)" xlink:href="#bs"/></g><use transform="matrix(0.008072916666666667,0,0,0.008072916666666667,0,0)" xlink:href="#bt" id="n"/><path fill="#333" d="M538 24C308 24 148-78 108-271l171-41c32 123 123 178 257 178 156 0 256-77 256-169 0-77-54-128-164-154l-186-44c-203-48-300-148-300-305 0-192 176-326 414-326 230 0 351 112 402 269l-163 42c-31-80-94-158-238-158-133 0-233 69-233 162 0 83 57 129 188 160l169 40c203 48 298 149 298 302 0 196-179 339-441 339" id="bv"/><path fill="#333" d="M1096 418H916v-591h-14C865-111 790 24 577 24c-279 0-473-224-473-580 0-354 195-576 474-576 218 0 287 134 324 193h20v-179h174V418zM604-137c203 0 314-172 314-421 0-247-108-413-314-413-212 0-317 181-317 413 0 235 108 421 317 421" id="bw"/><path fill="#333" d="M537 14c-226 0-379-139-379-422v-710h180v695c0 172 97 275 253 275 160 0 281-109 281-300v-670h181V0H879v-209C806-46 684 14 537 14" id="bx"/><path fill="#333" d="M338-670V0H158v-1118h173l1 207c72-158 192-221 342-221 226 0 378 139 378 422V0H872v-695c0-172-96-275-252-275-161 0-282 109-282 300" id="by"/><path fill="#333" d="M613 24c-304 0-509-231-509-576 0-350 205-580 509-580 216 0 392 114 453 309l-173 49c-33-115-133-197-280-197-223 0-326 196-326 419 0 220 103 415 326 415 150 0 252-85 285-206l172 49C1010-95 832 24 613 24" id="bz"/><g id="o"><use transform="matrix(0.008072916666666667,0,0,0.008072916666666667,0,0)" xlink:href="#bv"/><use transform="matrix(0.008072916666666667,0,0,0.008072916666666667,8.726822916666668,0)" xlink:href="#bs"/><use transform="matrix(0.008072916666666667,0,0,0.008072916666666667,18.36588541666667,0)" xlink:href="#bw"/><use transform="matrix(0.008072916666666667,0,0,0.008072916666666667,28.489322916666673,0)" xlink:href="#bx"/><use transform="matrix(0.008072916666666667,0,0,0.008072916666666667,38.26562500000001,0)" xlink:href="#bs"/><use transform="matrix(0.008072916666666667,0,0,0.008072916666666667,47.904687500000016,0)" xlink:href="#by"/><use transform="matrix(0.008072916666666667,0,0,0.008072916666666667,57.67291666666668,0)" xlink:href="#bz"/><use transform="matrix(0.008072916666666667,0,0,0.008072916666666667,67.11822916666668,0)" xlink:href="#bs"/></g><path fill="#333" d="M577 24c-279 0-473-224-473-580 0-354 195-576 474-576 218 0 287 134 324 193h14v-551h180V0H922v-173h-20C865-111 790 24 577 24zm27-161c203 0 314-172 314-421 0-247-108-413-314-413-212 0-317 181-317 413 0 235 108 421 317 421" id="bA"/><path fill="#333" d="M158 0v-1118h180V0H158zm91-1301c-68 0-125-53-125-119s57-119 125-119c69 0 126 53 126 119s-57 119-126 119" id="bB"/><path fill="#333" d="M611 442c-248 0-391-105-460-228l146-94c47 65 117 165 314 165 178 0 307-82 307-266v-224h-17C863-141 792-18 576-18c-268 0-472-195-472-546 0-346 197-568 476-568 216 0 288 133 326 193h17v-179h175V29c0 289-215 413-487 413zm-5-620c203 0 314-146 314-390 0-237-108-403-314-403-213 0-319 180-319 403 0 230 109 390 319 390" id="bC"/><path fill="#333" d="M158 0v-1118h175l1 205c55-151 181-225 313-225 147 0 245 90 285 228 53-141 190-228 352-228 194 0 352 125 352 384V0h-181v-749c0-161-105-225-225-225-151 0-243 103-243 244V0H807v-767c0-124-93-207-219-207-131 0-250 92-250 270V0H158" id="bD"/><g id="p"><use transform="matrix(0.008072916666666667,0,0,0.008072916666666667,0,0)" xlink:href="#bA"/><use transform="matrix(0.008072916666666667,0,0,0.008072916666666667,10.123437500000001,0)" xlink:href="#bB"/><use transform="matrix(0.008072916666666667,0,0,0.008072916666666667,14.127604166666668,0)" xlink:href="#bt"/><use transform="matrix(0.008072916666666667,0,0,0.008072916666666667,23.411458333333336,0)" xlink:href="#bC"/><use transform="matrix(0.008072916666666667,0,0,0.008072916666666667,33.55104166666667,0)" xlink:href="#br"/><use transform="matrix(0.008072916666666667,0,0,0.008072916666666667,39.77526041666667,0)" xlink:href="#bt"/><use transform="matrix(0.008072916666666667,0,0,0.008072916666666667,49.05911458333334,0)" xlink:href="#bD"/></g><path fill="#333" d="M613 24c-304 0-509-231-509-576 0-350 205-580 509-580 305 0 511 230 511 580 0 345-206 576-511 576zm0-161c226 0 329-195 329-415 0-222-103-419-329-419-223 0-326 196-326 419 0 220 103 415 326 415" id="bE"/><g id="q"><use transform="matrix(0.008072916666666667,0,0,0.008072916666666667,0,0)" xlink:href="#bu"/><use transform="matrix(0.008072916666666667,0,0,0.008072916666666667,5.247395833333334,0)" xlink:href="#bE"/></g><path fill="#333" d="M338-1490V0H158v-1490h180" id="bF"/><g id="r"><use transform="matrix(0.008072916666666667,0,0,0.008072916666666667,0,0)" xlink:href="#bD"/><use transform="matrix(0.008072916666666667,0,0,0.008072916666666667,14.482812500000001,0)" xlink:href="#bE"/><use transform="matrix(0.008072916666666667,0,0,0.008072916666666667,24.39635416666667,0)" xlink:href="#bA"/><use transform="matrix(0.008072916666666667,0,0,0.008072916666666667,34.51979166666667,0)" xlink:href="#bs"/><use transform="matrix(0.008072916666666667,0,0,0.008072916666666667,44.15885416666667,0)" xlink:href="#bF"/></g><path fill="#333" d="M338-670V0H158v-1490h180v566c73-149 190-208 336-208 226 0 379 139 379 422V0H872v-695c0-172-96-275-252-275-161 0-282 109-282 300" id="bG"/><g id="s"><use transform="matrix(0.008072916666666667,0,0,0.008072916666666667,0,0)" xlink:href="#bu"/><use transform="matrix(0.008072916666666667,0,0,0.008072916666666667,5.408854166666667,0)" xlink:href="#bG"/><use transform="matrix(0.008072916666666667,0,0,0.008072916666666667,15.185156250000002,0)" xlink:href="#bs"/></g><g id="t"><use transform="matrix(0.008072916666666667,0,0,0.008072916666666667,0,0)" xlink:href="#bF"/><use transform="matrix(0.008072916666666667,0,0,0.008072916666666667,4.004166666666667,0)" xlink:href="#bE"/><use transform="matrix(0.008072916666666667,0,0,0.008072916666666667,13.917708333333334,0)" xlink:href="#bC"/><use transform="matrix(0.008072916666666667,0,0,0.008072916666666667,24.057291666666668,0)" xlink:href="#bB"/><use transform="matrix(0.008072916666666667,0,0,0.008072916666666667,28.06145833333333,0)" xlink:href="#bz"/></g><path fill="#333" d="M678-1118v154H420V0H240v-964H20v-154h220v-149c0-194 155-293 318-293 85 0 141 18 168 30l-50 154c-19-6-47-17-97-17-111 0-159 58-159 166v109h258" id="bH"/><g id="u"><use transform="matrix(0.008072916666666667,0,0,0.008072916666666667,0,0)" xlink:href="#bH"/><use transform="matrix(0.008072916666666667,0,0,0.008072916666666667,5.634895833333334,0)" xlink:href="#bE"/><use transform="matrix(0.008072916666666667,0,0,0.008072916666666667,15.548437500000002,0)" xlink:href="#br"/></g><path fill="#333" d="M158 418v-1536h174v179h20c37-59 106-193 324-193 279 0 474 222 474 576 0 356-194 580-473 580-213 0-288-135-325-197h-14v591H158zm492-555c209 0 317-186 317-421 0-232-105-413-317-413-206 0-314 166-314 413 0 249 111 421 314 421" id="bI"/><g id="v"><use transform="matrix(0.008072916666666667,0,0,0.008072916666666667,0,0)" xlink:href="#bv"/><use transform="matrix(0.008072916666666667,0,0,0.008072916666666667,8.726822916666668,0)" xlink:href="#bE"/><use transform="matrix(0.008072916666666667,0,0,0.008072916666666667,18.640364583333337,0)" xlink:href="#bI"/><use transform="matrix(0.008072916666666667,0,0,0.008072916666666667,28.76380208333334,0)" xlink:href="#bG"/><use transform="matrix(0.008072916666666667,0,0,0.008072916666666667,38.54010416666667,0)" xlink:href="#bB"/><use transform="matrix(0.008072916666666667,0,0,0.008072916666666667,42.54427083333334,0)" xlink:href="#bv"/><use transform="matrix(0.008072916666666667,0,0,0.008072916666666667,51.27109375000001,0)" xlink:href="#bu"/><use transform="matrix(0.008072916666666667,0,0,0.008072916666666667,56.67994791666668,0)" xlink:href="#bB"/><use transform="matrix(0.008072916666666667,0,0,0.008072916666666667,60.68411458333335,0)" xlink:href="#bz"/><use transform="matrix(0.008072916666666667,0,0,0.008072916666666667,70.29088541666668,0)" xlink:href="#bt"/><use transform="matrix(0.008072916666666667,0,0,0.008072916666666667,79.57473958333335,0)" xlink:href="#bu"/><use transform="matrix(0.008072916666666667,0,0,0.008072916666666667,84.82213541666668,0)" xlink:href="#bs"/><use transform="matrix(0.008072916666666667,0,0,0.008072916666666667,94.46119791666669,0)" xlink:href="#bA"/></g><path fill="#333" d="M128 359l88-567h206L266 359H128" id="bJ"/><g id="w"><use transform="matrix(0.008072916666666667,0,0,0.008072916666666667,0,0)" xlink:href="#bI"/><use transform="matrix(0.008072916666666667,0,0,0.008072916666666667,10.123437500000001,0)" xlink:href="#br"/><use transform="matrix(0.008072916666666667,0,0,0.008072916666666667,16.073177083333334,0)" xlink:href="#bE"/><use transform="matrix(0.008072916666666667,0,0,0.008072916666666667,25.98671875,0)" xlink:href="#bz"/><use transform="matrix(0.008072916666666667,0,0,0.008072916666666667,35.43203125,0)" xlink:href="#bs"/><use transform="matrix(0.008072916666666667,0,0,0.008072916666666667,45.07109375,0)" xlink:href="#bA"/><use transform="matrix(0.008072916666666667,0,0,0.008072916666666667,55.194531250000004,0)" xlink:href="#bx"/><use transform="matrix(0.008072916666666667,0,0,0.008072916666666667,64.97083333333333,0)" xlink:href="#br"/><use transform="matrix(0.008072916666666667,0,0,0.008072916666666667,70.92057291666667,0)" xlink:href="#bs"/><use transform="matrix(0.008072916666666667,0,0,0.008072916666666667,80.55963541666668,0)" xlink:href="#bJ"/></g><g id="x"><use transform="matrix(0.008072916666666667,0,0,0.008072916666666667,0,0)" xlink:href="#bH"/><use transform="matrix(0.008072916666666667,0,0,0.008072916666666667,6.119270833333334,0)" xlink:href="#bx"/><use transform="matrix(0.008072916666666667,0,0,0.008072916666666667,15.89557291666667,0)" xlink:href="#by"/><use transform="matrix(0.008072916666666667,0,0,0.008072916666666667,25.663802083333337,0)" xlink:href="#bz"/><use transform="matrix(0.008072916666666667,0,0,0.008072916666666667,35.10911458333334,0)" xlink:href="#bu"/><use transform="matrix(0.008072916666666667,0,0,0.008072916666666667,40.51796875,0)" xlink:href="#bB"/><use transform="matrix(0.008072916666666667,0,0,0.008072916666666667,44.52213541666667,0)" xlink:href="#bE"/><use transform="matrix(0.008072916666666667,0,0,0.008072916666666667,54.43567708333334,0)" xlink:href="#by"/><use transform="matrix(0.008072916666666667,0,0,0.008072916666666667,64.20390625,0)" xlink:href="#bJ"/></g><g id="y"><use transform="matrix(0.008072916666666667,0,0,0.008072916666666667,0,0)" xlink:href="#bE"/><use transform="matrix(0.008072916666666667,0,0,0.008072916666666667,9.913541666666667,0)" xlink:href="#br"/></g><path fill="#333" d="M295 13c-75 0-135-60-135-135s60-135 135-135 135 60 135 135S370 13 295 13" id="bK"/><g id="z"><use transform="matrix(0.008072916666666667,0,0,0.008072916666666667,0,0)" xlink:href="#bE"/><use transform="matrix(0.008072916666666667,0,0,0.008072916666666667,9.913541666666667,0)" xlink:href="#bI"/><use transform="matrix(0.008072916666666667,0,0,0.008072916666666667,20.03697916666667,0)" xlink:href="#bs"/><use transform="matrix(0.008072916666666667,0,0,0.008072916666666667,29.67604166666667,0)" xlink:href="#br"/><use transform="matrix(0.008072916666666667,0,0,0.008072916666666667,35.90026041666667,0)" xlink:href="#bt"/><use transform="matrix(0.008072916666666667,0,0,0.008072916666666667,45.18411458333334,0)" xlink:href="#bu"/><use transform="matrix(0.008072916666666667,0,0,0.008072916666666667,50.592968750000004,0)" xlink:href="#bB"/><use transform="matrix(0.008072916666666667,0,0,0.008072916666666667,54.597135416666674,0)" xlink:href="#bE"/><use transform="matrix(0.008072916666666667,0,0,0.008072916666666667,64.51067708333335,0)" xlink:href="#by"/><use transform="matrix(0.008072916666666667,0,0,0.008072916666666667,74.27890625000002,0)" xlink:href="#bK"/></g><path fill="#333" d="M458 0L52-1490h194c108 439 233 855 324 1313 92-459 221-873 331-1313h216c110 438 234 854 330 1307 92-455 216-869 323-1307h196L1558 0h-221l-256-944c-26-95-50-200-73-331-22 122-44 223-73 331L680 0H458" id="bL"/><g id="A"><use transform="matrix(0.008072916666666667,0,0,0.008072916666666667,0,0)" xlink:href="#bL"/><use transform="matrix(0.008072916666666667,0,0,0.008072916666666667,15.451562500000001,0)" xlink:href="#bt"/><use transform="matrix(0.008072916666666667,0,0,0.008072916666666667,24.73541666666667,0)" xlink:href="#bu"/><use transform="matrix(0.008072916666666667,0,0,0.008072916666666667,29.982812500000005,0)" xlink:href="#bz"/><use transform="matrix(0.008072916666666667,0,0,0.008072916666666667,39.42812500000001,0)" xlink:href="#bG"/></g><path fill="#333" d="M677 24c-213 0-288-135-325-197h-20V0H158v-1490h180v551h14c37-59 106-193 324-193 279 0 474 222 474 576 0 356-194 580-473 580zm-27-161c209 0 317-186 317-421 0-232-105-413-317-413-206 0-314 166-314 413 0 249 111 421 314 421" id="bM"/><g id="B"><use transform="matrix(0.008072916666666667,0,0,0.008072916666666667,0,0)" xlink:href="#bM"/><use transform="matrix(0.008072916666666667,0,0,0.008072916666666667,10.284895833333335,0)" xlink:href="#bt"/><use transform="matrix(0.008072916666666667,0,0,0.008072916666666667,19.56875,0)" xlink:href="#bv"/><use transform="matrix(0.008072916666666667,0,0,0.008072916666666667,28.29557291666667,0)" xlink:href="#bB"/><use transform="matrix(0.008072916666666667,0,0,0.008072916666666667,32.29973958333334,0)" xlink:href="#bz"/><path fill="#8080ff" d="M-.83 3.37h48.05V4.5H-.83z"/></g><g id="C"><use transform="matrix(0.008072916666666667,0,0,0.008072916666666667,0,0)" xlink:href="#bu"/><use transform="matrix(0.008072916666666667,0,0,0.008072916666666667,5.408854166666667,0)" xlink:href="#bx"/><use transform="matrix(0.008072916666666667,0,0,0.008072916666666667,15.185156250000002,0)" xlink:href="#bu"/><use transform="matrix(0.008072916666666667,0,0,0.008072916666666667,20.432552083333334,0)" xlink:href="#bE"/><use transform="matrix(0.008072916666666667,0,0,0.008072916666666667,30.34609375,0)" xlink:href="#br"/><use transform="matrix(0.008072916666666667,0,0,0.008072916666666667,36.82864583333333,0)" xlink:href="#bB"/><use transform="matrix(0.008072916666666667,0,0,0.008072916666666667,40.8328125,0)" xlink:href="#bt"/><use transform="matrix(0.008072916666666667,0,0,0.008072916666666667,50.116666666666674,0)" xlink:href="#bF"/><path fill="#8080ff" d="M-.83 3.37h55.77V4.5H-.83z"/></g><g id="D"><use transform="matrix(0.008072916666666667,0,0,0.008072916666666667,0,0)" xlink:href="#bt"/><use transform="matrix(0.008072916666666667,0,0,0.008072916666666667,9.283854166666668,0)" xlink:href="#by"/><use transform="matrix(0.008072916666666667,0,0,0.008072916666666667,19.052083333333336,0)" xlink:href="#bA"/></g><g id="E"><use transform="matrix(0.008072916666666667,0,0,0.008072916666666667,0,0)" xlink:href="#br"/><use transform="matrix(0.008072916666666667,0,0,0.008072916666666667,5.949739583333334,0)" xlink:href="#bs"/><use transform="matrix(0.008072916666666667,0,0,0.008072916666666667,15.750260416666668,0)" xlink:href="#bt"/><use transform="matrix(0.008072916666666667,0,0,0.008072916666666667,25.034114583333334,0)" xlink:href="#bA"/></g><g id="F"><use transform="matrix(0.008072916666666667,0,0,0.008072916666666667,0,0)" xlink:href="#bD"/><use transform="matrix(0.008072916666666667,0,0,0.008072916666666667,14.482812500000001,0)" xlink:href="#bE"/><use transform="matrix(0.008072916666666667,0,0,0.008072916666666667,24.39635416666667,0)" xlink:href="#br"/><use transform="matrix(0.008072916666666667,0,0,0.008072916666666667,30.34609375,0)" xlink:href="#bs"/></g><g id="G"><use transform="matrix(0.008072916666666667,0,0,0.008072916666666667,0,0)" xlink:href="#bB"/><use transform="matrix(0.008072916666666667,0,0,0.008072916666666667,4.004166666666667,0)" xlink:href="#by"/></g><g id="H"><use transform="matrix(0.008072916666666667,0,0,0.008072916666666667,0,0)" xlink:href="#bu"/><use transform="matrix(0.008072916666666667,0,0,0.008072916666666667,5.408854166666667,0)" xlink:href="#bG"/><use transform="matrix(0.008072916666666667,0,0,0.008072916666666667,15.185156250000002,0)" xlink:href="#bB"/><use transform="matrix(0.008072916666666667,0,0,0.008072916666666667,19.18932291666667,0)" xlink:href="#bv"/></g><g id="I"><use transform="matrix(0.008072916666666667,0,0,0.008072916666666667,0,0)" xlink:href="#bG"/><use transform="matrix(0.008072916666666667,0,0,0.008072916666666667,9.776302083333334,0)" xlink:href="#bs"/><use transform="matrix(0.008072916666666667,0,0,0.008072916666666667,19.415364583333336,0)" xlink:href="#bF"/><use transform="matrix(0.008072916666666667,0,0,0.008072916666666667,23.419531250000002,0)" xlink:href="#bI"/><path fill="#8080ff" d="M-.83 3.37h39.85V4.5H-.83z"/></g><g id="J"><use transform="matrix(0.008072916666666667,0,0,0.008072916666666667,0,0)" xlink:href="#bz"/><use transform="matrix(0.008072916666666667,0,0,0.008072916666666667,9.445312500000002,0)" xlink:href="#bs"/><use transform="matrix(0.008072916666666667,0,0,0.008072916666666667,19.084375,0)" xlink:href="#by"/><use transform="matrix(0.008072916666666667,0,0,0.008072916666666667,28.85260416666667,0)" xlink:href="#bu"/><use transform="matrix(0.008072916666666667,0,0,0.008072916666666667,34.1,0)" xlink:href="#bs"/><use transform="matrix(0.008072916666666667,0,0,0.008072916666666667,43.7390625,0)" xlink:href="#br"/><path fill="#8080ff" d="M-.83 3.37h56.27V4.5H-.83z"/></g><g id="K"><use transform="matrix(0.008072916666666667,0,0,0.008072916666666667,0,0)" xlink:href="#bt"/><use transform="matrix(0.008072916666666667,0,0,0.008072916666666667,9.283854166666668,0)" xlink:href="#br"/><use transform="matrix(0.008072916666666667,0,0,0.008072916666666667,15.766406250000001,0)" xlink:href="#bu"/><use transform="matrix(0.008072916666666667,0,0,0.008072916666666667,21.175260416666667,0)" xlink:href="#bB"/><use transform="matrix(0.008072916666666667,0,0,0.008072916666666667,25.179427083333334,0)" xlink:href="#bz"/><use transform="matrix(0.008072916666666667,0,0,0.008072916666666667,34.62473958333334,0)" xlink:href="#bF"/><use transform="matrix(0.008072916666666667,0,0,0.008072916666666667,38.62890625000001,0)" xlink:href="#bs"/><path fill="#8080ff" d="M-.83 3.37H49.1V4.5H-.84z"/><use transform="matrix(0.008072916666666667,0,0,0.008072916666666667,48.267968750000016,0)" xlink:href="#bK"/></g><image width="10" height="10" id="bN" xlink:href="https://images.lucid.app/images/20c9d1f5-d6d0-493e-aab2-f6b2656ad545/content" preserveAspectRatio="none"/><pattern id="L" patternUnits="userSpaceOnUse" x="277.08" y="63.21" width="31.51" height="24.35"><use xlink:href="#bN" transform="translate(-3.354027543419136, -3.4472682470574654) scale(3.8322927183590343,2.9939786862179956)"/></pattern><image width="10" height="10" id="bO" xlink:href="https://images.lucid.app/images/d3a0c09f-d52d-43ce-9bff-445ebe44fb8d/content" preserveAspectRatio="none"/><pattern id="M" patternUnits="userSpaceOnUse" x="290.02" y="82.92" width="20.8" height="20.8"><use xlink:href="#bO" transform="translate(0, 0) scale(2.0798033829834663,2.0798033829834663)"/></pattern><path d="M657 26c-323 0-524-166-541-416h195c15 169 171 246 346 246 202 0 356-106 356-265 5-203-294-238-475-293-239-73-380-191-380-389 0-252 224-419 512-419 294 0 499 171 508 396H992c-17-145-151-228-328-228-193 0-321 102-321 242 0 156 175 211 284 241l149 41c160 44 422 134 422 412 0 244-197 432-541 432" id="bP"/><path d="M140 405l46-156c120 36 205 19 263-150l32-93L54-1118h197c107 313 237 620 324 950 87-331 219-637 326-950h196L606 167c-68 178-176 259-334 259-64 0-113-12-132-21" id="bQ"/><path d="M538 24C308 24 148-78 108-271l171-41c32 123 123 178 257 178 156 0 256-77 256-169 0-77-54-128-164-154l-186-44c-203-48-300-148-300-305 0-192 176-326 414-326 230 0 351 112 402 269l-163 42c-31-80-94-158-238-158-133 0-233 69-233 162 0 83 57 129 188 160l169 40c203 48 298 149 298 302 0 196-179 339-441 339" id="bR"/><path d="M628 24c-324 0-524-230-524-574 0-343 198-582 503-582 237 0 487 146 487 559v75H286c9 234 145 362 343 362 132 0 231-58 273-172l174 48C1024-91 857 24 628 24zM287-650h624c-17-190-120-322-304-322-192 0-309 151-320 322" id="bS"/><path d="M158 0v-1118h175l1 205c55-151 181-225 313-225 147 0 245 90 285 228 53-141 190-228 352-228 194 0 352 125 352 384V0h-181v-749c0-161-105-225-225-225-151 0-243 103-243 244V0H807v-767c0-124-93-207-219-207-131 0-250 92-250 270V0H158" id="bT"/><g id="N"><use transform="matrix(0.008072916666666667,0,0,0.008072916666666667,0,0)" xlink:href="#bP"/><use transform="matrix(0.008072916666666667,0,0,0.008072916666666667,10.607812500000001,0)" xlink:href="#bQ"/><use transform="matrix(0.008072916666666667,0,0,0.008072916666666667,19.899739583333336,0)" xlink:href="#bR"/><use transform="matrix(0.008072916666666667,0,0,0.008072916666666667,28.626562500000006,0)" xlink:href="#ba"/><use transform="matrix(0.008072916666666667,0,0,0.008072916666666667,33.87395833333334,0)" xlink:href="#bS"/><use transform="matrix(0.008072916666666667,0,0,0.008072916666666667,43.51302083333334,0)" xlink:href="#bT"/></g><image width="10" height="10" id="bU" xlink:href="https://cdn-cashy-static-assets.lucidchart.com/app/common/quickactions/icons/collaborative-ai-24-icon.svg" preserveAspectRatio="none"/><pattern id="P" patternUnits="userSpaceOnUse" x="548.16" y="458.67" width="192.25" height="84.5"><use xlink:href="#bU" transform="translate(26.601449330303126, 26.601449330303126) scale(3.1295822741533055,3.1295822741533055)"/></pattern><path fill="#282c33" d="M135 0v-1490h591c327 0 492 160 492 383 0 177-115 286-268 320v15c168 8 326 140 326 361 0 236-176 411-512 411H135zm305-251h264c179 0 258-76 258-189 0-125-97-215-250-215H440v404zm0-613h241c131 0 228-74 228-194 0-109-79-183-222-183H440v377" id="bV"/><path fill="#282c33" d="M128 0v-1118h290v195h12c54-169 184-238 367-200v268c-27-8-86-15-130-15-138 0-239 95-239 234V0H128" id="bW"/><path fill="#282c33" d="M440 22C227 22 68-92 68-313c0-250 202-322 422-343 195-21 271-24 271-105 0-95-63-149-175-149-116 0-187 57-211 129l-275-46c57-194 237-305 487-305 240 0 474 108 474 379V0H777v-155h-10C713-51 605 22 440 22zm85-211c140 0 238-93 238-211v-121c-37 26-156 42-222 51-111 16-185 59-185 149 0 87 70 132 169 132" id="bX"/><path fill="#282c33" d="M128 0v-1118h300V0H128zm150-1264c-91 0-165-68-165-154 0-85 74-154 165-154 90 0 165 69 165 154 0 86-75 154-165 154" id="bY"/><path fill="#282c33" d="M428-647V0H128v-1118h283l4 231c63-156 176-245 348-245 232 0 384 159 384 421V0H847v-659c0-139-76-222-202-222-128 0-217 86-217 234" id="bZ"/><path fill="#282c33" d="M572 22C302 22 117-98 78-306l279-48c29 105 101 156 224 156 114 0 185-48 185-115 0-118-228-130-337-155-215-49-322-150-322-317 0-215 187-347 470-347 265 0 424 116 466 298l-266 47c-24-76-87-130-196-130-98 0-174 46-174 113 0 56 38 95 144 117l201 40c216 44 320 143 320 302 0 220-207 367-500 367" id="ca"/><path fill="#282c33" d="M683-1118v229H474v562c0 71 29 104 102 104 23 0 73-7 95-13l43 225C647 9 580 16 520 16 296 16 174-96 174-301v-588H20v-229h154v-266h300v266h209" id="cb"/><path fill="#282c33" d="M628 22C291 22 81-210 81-554c0-346 210-578 547-578 336 0 547 232 547 578 0 344-211 576-547 576zm0-236c160 0 242-146 242-341 0-197-82-341-242-341S387-753 387-555c0 195 81 341 241 341" id="cc"/><path fill="#282c33" d="M128 0v-1118h278l12 217c60-163 185-234 319-234 143 0 236 81 288 251 63-172 205-251 359-251 205 0 357 138 357 381V0h-301v-697c0-126-76-187-177-187-114 0-184 79-184 196V0H789v-705c0-109-72-179-174-179-106 0-187 74-187 208V0H128" id="cd"/><g id="Q"><use transform="matrix(0.0076405817240070934,0,0,0.0076405817240070934,0,0)" xlink:href="#bV"/><use transform="matrix(0.0076405817240070934,0,0,0.0076405817240070934,10.352988236029612,0)" xlink:href="#bW"/><use transform="matrix(0.0076405817240070934,0,0,0.0076405817240070934,16.511297105579327,0)" xlink:href="#bX"/><use transform="matrix(0.0076405817240070934,0,0,0.0076405817240070934,25.59594877542376,0)" xlink:href="#bY"/><use transform="matrix(0.0076405817240070934,0,0,0.0076405817240070934,29.836471632247697,0)" xlink:href="#bZ"/><use transform="matrix(0.0076405817240070934,0,0,0.0076405817240070934,39.57821333035674,0)" xlink:href="#ca"/><use transform="matrix(0.0076405817240070934,0,0,0.0076405817240070934,48.341960567792874,0)" xlink:href="#cb"/><use transform="matrix(0.0076405817240070934,0,0,0.0076405817240070934,53.91958522631805,0)" xlink:href="#cc"/><use transform="matrix(0.0076405817240070934,0,0,0.0076405817240070934,63.516155871670954,0)" xlink:href="#bW"/><use transform="matrix(0.0076405817240070934,0,0,0.0076405817240070934,70.00300975535299,0)" xlink:href="#cd"/></g><filter id="O" filterUnits="objectBoundingBox" x="-.04" y="-.04" width="1.08" height="1.19"><feOffset result="offOut" in="SourceAlpha" dy="5"/><feGaussianBlur result="blurOut" in="offOut" stdDeviation="4"/><feColorMatrix result="colorOut" in="blurOut" values="0 0 0 0 0 0 0 0 0 0 0 0 0 0 0 0 0 0 0.14901960784313725 0"/><feBlend in="SourceGraphic" in2="colorOut"/></filter><pattern id="S" patternUnits="userSpaceOnUse" x="504.42" y="320.67" width="236" height="118"><use xlink:href="#bU" transform="translate(49.79380759214746, 25.71794871794873) scale(3.0256410256410255,3.0256410256410255)"/></pattern><image width="10" height="10" id="ce" xlink:href="https://cdn-cashy-static-assets.lucidchart.com/app/common/quickactions/icons/adjust-24-icon.svg" preserveAspectRatio="none"/><pattern id="T" patternUnits="userSpaceOnUse" x="504.42" y="320.67" width="236" height="118"><use xlink:href="#ce" transform="translate(27.230769230769283, 77.15384615384619) scale(1.8153846153846154,1.8153846153846154)"/></pattern><path fill="#282c33" d="M681 22C323 22 94-145 85-462h297c10 151 131 226 296 226 163 0 271-77 271-190 0-102-95-149-257-189l-164-41c-252-61-403-188-403-405 0-269 236-449 560-449 330 0 546 183 551 445H941c-11-119-106-188-259-188-156 0-244 72-244 172-3 156 226 185 373 221 250 61 445 186 445 436 0 271-213 446-575 446" id="cf"/><path fill="#282c33" d="M513 14c-232 0-385-159-385-421v-711h300v659c0 139 76 222 202 222 127 0 217-86 217-234v-647h301V0H864l-4-232C797-74 683 14 513 14" id="cg"/><path fill="#282c33" d="M120 0v-182l551-686v-8H137v-242h897v199L514-250v8h539V0H120" id="ch"/><path fill="#282c33" d="M633 22C291 22 81-200 81-553c0-345 210-579 537-579 292 0 525 185 525 567v84H378c7 183 109 277 260 277 105 0 184-46 216-132l272 51C1071-99 893 22 633 22zM380-669h474c-15-146-94-237-233-237-143 0-229 99-241 237" id="ci"/><g id="U"><use transform="matrix(0.00738681891025641,0,0,0.00738681891025641,0,0)" xlink:href="#cf"/><use transform="matrix(0.00738681891025641,0,0,0.00738681891025641,9.905724158653847,0)" xlink:href="#cg"/><use transform="matrix(0.00738681891025641,0,0,0.00738681891025641,19.32391826923077,0)" xlink:href="#cd"/><use transform="matrix(0.00738681891025641,0,0,0.00738681891025641,33.1298828125,0)" xlink:href="#cd"/><use transform="matrix(0.00738681891025641,0,0,0.00738681891025641,46.935847355769226,0)" xlink:href="#bX"/><use transform="matrix(0.00738681891025641,0,0,0.00738681891025641,55.7187750400641,0)" xlink:href="#bW"/><use transform="matrix(0.00738681891025641,0,0,0.00738681891025641,61.990184294871796,0)" xlink:href="#bY"/><use transform="matrix(0.00738681891025641,0,0,0.00738681891025641,66.0898687900641,0)" xlink:href="#ch"/><use transform="matrix(0.00738681891025641,0,0,0.00738681891025641,74.45174779647436,0)" xlink:href="#ci"/></g><path fill="#282c33" d="M783 20c-382 0-661-292-661-764 0-473 279-766 661-766 302 0 548 182 601 489h-190c-42-204-217-313-411-313-268 0-476 208-476 590 0 381 209 588 476 588 195 0 369-110 411-313h190c-52 303-296 489-601 489" id="cj"/><path fill="#282c33" d="M537 14c-226 0-379-139-379-422v-710h180v695c0 172 97 275 253 275 160 0 281-109 281-300v-670h181V0H879v-209C806-46 684 14 537 14" id="ck"/><path fill="#282c33" d="M538 24C308 24 148-78 108-271l171-41c32 123 123 178 257 178 156 0 256-77 256-169 0-77-54-128-164-154l-186-44c-203-48-300-148-300-305 0-192 176-326 414-326 230 0 351 112 402 269l-163 42c-31-80-94-158-238-158-133 0-233 69-233 162 0 83 57 129 188 160l169 40c203 48 298 149 298 302 0 196-179 339-441 339" id="cl"/><path fill="#282c33" d="M598-1118v154H368v674c0 100 37 144 132 144 23 0 62-6 92-12L629-6c-37 13-88 20-134 20-193 0-307-107-307-290v-688H20v-154h168v-266h180v266h230" id="cm"/><path fill="#282c33" d="M613 24c-304 0-509-231-509-576 0-350 205-580 509-580 305 0 511 230 511 580 0 345-206 576-511 576zm0-161c226 0 329-195 329-415 0-222-103-419-329-419-223 0-326 196-326 419 0 220 103 415 326 415" id="cn"/><path fill="#282c33" d="M158 0v-1118h175l1 205c55-151 181-225 313-225 147 0 245 90 285 228 53-141 190-228 352-228 194 0 352 125 352 384V0h-181v-749c0-161-105-225-225-225-151 0-243 103-243 244V0H807v-767c0-124-93-207-219-207-131 0-250 92-250 270V0H158" id="co"/><path fill="#282c33" d="M158 0v-1118h180V0H158zm91-1301c-68 0-125-53-125-119s57-119 125-119c69 0 126 53 126 119s-57 119-126 119" id="cp"/><path fill="#282c33" d="M126 0v-134l627-806v-11H146v-167h839v143L376-178v11h629V0H126" id="cq"/><path fill="#282c33" d="M628 24c-324 0-524-230-524-574 0-343 198-582 503-582 237 0 487 146 487 559v75H286c9 234 145 362 343 362 132 0 231-58 273-172l174 48C1024-91 857 24 628 24zM287-650h624c-17-190-120-322-304-322-192 0-309 151-320 322" id="cr"/><g id="V"><use transform="matrix(0.006648137019230769,0,0,0.006648137019230769,0,0)" xlink:href="#cj"/><use transform="matrix(0.006648137019230769,0,0,0.006648137019230769,9.94561298076923,0)" xlink:href="#ck"/><use transform="matrix(0.006648137019230769,0,0,0.006648137019230769,17.996506911057693,0)" xlink:href="#cl"/><use transform="matrix(0.006648137019230769,0,0,0.006648137019230769,25.183143028846153,0)" xlink:href="#cm"/><use transform="matrix(0.006648137019230769,0,0,0.006648137019230769,29.504432091346153,0)" xlink:href="#cn"/><use transform="matrix(0.006648137019230769,0,0,0.006648137019230769,37.66834435096154,0)" xlink:href="#co"/><use transform="matrix(0.006648137019230769,0,0,0.006648137019230769,49.59510216346154,0)" xlink:href="#cp"/><use transform="matrix(0.006648137019230769,0,0,0.006648137019230769,52.892578125,0)" xlink:href="#cq"/><use transform="matrix(0.006648137019230769,0,0,0.006648137019230769,60.21217698317307,0)" xlink:href="#cr"/></g><filter id="R" filterUnits="objectBoundingBox" x="-.03" y="-.03" width="1.07" height="1.14"><feOffset result="offOut" in="SourceAlpha" dy="5"/><feGaussianBlur result="blurOut" in="offOut" stdDeviation="4"/><feColorMatrix result="colorOut" in="blurOut" values="0 0 0 0 0 0 0 0 0 0 0 0 0 0 0 0 0 0 0.14901960784313725 0"/><feBlend in="SourceGraphic" in2="colorOut"/></filter><path d="M653-1490V0H466v-1314h-10L96-1047v-204l324-239h233" id="cs"/><path d="M295 13c-75 0-135-60-135-135s60-135 135-135 135 60 135 135S370 13 295 13" id="ct"/><path d="M471 26C259 26 90-98 90-318c0-256 228-303 435-329 202-27 287-16 287-108 0-139-79-219-234-219-161 0-248 86-283 164l-173-57c86-203 278-265 451-265 150 0 419 46 419 395V0H815v-152h-12C765-73 660 26 471 26zm31-159c199 0 310-134 310-271v-155c-30 35-226 55-295 64-131 17-246 59-246 186 0 116 97 176 231 176" id="cu"/><g id="W"><use transform="matrix(0.008680555555555556,0,0,0.008680555555555556,0,0)" xlink:href="#cs"/><use transform="matrix(0.008680555555555556,0,0,0.008680555555555556,7.230902777777778,0)" xlink:href="#ct"/><use transform="matrix(0.008680555555555556,0,0,0.008680555555555556,12.352430555555555,0)" xlink:href="#bP"/><use transform="matrix(0.008680555555555556,0,0,0.008680555555555556,23.758680555555557,0)" xlink:href="#ba"/><use transform="matrix(0.008680555555555556,0,0,0.008680555555555556,29.661458333333336,0)" xlink:href="#cu"/><use transform="matrix(0.008680555555555556,0,0,0.008680555555555556,39.64409722222223,0)" xlink:href="#bc"/><use transform="matrix(0.008680555555555556,0,0,0.008680555555555556,46.61458333333334,0)" xlink:href="#ba"/></g><g id="X"><use transform="matrix(0.008680555555555556,0,0,0.008680555555555556,0,0)" xlink:href="#bR"/><use transform="matrix(0.008680555555555556,0,0,0.008680555555555556,9.383680555555555,0)" xlink:href="#bQ"/><use transform="matrix(0.008680555555555556,0,0,0.008680555555555556,19.375,0)" xlink:href="#bR"/><use transform="matrix(0.008680555555555556,0,0,0.008680555555555556,28.758680555555557,0)" xlink:href="#ba"/><use transform="matrix(0.008680555555555556,0,0,0.008680555555555556,34.40104166666667,0)" xlink:href="#bS"/><use transform="matrix(0.008680555555555556,0,0,0.008680555555555556,44.76562500000001,0)" xlink:href="#bT"/></g><path d="M154 0v-137l495-537c165-179 249-281 249-418 0-156-121-253-280-253-170 0-278 110-278 278H158c0-264 200-443 465-443 266 0 455 183 455 416 0 161-73 288-336 568L416-179v12h687V0H154" id="cv"/><path d="M600 0L52-1490h200c166 485 304 806 458 1336 156-533 285-846 449-1336h202L819 0H600" id="cw"/><path d="M472 26C259 26 90-98 90-318c0-255 257-332 476-332h244v-105c0-138-77-219-232-219-160 0-248 86-283 164l-173-57c86-203 278-265 451-265 115 0 276 28 355 185 79-116 202-185 367-185 237 0 484 146 484 559v75H970c9 233 146 362 341 362 133 0 232-58 275-172l175 45c-52 170-218 287-450 287-195 0-344-83-418-214C840-70 660 26 472 26zm338-524H568c-158 0-297 61-297 189 0 116 97 176 231 176 199 0 308-134 308-271v-94zm161-152h623c-1-186-118-322-299-322-193 0-313 152-324 322" id="cx"/><path d="M338-1490V0H158v-1490h180" id="cy"/><path d="M611 442c-248 0-391-105-460-228l146-94c47 65 117 165 314 165 178 0 307-82 307-266v-224h-17C863-141 792-18 576-18c-268 0-472-195-472-546 0-346 197-568 476-568 216 0 288 133 326 193h17v-179h175V29c0 289-215 413-487 413zm-5-620c203 0 314-146 314-390 0-237-108-403-314-403-213 0-319 180-319 403 0 230 109 390 319 390" id="cz"/><g id="Y"><use transform="matrix(0.008680555555555556,0,0,0.008680555555555556,0,0)" xlink:href="#cv"/><use transform="matrix(0.008680555555555556,0,0,0.008680555555555556,10.84201388888889,0)" xlink:href="#ct"/><use transform="matrix(0.008680555555555556,0,0,0.008680555555555556,15.963541666666668,0)" xlink:href="#cw"/><use transform="matrix(0.008680555555555556,0,0,0.008680555555555556,27.32638888888889,0)" xlink:href="#cx"/><use transform="matrix(0.008680555555555556,0,0,0.008680555555555556,43.63715277777778,0)" xlink:href="#cy"/><use transform="matrix(0.008680555555555556,0,0,0.008680555555555556,47.942708333333336,0)" xlink:href="#cz"/></g><path d="M232-923l-22-567h194l-22 567H232zm340 0l-22-567h194l-22 567H572" id="cA"/><path d="M98-1322v-168h1126v168H757V0H567v-1322H98" id="cB"/><path d="M158 0v-1118h180V0H158zm91-1301c-68 0-125-53-125-119s57-119 125-119c69 0 126 53 126 119s-57 119-126 119" id="cC"/><path d="M678-1118v154H420V0H240v-964H20v-154h220v-149c0-194 155-293 318-293 85 0 141 18 168 30l-50 154c-19-6-47-17-97-17-111 0-159 58-159 166v109h258" id="cD"/><path d="M613 24C490 24 382-14 299-82L190 45 83-45l121-142c-64-96-100-220-100-365 0-350 205-580 509-580 121 0 227 36 310 102l114-133 106 90-124 146c67 97 105 225 105 375 0 345-206 576-511 576zm0-161c309 7 392-383 284-647L409-212c52 47 119 75 204 75zM328-332l485-568c-51-45-117-71-200-71-299-8-387 375-285 639" id="cE"/><path d="M157-1118h181V80c1 225-123 350-364 338V252c126 9 184-48 183-172v-1198zm91-183c-68 0-125-53-125-119s57-119 125-119c69 0 126 53 126 119s-57 119-126 119" id="cF"/><g id="Z"><use transform="matrix(0.008680555555555556,0,0,0.008680555555555556,0,0)" xlink:href="#cA"/><use transform="matrix(0.008680555555555556,0,0,0.008680555555555556,8.28125,0)" xlink:href="#cB"/><use transform="matrix(0.008680555555555556,0,0,0.008680555555555556,19.756944444444443,0)" xlink:href="#cC"/><use transform="matrix(0.008680555555555556,0,0,0.008680555555555556,24.0625,0)" xlink:href="#cy"/><use transform="matrix(0.008680555555555556,0,0,0.008680555555555556,28.368055555555557,0)" xlink:href="#cD"/><use transform="matrix(0.008680555555555556,0,0,0.008680555555555556,34.427083333333336,0)" xlink:href="#cE"/><use transform="matrix(0.008680555555555556,0,0,0.008680555555555556,45.08680555555556,0)" xlink:href="#cF"/></g><path d="M338-670V0H158v-1118h173l1 207c72-158 192-221 342-221 226 0 378 139 378 422V0H872v-695c0-172-96-275-252-275-161 0-282 109-282 300" id="cG"/><g id="aa"><use transform="matrix(0.008680555555555556,0,0,0.008680555555555556,0,0)" xlink:href="#cG"/><use transform="matrix(0.008680555555555556,0,0,0.008680555555555556,10.243055555555557,0)" xlink:href="#bQ"/></g><g id="ab"><use transform="matrix(0.008680555555555556,0,0,0.008680555555555556,0,0)" xlink:href="#cD"/><use transform="matrix(0.008680555555555556,0,0,0.008680555555555556,6.579861111111112,0)" xlink:href="#cC"/><use transform="matrix(0.008680555555555556,0,0,0.008680555555555556,10.885416666666668,0)" xlink:href="#cy"/><use transform="matrix(0.008680555555555556,0,0,0.008680555555555556,15.190972222222223,0)" xlink:href="#bT"/><use transform="matrix(0.008680555555555556,0,0,0.008680555555555556,30.763888888888893,0)" xlink:href="#cA"/></g><path d="M635 20c-292 0-500-160-510-396h192c11 142 145 229 315 229 187 0 323-105 323-260 0-161-125-274-346-274H488v-165h121c174 0 294-100 294-254 0-148-104-245-266-245-152 0-291 85-297 230H157c8-234 222-395 484-395 278 0 448 188 448 400 0 168-95 291-247 336v12c190 31 301 169 301 357 0 244-216 425-508 425" id="cH"/><path d="M370-1490V0H180v-1490h190" id="cI"/><path d="M577 24c-279 0-473-224-473-580 0-354 195-576 474-576 218 0 287 134 324 193h14v-551h180V0H922v-173h-20C865-111 790 24 577 24zm27-161c203 0 314-172 314-421 0-247-108-413-314-413-212 0-317 181-317 413 0 235 108 421 317 421" id="cJ"/><g id="ac"><use transform="matrix(0.008680555555555556,0,0,0.008680555555555556,0,0)" xlink:href="#cH"/><use transform="matrix(0.008680555555555556,0,0,0.008680555555555556,10.581597222222223,0)" xlink:href="#ct"/><use transform="matrix(0.008680555555555556,0,0,0.008680555555555556,15.703125,0)" xlink:href="#cI"/><use transform="matrix(0.008680555555555556,0,0,0.008680555555555556,20.477430555555557,0)" xlink:href="#cG"/><use transform="matrix(0.008680555555555556,0,0,0.008680555555555556,30.98090277777778,0)" xlink:href="#cJ"/><use transform="matrix(0.008680555555555556,0,0,0.008680555555555556,42.126736111111114,0)" xlink:href="#ba"/><use transform="matrix(0.008680555555555556,0,0,0.008680555555555556,48.02951388888889,0)" xlink:href="#cu"/><use transform="matrix(0.008680555555555556,0,0,0.008680555555555556,58.012152777777786,0)" xlink:href="#bR"/><use transform="matrix(0.008680555555555556,0,0,0.008680555555555556,67.39583333333334,0)" xlink:href="#ba"/></g><path d="M128 359l88-567h206L266 359H128" id="cK"/><g id="ad"><use transform="matrix(0.008680555555555556,0,0,0.008680555555555556,0,0)" xlink:href="#ba"/><use transform="matrix(0.008680555555555556,0,0,0.008680555555555556,5.815972222222222,0)" xlink:href="#cC"/><use transform="matrix(0.008680555555555556,0,0,0.008680555555555556,10.121527777777779,0)" xlink:href="#ba"/><use transform="matrix(0.008680555555555556,0,0,0.008680555555555556,15.76388888888889,0)" xlink:href="#bS"/><use transform="matrix(0.008680555555555556,0,0,0.008680555555555556,26.128472222222225,0)" xlink:href="#cy"/><use transform="matrix(0.008680555555555556,0,0,0.008680555555555556,30.43402777777778,0)" xlink:href="#cK"/></g><path d="M481 0L54-1118h197c107 314 236 620 325 951 87-331 217-637 324-951h197L670 0H481" id="cL"/><path d="M338-670V0H158v-1490h180v566c73-149 190-208 336-208 226 0 379 139 379 422V0H872v-695c0-172-96-275-252-275-161 0-282 109-282 300" id="cM"/><g id="ae"><use transform="matrix(0.008680555555555556,0,0,0.008680555555555556,0,0)" xlink:href="#cL"/><use transform="matrix(0.008680555555555556,0,0,0.008680555555555556,9.90451388888889,0)" xlink:href="#cu"/><use transform="matrix(0.008680555555555556,0,0,0.008680555555555556,19.88715277777778,0)" xlink:href="#bc"/><use transform="matrix(0.008680555555555556,0,0,0.008680555555555556,26.857638888888893,0)" xlink:href="#cC"/><use transform="matrix(0.008680555555555556,0,0,0.008680555555555556,31.16319444444445,0)" xlink:href="#cz"/><use transform="matrix(0.008680555555555556,0,0,0.008680555555555556,42.06597222222223,0)" xlink:href="#cM"/><use transform="matrix(0.008680555555555556,0,0,0.008680555555555556,52.57812500000001,0)" xlink:href="#bS"/><use transform="matrix(0.008680555555555556,0,0,0.008680555555555556,62.94270833333334,0)" xlink:href="#cJ"/></g><g id="af"><use transform="matrix(0.008680555555555556,0,0,0.008680555555555556,0,0)" xlink:href="#bb"/><use transform="matrix(0.008680555555555556,0,0,0.008680555555555556,10.659722222222223,0)" xlink:href="#cz"/></g><g id="ag"><use transform="matrix(0.008680555555555556,0,0,0.008680555555555556,0,0)" xlink:href="#cz"/><use transform="matrix(0.008680555555555556,0,0,0.008680555555555556,10.902777777777779,0)" xlink:href="#bS"/><use transform="matrix(0.008680555555555556,0,0,0.008680555555555556,21.267361111111114,0)" xlink:href="#cG"/><use transform="matrix(0.008680555555555556,0,0,0.008680555555555556,31.770833333333336,0)" xlink:href="#bc"/><use transform="matrix(0.008680555555555556,0,0,0.008680555555555556,38.16840277777778,0)" xlink:href="#bS"/></g><path d="M120-303v-155l652-1032h231v1020h202v167h-202V0H821v-303H120zm702-167v-782h-12L323-482v12h499" id="cN"/><path d="M692-1560L212 224H46l480-1784h166" id="cO"/><path d="M180 0v-1490h190c0 262 1 526-3 784 217-279 467-523 702-784h249L716-845 1319 0h-225L585-716 370-489V0H180" id="cP"/><path d="M158 0v-1490h180v865h22l478-493h223L593-638 1096 0H865L456-523 338-412V0H158" id="cQ"/><g id="ah"><use transform="matrix(0.008680555555555556,0,0,0.008680555555555556,0,0)" xlink:href="#cN"/><use transform="matrix(0.008680555555555556,0,0,0.008680555555555556,10.885416666666664,0)" xlink:href="#ct"/><use transform="matrix(0.008680555555555556,0,0,0.008680555555555556,16.006944444444443,0)" xlink:href="#cw"/><use transform="matrix(0.008680555555555556,0,0,0.008680555555555556,27.369791666666664,0)" xlink:href="#cx"/><use transform="matrix(0.008680555555555556,0,0,0.008680555555555556,43.68055555555556,0)" xlink:href="#cy"/><use transform="matrix(0.008680555555555556,0,0,0.008680555555555556,47.986111111111114,0)" xlink:href="#cz"/><use transform="matrix(0.008680555555555556,0,0,0.008680555555555556,58.88888888888889,0)" xlink:href="#cO"/><use transform="matrix(0.008680555555555556,0,0,0.008680555555555556,65.29513888888889,0)" xlink:href="#cP"/><use transform="matrix(0.008680555555555556,0,0,0.008680555555555556,77.23958333333331,0)" xlink:href="#cy"/><use transform="matrix(0.008680555555555556,0,0,0.008680555555555556,81.54513888888889,0)" xlink:href="#cC"/><use transform="matrix(0.008680555555555556,0,0,0.008680555555555556,85.85069444444444,0)" xlink:href="#cQ"/></g><path d="M789 20c-398 0-667-293-667-764 0-473 273-766 655-766 315 0 558 198 612 487h-196c-61-191-204-311-415-311-262 0-471 207-471 590 0 380 208 588 482 588 249 0 420-165 425-427H828v-166h572v163c0 370-256 606-611 606" id="cR"/><g id="ai"><use transform="matrix(0.008680555555555556,0,0,0.008680555555555556,0,0)" xlink:href="#cA"/><use transform="matrix(0.008680555555555556,0,0,0.008680555555555556,8.28125,0)" xlink:href="#cR"/><use transform="matrix(0.008680555555555556,0,0,0.008680555555555556,21.54513888888889,0)" xlink:href="#bS"/><use transform="matrix(0.008680555555555556,0,0,0.008680555555555556,31.90972222222222,0)" xlink:href="#bT"/></g><g id="aj"><use transform="matrix(0.008680555555555556,0,0,0.008680555555555556,0,0)" xlink:href="#cs"/><use transform="matrix(0.008680555555555556,0,0,0.008680555555555556,7.230902777777778,0)" xlink:href="#ct"/><use transform="matrix(0.008680555555555556,0,0,0.008680555555555556,10.815972222222221,0)" xlink:href="#cs"/></g><g id="ak"><use transform="matrix(0.008680555555555556,0,0,0.008680555555555556,0,0)" xlink:href="#cy"/><use transform="matrix(0.008680555555555556,0,0,0.008680555555555556,4.305555555555555,0)" xlink:href="#bb"/><use transform="matrix(0.008680555555555556,0,0,0.008680555555555556,15.13888888888889,0)" xlink:href="#cu"/><use transform="matrix(0.008680555555555556,0,0,0.008680555555555556,25.12152777777778,0)" xlink:href="#cJ"/><use transform="matrix(0.008680555555555556,0,0,0.008680555555555556,36.00694444444444,0)" xlink:href="#bS"/><use transform="matrix(0.008680555555555556,0,0,0.008680555555555556,46.37152777777778,0)" xlink:href="#bc"/></g><g id="al"><use transform="matrix(0.008680555555555556,0,0,0.008680555555555556,0,0)" xlink:href="#cu"/><use transform="matrix(0.008680555555555556,0,0,0.008680555555555556,9.98263888888889,0)" xlink:href="#cy"/><use transform="matrix(0.008680555555555556,0,0,0.008680555555555556,14.288194444444445,0)" xlink:href="#cy"/><use transform="matrix(0.008680555555555556,0,0,0.008680555555555556,18.59375,0)" xlink:href="#bS"/><use transform="matrix(0.008680555555555556,0,0,0.008680555555555556,28.958333333333336,0)" xlink:href="#bc"/><use transform="matrix(0.008680555555555556,0,0,0.008680555555555556,35.35590277777778,0)" xlink:href="#bS"/><use transform="matrix(0.008680555555555556,0,0,0.008680555555555556,45.720486111111114,0)" xlink:href="#cJ"/><use transform="matrix(0.008680555555555556,0,0,0.008680555555555556,56.605902777777786,0)" xlink:href="#bS"/></g><g id="am"><use transform="matrix(0.008680555555555556,0,0,0.008680555555555556,0,0)" xlink:href="#bS"/><use transform="matrix(0.008680555555555556,0,0,0.008680555555555556,10.364583333333334,0)" xlink:href="#cQ"/><use transform="matrix(0.008680555555555556,0,0,0.008680555555555556,20.12152777777778,0)" xlink:href="#bR"/><use transform="matrix(0.008680555555555556,0,0,0.008680555555555556,29.505208333333336,0)" xlink:href="#cC"/><use transform="matrix(0.008680555555555556,0,0,0.008680555555555556,33.81076388888889,0)" xlink:href="#bR"/><use transform="matrix(0.008680555555555556,0,0,0.008680555555555556,43.19444444444444,0)" xlink:href="#ba"/><use transform="matrix(0.008680555555555556,0,0,0.008680555555555556,48.83680555555556,0)" xlink:href="#bS"/><use transform="matrix(0.008680555555555556,0,0,0.008680555555555556,59.20138888888889,0)" xlink:href="#bc"/><use transform="matrix(0.008680555555555556,0,0,0.008680555555555556,65.59895833333334,0)" xlink:href="#bS"/><use transform="matrix(0.008680555555555556,0,0,0.008680555555555556,75.96354166666667,0)" xlink:href="#cG"/><use transform="matrix(0.008680555555555556,0,0,0.008680555555555556,86.46701388888889,0)" xlink:href="#cJ"/><use transform="matrix(0.008680555555555556,0,0,0.008680555555555556,97.35243055555557,0)" xlink:href="#bS"/></g><g id="an"><use transform="matrix(0.008680555555555556,0,0,0.008680555555555556,0,0)" xlink:href="#cD"/><use transform="matrix(0.008680555555555556,0,0,0.008680555555555556,6.579861111111112,0)" xlink:href="#cC"/><use transform="matrix(0.008680555555555556,0,0,0.008680555555555556,10.885416666666668,0)" xlink:href="#cy"/><use transform="matrix(0.008680555555555556,0,0,0.008680555555555556,15.190972222222223,0)" xlink:href="#bT"/></g><g id="ao"><use transform="matrix(0.008680555555555556,0,0,0.008680555555555556,0,0)" xlink:href="#cN"/><use transform="matrix(0.008680555555555556,0,0,0.008680555555555556,10.885416666666664,0)" xlink:href="#ct"/><use transform="matrix(0.008680555555555556,0,0,0.008680555555555556,14.470486111111109,0)" xlink:href="#cs"/></g><path d="M180 0v-1490h528c311 0 458 177 458 395 0 191-114 278-244 313v14c139 9 302 137 302 371 0 225-148 397-499 397H180zm190-168h350c232 0 321-102 321-231 0-149-120-277-311-277H370v508zm0-668h328c160 0 286-101 286-255 0-129-87-231-280-231H370v486" id="cS"/><g id="ap"><use transform="matrix(0.008680555555555556,0,0,0.008680555555555556,0,0)" xlink:href="#cS"/><use transform="matrix(0.008680555555555556,0,0,0.008680555555555556,11.631944444444445,0)" xlink:href="#bS"/><use transform="matrix(0.008680555555555556,0,0,0.008680555555555556,21.99652777777778,0)" xlink:href="#cQ"/><use transform="matrix(0.008680555555555556,0,0,0.008680555555555556,31.75347222222222,0)" xlink:href="#bc"/><use transform="matrix(0.008680555555555556,0,0,0.008680555555555556,38.44618055555556,0)" xlink:href="#cx"/><use transform="matrix(0.008680555555555556,0,0,0.008680555555555556,54.756944444444436,0)" xlink:href="#cD"/><use transform="matrix(0.008680555555555556,0,0,0.008680555555555556,60.72916666666667,0)" xlink:href="#ba"/></g><path d="M158 418v-1536h174v179h20c37-59 106-193 324-193 279 0 474 222 474 576 0 356-194 580-473 580-213 0-288-135-325-197h-14v591H158zm492-555c209 0 317-186 317-421 0-232-105-413-317-413-206 0-314 166-314 413 0 249 111 421 314 421" id="cT"/><path d="M537 14c-226 0-379-139-379-422v-710h180v695c0 172 97 275 253 275 160 0 281-109 281-300v-670h181V0H879v-209C806-46 684 14 537 14" id="cU"/><g id="aq"><use transform="matrix(0.008680555555555556,0,0,0.008680555555555556,0,0)" xlink:href="#cC"/><use transform="matrix(0.008680555555555556,0,0,0.008680555555555556,4.305555555555555,0)" xlink:href="#cG"/><use transform="matrix(0.008680555555555556,0,0,0.008680555555555556,14.809027777777779,0)" xlink:href="#cT"/><use transform="matrix(0.008680555555555556,0,0,0.008680555555555556,25.694444444444446,0)" xlink:href="#cU"/><use transform="matrix(0.008680555555555556,0,0,0.008680555555555556,36.20659722222223,0)" xlink:href="#ba"/></g><g id="ar"><use transform="matrix(0.008680555555555556,0,0,0.008680555555555556,0,0)" xlink:href="#cN"/><use transform="matrix(0.008680555555555556,0,0,0.008680555555555556,10.885416666666664,0)" xlink:href="#ct"/><use transform="matrix(0.008680555555555556,0,0,0.008680555555555556,16.006944444444443,0)" xlink:href="#cv"/></g><g id="as"><use transform="matrix(0.008680555555555556,0,0,0.008680555555555556,0,0)" xlink:href="#cR"/><use transform="matrix(0.008680555555555556,0,0,0.008680555555555556,13.26388888888889,0)" xlink:href="#bS"/><use transform="matrix(0.008680555555555556,0,0,0.008680555555555556,23.628472222222225,0)" xlink:href="#bT"/></g><g id="at"><use transform="matrix(0.008680555555555556,0,0,0.008680555555555556,0,0)" xlink:href="#cG"/><use transform="matrix(0.008680555555555556,0,0,0.008680555555555556,10.243055555555557,0)" xlink:href="#bQ"/></g><g id="au"><use transform="matrix(0.008680555555555556,0,0,0.008680555555555556,0,0)" xlink:href="#cD"/><use transform="matrix(0.008680555555555556,0,0,0.008680555555555556,6.579861111111112,0)" xlink:href="#cC"/><use transform="matrix(0.008680555555555556,0,0,0.008680555555555556,10.885416666666668,0)" xlink:href="#cy"/><use transform="matrix(0.008680555555555556,0,0,0.008680555555555556,15.190972222222223,0)" xlink:href="#bT"/></g><g id="av"><use transform="matrix(0.008680555555555556,0,0,0.008680555555555556,0,0)" xlink:href="#ba"/><use transform="matrix(0.008680555555555556,0,0,0.008680555555555556,5.815972222222222,0)" xlink:href="#cC"/><use transform="matrix(0.008680555555555556,0,0,0.008680555555555556,10.121527777777779,0)" xlink:href="#cy"/></g><g id="aw"><use transform="matrix(0.008680555555555556,0,0,0.008680555555555556,0,0)" xlink:href="#cy"/><use transform="matrix(0.008680555555555556,0,0,0.008680555555555556,4.305555555555555,0)" xlink:href="#cC"/><use transform="matrix(0.008680555555555556,0,0,0.008680555555555556,8.61111111111111,0)" xlink:href="#bR"/><use transform="matrix(0.008680555555555556,0,0,0.008680555555555556,17.994791666666664,0)" xlink:href="#ba"/><use transform="matrix(0.008680555555555556,0,0,0.008680555555555556,23.637152777777775,0)" xlink:href="#bS"/><use transform="matrix(0.008680555555555556,0,0,0.008680555555555556,34.00173611111111,0)" xlink:href="#cO"/><use transform="matrix(0.008680555555555556,0,0,0.008680555555555556,40.40798611111111,0)" xlink:href="#aZ"/><use transform="matrix(0.008680555555555556,0,0,0.008680555555555556,50.56423611111111,0)" xlink:href="#bb"/><use transform="matrix(0.008680555555555556,0,0,0.008680555555555556,61.22395833333333,0)" xlink:href="#cy"/><use transform="matrix(0.008680555555555556,0,0,0.008680555555555556,65.52951388888889,0)" xlink:href="#cy"/><use transform="matrix(0.008680555555555556,0,0,0.008680555555555556,69.83506944444444,0)" xlink:href="#bS"/><use transform="matrix(0.008680555555555556,0,0,0.008680555555555556,80.19965277777777,0)" xlink:href="#aZ"/><use transform="matrix(0.008680555555555556,0,0,0.008680555555555556,90.35590277777777,0)" xlink:href="#ba"/><use transform="matrix(0.008680555555555556,0,0,0.008680555555555556,96.171875,0)" xlink:href="#cC"/><use transform="matrix(0.008680555555555556,0,0,0.008680555555555556,100.47743055555556,0)" xlink:href="#bb"/><use transform="matrix(0.008680555555555556,0,0,0.008680555555555556,111.13715277777779,0)" xlink:href="#cG"/></g><g id="ax"><use transform="matrix(0.008680555555555556,0,0,0.008680555555555556,0,0)" xlink:href="#cN"/><use transform="matrix(0.008680555555555556,0,0,0.008680555555555556,10.885416666666664,0)" xlink:href="#ct"/><use transform="matrix(0.008680555555555556,0,0,0.008680555555555556,15.52951388888889,0)" xlink:href="#cH"/></g><g id="ay"><use transform="matrix(0.008680555555555556,0,0,0.008680555555555556,0,0)" xlink:href="#aZ"/><use transform="matrix(0.008680555555555556,0,0,0.008680555555555556,10.15625,0)" xlink:href="#bb"/><use transform="matrix(0.008680555555555556,0,0,0.008680555555555556,20.81597222222222,0)" xlink:href="#cy"/><use transform="matrix(0.008680555555555556,0,0,0.008680555555555556,25.12152777777778,0)" xlink:href="#cy"/><use transform="matrix(0.008680555555555556,0,0,0.008680555555555556,29.427083333333336,0)" xlink:href="#bS"/><use transform="matrix(0.008680555555555556,0,0,0.008680555555555556,39.79166666666667,0)" xlink:href="#aZ"/><use transform="matrix(0.008680555555555556,0,0,0.008680555555555556,49.94791666666667,0)" xlink:href="#ba"/><use transform="matrix(0.008680555555555556,0,0,0.008680555555555556,55.76388888888889,0)" xlink:href="#cC"/><use transform="matrix(0.008680555555555556,0,0,0.008680555555555556,60.06944444444445,0)" xlink:href="#bb"/><use transform="matrix(0.008680555555555556,0,0,0.008680555555555556,70.72916666666667,0)" xlink:href="#cG"/></g><g id="az"><use transform="matrix(0.008680555555555556,0,0,0.008680555555555556,0,0)" xlink:href="#cD"/><use transform="matrix(0.008680555555555556,0,0,0.008680555555555556,6.579861111111112,0)" xlink:href="#cC"/><use transform="matrix(0.008680555555555556,0,0,0.008680555555555556,10.885416666666668,0)" xlink:href="#cy"/></g><path d="M626 20c-262 0-458-168-468-396h184c12 133 134 229 284 229 180 0 311-137 311-326 0-192-136-335-323-335-92 0-196 33-255 78l-178-22 88-738h784v167H429l-51 435h8c61-51 160-87 263-87 273 0 474 211 474 499 0 286-210 496-497 496" id="cV"/><g id="aA"><use transform="matrix(0.008680555555555556,0,0,0.008680555555555556,0,0)" xlink:href="#cV"/><use transform="matrix(0.008680555555555556,0,0,0.008680555555555556,10.32986111111111,0)" xlink:href="#ct"/></g><g id="aB"><use transform="matrix(0.008680555555555556,0,0,0.008680555555555556,0,0)" xlink:href="#bP"/><use transform="matrix(0.008680555555555556,0,0,0.008680555555555556,11.40625,0)" xlink:href="#bQ"/><use transform="matrix(0.008680555555555556,0,0,0.008680555555555556,21.397569444444443,0)" xlink:href="#bR"/><use transform="matrix(0.008680555555555556,0,0,0.008680555555555556,30.78125,0)" xlink:href="#ba"/><use transform="matrix(0.008680555555555556,0,0,0.008680555555555556,36.423611111111114,0)" xlink:href="#bS"/><use transform="matrix(0.008680555555555556,0,0,0.008680555555555556,46.78819444444445,0)" xlink:href="#bT"/></g><g id="aC"><use transform="matrix(0.008680555555555556,0,0,0.008680555555555556,0,0)" xlink:href="#cL"/><use transform="matrix(0.008680555555555556,0,0,0.008680555555555556,9.991319444444445,0)" xlink:href="#cC"/><use transform="matrix(0.008680555555555556,0,0,0.008680555555555556,14.296875,0)" xlink:href="#bR"/><use transform="matrix(0.008680555555555556,0,0,0.008680555555555556,23.680555555555557,0)" xlink:href="#bS"/><use transform="matrix(0.008680555555555556,0,0,0.008680555555555556,34.04513888888889,0)" xlink:href="#bc"/></g><g id="aD"><use transform="matrix(0.008680555555555556,0,0,0.008680555555555556,0,0)" xlink:href="#bb"/><use transform="matrix(0.008680555555555556,0,0,0.008680555555555556,10.659722222222223,0)" xlink:href="#cT"/><use transform="matrix(0.008680555555555556,0,0,0.008680555555555556,21.545138888888893,0)" xlink:href="#cJ"/><use transform="matrix(0.008680555555555556,0,0,0.008680555555555556,32.43055555555556,0)" xlink:href="#cu"/><use transform="matrix(0.008680555555555556,0,0,0.008680555555555556,42.41319444444444,0)" xlink:href="#ba"/><use transform="matrix(0.008680555555555556,0,0,0.008680555555555556,48.05555555555555,0)" xlink:href="#bS"/><use transform="matrix(0.008680555555555556,0,0,0.008680555555555556,58.420138888888886,0)" xlink:href="#bc"/><use transform="matrix(0.008680555555555556,0,0,0.008680555555555556,64.81770833333333,0)" xlink:href="#bS"/><use transform="matrix(0.008680555555555556,0,0,0.008680555555555556,75.18229166666666,0)" xlink:href="#ba"/></g><g id="aE"><use transform="matrix(0.008680555555555556,0,0,0.008680555555555556,0,0)" xlink:href="#cy"/><use transform="matrix(0.008680555555555556,0,0,0.008680555555555556,4.305555555555555,0)" xlink:href="#cC"/><use transform="matrix(0.008680555555555556,0,0,0.008680555555555556,8.61111111111111,0)" xlink:href="#bR"/><use transform="matrix(0.008680555555555556,0,0,0.008680555555555556,17.994791666666664,0)" xlink:href="#ba"/><use transform="matrix(0.008680555555555556,0,0,0.008680555555555556,23.637152777777775,0)" xlink:href="#bS"/></g></defs></g></svg>